<?xml version="1.0" encoding="UTF-8" standalone="no"?>
<!DOCTYPE svg PUBLIC "-//W3C//DTD SVG 1.1//EN" "http://www.w3.org/Graphics/SVG/1.1/DTD/svg11.dtd">
<svg width="100%" height="100%" viewBox="0 0 34 20" version="1.1" xmlns="http://www.w3.org/2000/svg" xmlns:xlink="http://www.w3.org/1999/xlink" xml:space="preserve" xmlns:serif="http://www.serif.com/" style="fill-rule:evenodd;clip-rule:evenodd;stroke-linecap:square;stroke-miterlimit:10;">
    <g transform="matrix(1.56647,0,0,1.55645,-14.3294,-5.56452)">
        <rect x="9.371" y="3.8" width="21.258" height="12.4" style="fill:white;stroke:black;stroke-width:0.43px;"/>
        <path d="M16.225,7.558C16.225,7.247 16.463,7.021 16.75,7.021C17.036,7.021 17.228,7.247 17.228,7.558C17.228,7.828 17.036,8.051 16.75,8.051C16.463,8.051 16.225,7.828 16.225,7.558" style="stroke:black;stroke-width:0.21px;stroke-linecap:round;stroke-linejoin:round;"/>
        <path d="M11.35,7.558C11.35,7.247 11.588,7.021 11.875,7.021C12.115,7.021 12.353,7.247 12.353,7.558C12.353,7.828 12.115,8.051 11.875,8.051C11.588,8.051 11.35,7.828 11.35,7.558" style="stroke:black;stroke-width:0.21px;stroke-linecap:round;stroke-linejoin:round;"/>
        <path d="M13.787,5.094C13.787,4.826 14.026,4.601 14.313,4.601C14.6,4.601 14.79,4.826 14.79,5.094C14.79,5.364 14.6,5.587 14.313,5.587C14.026,5.587 13.787,5.364 13.787,5.094" style="stroke:black;stroke-width:0.21px;stroke-linecap:round;stroke-linejoin:round;"/>
        <path d="M27.645,7.558C27.645,7.247 27.885,7.021 28.172,7.021C28.458,7.021 28.65,7.247 28.65,7.558C28.65,7.828 28.458,8.051 28.172,8.051C27.885,8.051 27.645,7.828 27.645,7.558" style="stroke:black;stroke-width:0.21px;stroke-linecap:round;stroke-linejoin:round;"/>
        <path d="M22.772,7.558C22.772,7.291 23.01,7.067 23.297,7.067C23.536,7.067 23.775,7.291 23.775,7.558C23.775,7.828 23.536,8.051 23.297,8.051C23.01,8.051 22.772,7.828 22.772,7.558" style="stroke:black;stroke-width:0.21px;stroke-linecap:round;stroke-linejoin:round;"/>
        <path d="M25.208,5.094C25.208,4.826 25.447,4.601 25.735,4.601C26.021,4.601 26.212,4.826 26.212,5.094C26.212,5.364 26.021,5.587 25.735,5.587C25.447,5.587 25.208,5.364 25.208,5.094" style="stroke:black;stroke-width:0.21px;stroke-linecap:round;stroke-linejoin:round;"/>
        <path d="M17.036,14.862C17.036,14.592 17.276,14.369 17.563,14.369C17.801,14.369 18.041,14.592 18.041,14.862C18.041,15.176 17.801,15.399 17.563,15.399C17.276,15.399 17.036,15.176 17.036,14.862" style="stroke:black;stroke-width:0.21px;stroke-linecap:round;stroke-linejoin:round;"/>
        <path d="M21.959,14.862C21.959,14.592 22.197,14.369 22.485,14.369C22.724,14.369 22.962,14.592 22.962,14.862C22.962,15.176 22.724,15.399 22.485,15.399C22.197,15.399 21.959,15.176 21.959,14.862" style="stroke:black;stroke-width:0.21px;stroke-linecap:round;stroke-linejoin:round;"/>
        <path d="M19.522,12.443C19.522,12.173 19.713,11.95 19.999,11.95C20.286,11.95 20.525,12.173 20.525,12.443C20.525,12.71 20.286,12.936 19.999,12.936C19.713,12.936 19.522,12.71 19.522,12.443" style="stroke:black;stroke-width:0.21px;stroke-linecap:round;stroke-linejoin:round;"/>
    </g>
</svg>
