<?xml version="1.0" encoding="UTF-8" standalone="no"?>
<!DOCTYPE svg PUBLIC "-//W3C//DTD SVG 1.1//EN" "http://www.w3.org/Graphics/SVG/1.1/DTD/svg11.dtd">
<svg width="100%" height="100%" viewBox="0 0 34 20" version="1.1" xmlns="http://www.w3.org/2000/svg" xmlns:xlink="http://www.w3.org/1999/xlink" xml:space="preserve" xmlns:serif="http://www.serif.com/" style="fill-rule:evenodd;clip-rule:evenodd;stroke-linecap:round;stroke-miterlimit:10;">
    <g transform="matrix(0.203593,0,0,0.2,0,0)">
        <rect x="0" y="0.053" width="166.651" height="99.894" style="fill:white;"/>
        <rect x="0" y="0.053" width="166.667" height="99.894" style="fill:none;stroke:black;stroke-width:5.15px;"/>
        <path d="M110.071,83.48L60.116,83.48C41.768,83.582 25.371,72.133 23.428,53.481L23.428,50.195C23.428,31.902 38.256,16.895 56.979,16.895L59.335,16.895" style="fill:white;fill-rule:nonzero;stroke:black;stroke-width:3.47px;stroke-linejoin:round;"/>
        <path d="M56.019,16.895L105.973,16.895C124.321,16.785 140.718,28.234 142.669,46.894L142.669,50.179C142.669,68.159 128.345,82.964 110.071,83.467C109.752,83.476 59.657,83.484 59.335,83.484" style="fill:white;fill-rule:nonzero;stroke:black;stroke-width:3.47px;stroke-linejoin:round;"/>
        <path d="M59.335,16.895L104.998,16.895" style="fill:none;fill-rule:nonzero;stroke:black;stroke-width:3.47px;stroke-linejoin:round;"/>
    </g>
</svg>
