<?xml version="1.0" encoding="UTF-8" standalone="no"?>
<!DOCTYPE svg PUBLIC "-//W3C//DTD SVG 1.1//EN" "http://www.w3.org/Graphics/SVG/1.1/DTD/svg11.dtd">
<svg width="100%" height="100%" viewBox="0 0 40 20" version="1.1" xmlns="http://www.w3.org/2000/svg" xmlns:xlink="http://www.w3.org/1999/xlink" xml:space="preserve" xmlns:serif="http://www.serif.com/" style="fill-rule:evenodd;clip-rule:evenodd;stroke-linecap:round;stroke-miterlimit:10;">
    <path d="M13.888,10C13.888,6.615 16.64,3.902 20.001,3.902C23.36,3.902 26.112,6.615 26.112,10C26.112,13.351 23.36,16.098 20.001,16.098C16.64,16.098 13.888,13.351 13.888,10" style="fill:white;stroke:black;stroke-width:0.66px;stroke-linejoin:round;"/>
    <g transform="matrix(1,0,0,1,-13.5,-3.25883)">
        <g transform="matrix(6,0,0,6,31.3335,15.5865)">
            <path d="M0.08,-0L0.08,-0.716L0.175,-0.716L0.175,-0.422L0.547,-0.422L0.547,-0.716L0.642,-0.716L0.642,-0L0.547,-0L0.547,-0.337L0.175,-0.337L0.175,-0L0.08,-0Z" style="fill-rule:nonzero;"/>
        </g>
    </g>
</svg>
