<?xml version="1.0" encoding="UTF-8" standalone="no"?>
<!DOCTYPE svg PUBLIC "-//W3C//DTD SVG 1.1//EN" "http://www.w3.org/Graphics/SVG/1.1/DTD/svg11.dtd">
<svg width="100%" height="100%" viewBox="0 0 40 20" version="1.1" xmlns="http://www.w3.org/2000/svg" xmlns:xlink="http://www.w3.org/1999/xlink" xml:space="preserve" xmlns:serif="http://www.serif.com/" style="fill-rule:evenodd;clip-rule:evenodd;stroke-linecap:round;stroke-miterlimit:10;">
    <path d="M13.888,10C13.888,6.615 16.64,3.902 20.001,3.902C23.36,3.902 26.112,6.615 26.112,10C26.112,13.351 23.36,16.098 20.001,16.098C16.64,16.098 13.888,13.351 13.888,10" style="fill:white;stroke:black;stroke-width:0.66px;stroke-linejoin:round;"/>
    <path d="M18.306,12.149L18.306,7.854L20.209,7.854C20.592,7.854 20.883,7.892 21.082,7.969C21.281,8.046 21.44,8.183 21.559,8.378C21.678,8.573 21.738,8.789 21.738,9.026C21.738,9.33 21.639,9.587 21.442,9.796C21.245,10.005 20.94,10.138 20.529,10.195C20.679,10.267 20.793,10.338 20.871,10.409C21.037,10.561 21.194,10.752 21.343,10.98L22.089,12.149L21.375,12.149L20.807,11.256C20.641,10.998 20.504,10.8 20.397,10.664C20.289,10.527 20.193,10.431 20.108,10.377C20.023,10.322 19.937,10.284 19.849,10.262C19.785,10.249 19.679,10.242 19.533,10.242L18.874,10.242L18.874,12.149L18.306,12.149ZM18.874,9.749L20.095,9.749C20.355,9.749 20.558,9.723 20.704,9.669C20.851,9.615 20.962,9.529 21.038,9.411C21.114,9.293 21.152,9.164 21.152,9.026C21.152,8.822 21.078,8.655 20.931,8.525C20.784,8.394 20.551,8.328 20.233,8.328L18.874,8.328L18.874,9.749Z" style="fill-rule:nonzero;"/>
</svg>



