<?xml version="1.0" encoding="UTF-8" standalone="no"?>
<!DOCTYPE svg PUBLIC "-//W3C//DTD SVG 1.1//EN" "http://www.w3.org/Graphics/SVG/1.1/DTD/svg11.dtd">
<svg width="100%" height="100%" viewBox="0 0 40 20" version="1.1" xmlns="http://www.w3.org/2000/svg" xmlns:xlink="http://www.w3.org/1999/xlink" xml:space="preserve" xmlns:serif="http://www.serif.com/" style="fill-rule:evenodd;clip-rule:evenodd;stroke-linecap:round;stroke-linejoin:round;stroke-miterlimit:10;">
    <path d="M13.888,10C13.888,6.615 16.64,3.902 20.001,3.902C23.36,3.902 26.112,6.615 26.112,10C26.112,13.351 23.36,16.098 20.001,16.098C16.64,16.098 13.888,13.351 13.888,10" style="fill:white;stroke:black;stroke-width:0.66px;stroke-linejoin:round;"/>
    <path d="M13.888,10C13.888,6.615 16.64,3.902 20.001,3.902C23.36,3.902 26.112,6.615 26.112,10C26.112,13.351 23.36,16.098 20.001,16.098C16.64,16.098 13.888,13.351 13.888,10" style="fill:none;stroke:black;stroke-width:0.66px;"/>
    <g transform="matrix(6,0,0,6,17.8335,12.1489)">
        <path d="M0.547,-0.716L0.642,-0.716L0.642,-0.302C0.642,-0.23 0.633,-0.173 0.617,-0.131C0.601,-0.089 0.572,-0.054 0.529,-0.028C0.487,-0.001 0.431,0.012 0.362,0.012C0.295,0.012 0.24,0.001 0.197,-0.022C0.155,-0.046 0.124,-0.079 0.106,-0.123C0.088,-0.167 0.079,-0.226 0.079,-0.302L0.079,-0.716L0.173,-0.716L0.173,-0.303C0.173,-0.241 0.179,-0.195 0.191,-0.165C0.202,-0.136 0.222,-0.113 0.25,-0.097C0.278,-0.081 0.313,-0.073 0.354,-0.073C0.423,-0.073 0.473,-0.089 0.502,-0.121C0.532,-0.152 0.547,-0.213 0.547,-0.303L0.547,-0.716ZM0.222,-0.76L0.222,-0.86L0.313,-0.86L0.313,-0.76L0.222,-0.76ZM0.404,-0.76L0.404,-0.86L0.496,-0.86L0.496,-0.76L0.404,-0.76Z" style="fill-rule:nonzero;"/>
    </g>
</svg>
