<?xml version="1.0" encoding="UTF-8" standalone="no"?>
<!DOCTYPE svg PUBLIC "-//W3C//DTD SVG 1.1//EN" "http://www.w3.org/Graphics/SVG/1.1/DTD/svg11.dtd">
<svg width="100%" height="100%" viewBox="0 0 20 20" version="1.1" xmlns="http://www.w3.org/2000/svg" xmlns:xlink="http://www.w3.org/1999/xlink" xml:space="preserve" xmlns:serif="http://www.serif.com/" style="fill-rule:evenodd;clip-rule:evenodd;stroke-linecap:round;stroke-linejoin:round;stroke-miterlimit:10;">
    <g transform="matrix(0.965,0,0,0.965,-11.23,-1.39804)">
        <g transform="matrix(1.21951,0,0,1.21951,-2.39024,-0.402585)">
            <path d="M11.8,10.015C11.8,5.475 15.493,1.834 20.001,1.834C24.508,1.834 28.2,5.475 28.2,10.015C28.2,14.51 24.508,18.197 20.001,18.197C15.493,18.197 11.8,14.51 11.8,10.015" style="fill:white;stroke:black;stroke-width:0.57px;"/>
        </g>
        <g transform="matrix(1.21951,0,0,1.17766,-2.39024,0.129691)">
            <path d="M19.159,1.665L18.366,10.78L20.021,10.016L19.13,18.04L17.219,17.531L15.439,16.64L14.036,15.365L12.891,13.837L12.127,11.926L12,10.016L12.255,8.105L12.891,6.194L14.036,4.665L15.565,3.391L17.219,2.5L18.5,2.158L19,2.209L19.159,1.665Z" style="stroke:black;stroke-width:0.72px;stroke-linejoin:miter;"/>
        </g>
    </g>
</svg>
