<?xml version="1.0" encoding="UTF-8" standalone="no"?>
<!DOCTYPE svg PUBLIC "-//W3C//DTD SVG 1.1//EN" "http://www.w3.org/Graphics/SVG/1.1/DTD/svg11.dtd">
<svg width="100%" height="100%" viewBox="0 0 20 20" version="1.1" xmlns="http://www.w3.org/2000/svg" xmlns:xlink="http://www.w3.org/1999/xlink" xml:space="preserve" xmlns:serif="http://www.serif.com/" style="fill-rule:evenodd;clip-rule:evenodd;stroke-linecap:round;stroke-linejoin:round;stroke-miterlimit:10;">
    <g transform="matrix(1.17683,0,0,1.17683,-14.125,-1.78653)">
        <g transform="matrix(1,0,0,1,0.5,0)">
            <path d="M11.8,10.015C11.8,5.475 15.493,1.834 20.001,1.834C24.508,1.834 28.2,5.475 28.2,10.015C28.2,14.51 24.508,18.197 20.001,18.197C15.493,18.197 11.8,14.51 11.8,10.015" style="fill:white;stroke:black;stroke-width:0.59px;"/>
        </g>
        <g transform="matrix(1,0,0,1,0.456986,0)">
            <path d="M26.6,5.331L13.5,5.331L14.892,4.069L16.406,2.933L18.172,2.302L20.063,2.05L21.828,2.302L23.593,2.933L25.232,4.069L26.6,5.331Z" style="stroke:black;stroke-width:0.72px;"/>
        </g>
        <g transform="matrix(1,0,0,1,0.492473,0)">
            <path d="M13.507,14.669L14.767,16.056L16.406,17.067L18.172,17.825L20.063,17.95L21.828,17.825L23.593,17.067L25.232,16.056L26.493,14.669L13.507,14.669Z" style="stroke:black;stroke-width:0.72px;stroke-linecap:square;stroke-linejoin:miter;"/>
        </g>
    </g>
</svg>
