<?xml version="1.0" encoding="UTF-8" standalone="no"?>
<!DOCTYPE svg PUBLIC "-//W3C//DTD SVG 1.1//EN" "http://www.w3.org/Graphics/SVG/1.1/DTD/svg11.dtd">
<svg width="100%" height="100%" viewBox="0 0 20 20" version="1.1" xmlns="http://www.w3.org/2000/svg" xmlns:xlink="http://www.w3.org/1999/xlink" xml:space="preserve" xmlns:serif="http://www.serif.com/" style="fill-rule:evenodd;clip-rule:evenodd;stroke-linecap:round;stroke-linejoin:round;stroke-miterlimit:10;">
    <g transform="matrix(1.17683,0,0,1.17683,-14.125,-1.78653)">
        <g transform="matrix(1,0,0,1,0.5,0)">
            <path d="M11.8,10.015C11.8,5.475 15.493,1.834 20.001,1.834C24.508,1.834 28.2,5.475 28.2,10.015C28.2,14.51 24.508,18.197 20.001,18.197C15.493,18.197 11.8,14.51 11.8,10.015" style="fill:white;stroke:black;stroke-width:0.59px;"/>
        </g>
        <g transform="matrix(1,0,0,1,0.5,0)">
            <path d="M13,14C16.648,11.417 19.918,13.4 22,14C23.638,14.472 27.5,13.214 27.5,13.214C26.331,14.794 24.501,18.137 20,18C15.339,17.858 14.338,15.596 13,14Z"/>
        </g>
    </g>
</svg>
