<?xml version="1.0" encoding="UTF-8" standalone="no"?>
<!DOCTYPE svg PUBLIC "-//W3C//DTD SVG 1.1//EN" "http://www.w3.org/Graphics/SVG/1.1/DTD/svg11.dtd">
<svg width="100%" height="100%" viewBox="0 0 34 20" version="1.1" xmlns="http://www.w3.org/2000/svg" xmlns:xlink="http://www.w3.org/1999/xlink" xml:space="preserve" xmlns:serif="http://www.serif.com/" style="fill-rule:evenodd;clip-rule:evenodd;stroke-linecap:round;stroke-linejoin:round;stroke-miterlimit:10;">
    <g transform="matrix(0.203593,0,0,0.2,0,0)">
        <rect x="-0" y="-0.067" width="166.667" height="100.135" style="stroke:black;stroke-width:1.67px;"/>
        <path d="M29.659,94.44L83.548,5.552L137.008,94.44L29.659,94.44Z" style="fill:white;stroke:black;stroke-width:1.67px;"/>
        <path d="M70.159,78.956L70.159,44.988L83.754,44.988C86.524,44.988 88.738,45.329 90.413,46.02C92.087,46.71 93.397,47.766 94.341,49.194C95.294,50.623 95.762,52.115 95.762,53.679C95.762,55.131 95.349,56.496 94.508,57.782C93.667,59.06 92.397,60.099 90.698,60.885C92.889,61.488 94.571,62.512 95.754,63.964C96.929,65.417 97.524,67.131 97.524,69.107C97.524,70.702 97.159,72.179 96.444,73.544C95.73,74.917 94.841,75.972 93.786,76.71C92.73,77.448 91.413,78.012 89.817,78.393C88.23,78.766 86.286,78.956 83.976,78.956L70.159,78.956ZM74.952,59.266L82.786,59.266C84.913,59.266 86.437,59.131 87.365,58.869C88.579,58.528 89.5,57.964 90.119,57.179C90.738,56.393 91.048,55.401 91.048,54.21C91.048,53.083 90.754,52.091 90.183,51.234C89.603,50.377 88.778,49.79 87.706,49.472C86.635,49.155 84.802,48.996 82.198,48.996L74.952,48.996L74.952,59.266ZM74.952,74.948L83.976,74.948C85.524,74.948 86.611,74.893 87.238,74.79C88.341,74.599 89.262,74.29 90.008,73.861C90.746,73.425 91.357,72.798 91.833,71.972C92.31,71.147 92.556,70.194 92.556,69.107C92.556,67.845 92.206,66.742 91.516,65.806C90.825,64.877 89.865,64.218 88.635,63.837C87.405,63.456 85.643,63.274 83.333,63.274L74.952,63.274L74.952,74.948Z" style="fill-rule:nonzero;"/>
    </g>
</svg>
