<?xml version="1.0" encoding="UTF-8" standalone="no"?>
<!DOCTYPE svg PUBLIC "-//W3C//DTD SVG 1.1//EN" "http://www.w3.org/Graphics/SVG/1.1/DTD/svg11.dtd">
<svg width="100%" height="100%" viewBox="0 0 34 20" version="1.1" xmlns="http://www.w3.org/2000/svg" xmlns:xlink="http://www.w3.org/1999/xlink" xml:space="preserve" xmlns:serif="http://www.serif.com/" style="fill-rule:evenodd;clip-rule:evenodd;stroke-linecap:round;stroke-linejoin:round;stroke-miterlimit:10;">
    <g transform="matrix(0.203593,0,0,0.2,0,0)">
        <rect x="-0" y="-0.067" width="166.667" height="100.135" style="stroke:black;stroke-width:1.67px;"/>
        <path d="M38.69,49.917L40.397,38.758L45.071,28.004L51.865,18.425L61.23,11.647L71.849,7.266L83.333,5.671L94.817,7.266L105.437,11.647L114.802,18.425L121.595,28.004L126.27,38.758L127.976,49.917L126.27,61.472L121.595,72.234L114.802,81.401L105.437,88.583L94.817,92.956L83.333,94.56L71.849,92.956L61.23,88.583L51.865,81.401L45.071,72.234L40.397,61.472L38.69,49.917Z" style="fill:white;stroke:black;stroke-width:1.67px;"/>
        <path d="M84.77,54.488L84.77,49.615L103.532,49.583L103.532,64.988C100.651,67.147 97.675,68.766 94.619,69.845C91.556,70.933 88.413,71.48 85.19,71.48C80.841,71.48 76.889,70.607 73.333,68.861C69.778,67.115 67.095,64.583 65.286,61.282C63.468,57.98 62.563,54.29 62.563,50.21C62.563,46.171 63.468,42.393 65.27,38.893C67.071,35.393 69.667,32.79 73.048,31.091C76.429,29.393 80.325,28.544 84.738,28.544C87.937,28.544 90.833,29.028 93.421,30.004C96.008,30.972 98.04,32.329 99.508,34.067C100.984,35.806 102.095,38.067 102.865,40.861L97.579,42.218C96.913,40.107 96.087,38.448 95.103,37.234C94.111,36.028 92.706,35.06 90.873,34.337C89.04,33.607 87,33.242 84.77,33.242C82.087,33.242 79.77,33.623 77.817,34.393C75.865,35.155 74.294,36.163 73.095,37.409C71.897,38.655 70.96,40.02 70.302,41.512C69.167,44.083 68.603,46.869 68.603,49.869C68.603,53.567 69.286,56.663 70.643,59.155C72.008,61.647 73.984,63.504 76.579,64.71C79.183,65.917 81.937,66.52 84.857,66.52C87.397,66.52 89.873,66.06 92.294,65.147C94.706,64.234 96.54,63.258 97.786,62.218L97.786,54.488L84.77,54.488Z" style="fill-rule:nonzero;"/>
    </g>
</svg>
