<?xml version="1.0" encoding="UTF-8" standalone="no"?>
<!DOCTYPE svg PUBLIC "-//W3C//DTD SVG 1.1//EN" "http://www.w3.org/Graphics/SVG/1.1/DTD/svg11.dtd">
<svg width="100%" height="100%" viewBox="0 0 34 20" version="1.1" xmlns="http://www.w3.org/2000/svg" xmlns:xlink="http://www.w3.org/1999/xlink" xml:space="preserve" xmlns:serif="http://www.serif.com/" style="fill-rule:evenodd;clip-rule:evenodd;stroke-linecap:round;stroke-linejoin:round;stroke-miterlimit:10;">
    <g transform="matrix(0.203593,0,0,0.2,0,0)">
        <rect x="-0" y="-0.067" width="166.667" height="100.135" style="stroke:black;stroke-width:1.67px;"/>
        <path d="M74.729,57.933L74.302,41.786L54.556,41.786L54.556,24.067L74.729,24.067L74.729,5.552L92.356,5.552L92.356,23.673L112.11,23.673L112.11,41.786L92.356,41.385L92.356,57.933L74.729,57.933Z" style="fill:white;stroke:black;stroke-width:1.76px;"/>
        <path d="M62.81,73.901C62.81,62.694 71.976,53.353 83.135,53.353C94.286,53.353 103.452,62.694 103.452,73.901C103.452,85.107 94.286,94.44 83.135,94.44C71.976,94.44 62.81,85.107 62.81,73.901" style="fill:white;"/>
    </g>
</svg>
