<?xml version="1.0" encoding="UTF-8" standalone="no"?>
<!DOCTYPE svg PUBLIC "-//W3C//DTD SVG 1.1//EN" "http://www.w3.org/Graphics/SVG/1.1/DTD/svg11.dtd">
<svg width="100%" height="100%" viewBox="0 0 20 20" version="1.1" xmlns="http://www.w3.org/2000/svg" xmlns:xlink="http://www.w3.org/1999/xlink" xml:space="preserve" xmlns:serif="http://www.serif.com/" style="fill-rule:evenodd;clip-rule:evenodd;stroke-linecap:round;stroke-linejoin:round;stroke-miterlimit:1.5;">
    <g transform="matrix(0.2,0,0,0.2,-5.6,0)">
        <g transform="matrix(0.600056,0,0,1.00053,28,-2.81198e-05)">
            <rect x="0" y="0.053" width="166.651" height="99.894"/>
        </g>
        <g transform="matrix(1.42241,0,0,1.42241,-29.8571,-21.1207)">
            <path d="M79.466,21L77.5,24.5L75,23L74,24L77,25C77,25 76.717,27.305 75.5,28C74.949,28.315 75.083,30.167 75.5,31C75.917,31.833 77.583,32.167 78,33C78.417,33.833 78.61,35.208 78,36C75.067,39.806 63.341,48.263 60,52C58.964,53.159 60.488,56.152 62.399,56C63.234,55.933 64.515,53.855 65,52.5C65.973,49.781 75,43.5 75,43.5C75,43.5 76.24,47.635 75.5,49.5C73.417,54.75 62.5,75 62.5,75C62.5,75 55.983,78.5 57,78.5L67.5,78.5C67.5,78.5 67.91,76.017 68.505,75C70.505,71.583 79.5,58 79.5,58C79.5,58 84.917,69 86,72C86.4,73.108 86.583,74.917 86,76C85.43,77.058 81.731,79 83,79L93,79C92.205,74.961 90.741,71.592 89.5,68C89.5,68 87.221,57.779 86.471,53.529C85.833,49.914 85.5,43 85.5,43C85.5,43 89.612,47.856 90.529,50.189C91.361,52.307 91,57 91,57L94.5,57C94.5,57 95.344,50.687 94,48C92.167,44.333 86.349,38.256 83.5,35C82.18,31.718 83.168,28.382 83.326,28L86,30L87,29L83.326,26.771L85,24L79.466,21Z" style="fill:white;stroke:white;stroke-width:0.7px;"/>
        </g>
    </g>
</svg>
