<?xml version="1.0" encoding="UTF-8" standalone="no"?>
<!DOCTYPE svg PUBLIC "-//W3C//DTD SVG 1.1//EN" "http://www.w3.org/Graphics/SVG/1.1/DTD/svg11.dtd">
<svg width="100%" height="100%" viewBox="0 0 20 20" version="1.1" xmlns="http://www.w3.org/2000/svg" xmlns:xlink="http://www.w3.org/1999/xlink" xml:space="preserve" xmlns:serif="http://www.serif.com/" style="fill-rule:evenodd;clip-rule:evenodd;stroke-linecap:round;stroke-linejoin:round;stroke-miterlimit:1.5;">
    <g transform="matrix(0.25641,0,0,0.25641,0,0)">
        <path d="M38.542,10.417L72.928,66.667L4.156,66.667L38.542,10.417Z" style="fill:white;stroke:black;stroke-width:1.67px;"/>
    </g>
    <g transform="matrix(0.25641,0,0,0.25641,0,0)">
        <path d="M23.155,59.475L23.155,41.579L36.094,41.579L36.094,43.691L25.523,43.691L25.523,49.172L35.423,49.172L35.423,51.272L25.523,51.272L25.523,57.363L36.509,57.363L36.509,59.475L23.155,59.475Z" style="fill-rule:nonzero;"/>
    </g>
    <g transform="matrix(0.25641,0,0,0.25641,0,0)">
        <path d="M39.781,59.475L39.781,41.579L45.945,41.579C47.337,41.579 48.399,41.665 49.131,41.836C50.157,42.072 51.031,42.499 51.756,43.117C52.7,43.915 53.406,44.934 53.874,46.175C54.342,47.416 54.576,48.834 54.576,50.429C54.576,51.788 54.417,52.993 54.1,54.043C53.782,55.092 53.375,55.961 52.879,56.649C52.382,57.336 51.839,57.878 51.249,58.272C50.659,58.667 49.947,58.966 49.113,59.17C48.279,59.373 47.321,59.475 46.238,59.475L39.781,59.475ZM42.149,57.363L45.97,57.363C47.15,57.363 48.075,57.253 48.747,57.033C49.418,56.814 49.953,56.504 50.352,56.106C50.913,55.544 51.351,54.789 51.664,53.841C51.978,52.893 52.134,51.744 52.134,50.393C52.134,48.521 51.827,47.083 51.213,46.077C50.598,45.072 49.851,44.399 48.973,44.057C48.338,43.813 47.316,43.691 45.909,43.691L42.149,43.691L42.149,57.363Z" style="fill-rule:nonzero;"/>
    </g>
</svg>
