<?xml version="1.0" encoding="UTF-8" standalone="no"?>
<!DOCTYPE svg PUBLIC "-//W3C//DTD SVG 1.1//EN" "http://www.w3.org/Graphics/SVG/1.1/DTD/svg11.dtd">
<svg width="100%" height="100%" viewBox="0 0 70 70" version="1.1" xmlns="http://www.w3.org/2000/svg" xmlns:xlink="http://www.w3.org/1999/xlink" xml:space="preserve" xmlns:serif="http://www.serif.com/" style="fill-rule:evenodd;clip-rule:evenodd;stroke-linejoin:round;stroke-miterlimit:2;">
    <path d="M28.495,37.053C28.495,34.652 29.162,32.874 30.497,31.719C31.612,30.758 32.971,30.278 34.574,30.278C36.356,30.278 37.813,30.862 38.944,32.03C40.075,33.198 40.641,34.811 40.641,36.87C40.641,38.538 40.391,39.851 39.89,40.807C39.39,41.763 38.661,42.506 37.705,43.035C36.749,43.564 35.705,43.828 34.574,43.828C32.759,43.828 31.292,43.246 30.173,42.082C29.054,40.919 28.495,39.242 28.495,37.053ZM30.753,37.053C30.753,38.713 31.115,39.956 31.84,40.782C32.564,41.608 33.475,42.021 34.574,42.021C35.664,42.021 36.572,41.606 37.296,40.776C38.02,39.946 38.383,38.681 38.383,36.98C38.383,35.377 38.018,34.162 37.29,33.336C36.562,32.51 35.656,32.097 34.574,32.097C33.475,32.097 32.564,32.508 31.84,33.33C31.115,34.152 30.753,35.393 30.753,37.053Z" style="fill-rule:nonzero;"/>
</svg>
