<?xml version="1.0" encoding="UTF-8" standalone="no"?>
<!DOCTYPE svg PUBLIC "-//W3C//DTD SVG 1.1//EN" "http://www.w3.org/Graphics/SVG/1.1/DTD/svg11.dtd">
<svg width="100%" height="100%" viewBox="0 0 20 20" version="1.1" xmlns="http://www.w3.org/2000/svg" xmlns:xlink="http://www.w3.org/1999/xlink" xml:space="preserve" xmlns:serif="http://www.serif.com/" style="fill-rule:evenodd;clip-rule:evenodd;stroke-linecap:round;stroke-linejoin:round;stroke-miterlimit:1.5;">
    <g transform="matrix(0.25641,0,0,0.25641,0,0)">
        <path d="M38.542,10.417L72.928,66.667L4.156,66.667L38.542,10.417Z" style="fill:white;stroke:black;stroke-width:1.67px;"/>
    </g>
    <g transform="matrix(0.25641,0,0,0.25641,0,0)">
        <path d="M31.443,59.475L31.443,41.579L37.608,41.579C38.999,41.579 40.061,41.665 40.794,41.836C41.819,42.072 42.694,42.499 43.418,43.117C44.362,43.915 45.068,44.934 45.536,46.175C46.004,47.416 46.238,48.834 46.238,50.429C46.238,51.788 46.08,52.993 45.762,54.043C45.445,55.092 45.038,55.961 44.541,56.649C44.045,57.336 43.502,57.878 42.912,58.272C42.322,58.667 41.61,58.966 40.776,59.17C39.941,59.373 38.983,59.475 37.901,59.475L31.443,59.475ZM33.811,57.363L37.632,57.363C38.812,57.363 39.738,57.253 40.409,57.033C41.081,56.814 41.616,56.504 42.015,56.106C42.576,55.544 43.014,54.789 43.327,53.841C43.64,52.893 43.797,51.744 43.797,50.393C43.797,48.521 43.49,47.083 42.875,46.077C42.261,45.072 41.514,44.399 40.635,44.057C40,43.813 38.979,43.691 37.571,43.691L33.811,43.691L33.811,57.363Z" style="fill-rule:nonzero;"/>
    </g>
</svg>
