<?xml version="1.0" encoding="UTF-8" standalone="no"?>
<!DOCTYPE svg PUBLIC "-//W3C//DTD SVG 1.1//EN" "http://www.w3.org/Graphics/SVG/1.1/DTD/svg11.dtd">
<svg width="100%" height="100%" viewBox="0 0 20 20" version="1.1" xmlns="http://www.w3.org/2000/svg" xmlns:xlink="http://www.w3.org/1999/xlink" xml:space="preserve" xmlns:serif="http://www.serif.com/" style="fill-rule:evenodd;clip-rule:evenodd;stroke-linejoin:round;stroke-miterlimit:2;">
    <g transform="matrix(0.285714,0,0,0.285714,0,0)">
        <path d="M28.91,44.609L31.046,44.927C31.136,45.586 31.384,46.066 31.791,46.367C32.336,46.774 33.081,46.977 34.025,46.977C35.042,46.977 35.827,46.774 36.381,46.367C36.934,45.96 37.308,45.391 37.504,44.658C37.618,44.211 37.67,43.271 37.662,41.838C36.702,42.97 35.506,43.535 34.073,43.535C32.291,43.535 30.912,42.892 29.935,41.606C28.959,40.321 28.47,38.778 28.47,36.98C28.47,35.743 28.694,34.602 29.142,33.556C29.589,32.51 30.238,31.702 31.089,31.133C31.939,30.563 32.938,30.278 34.086,30.278C35.616,30.278 36.877,30.897 37.87,32.134L37.87,30.571L39.896,30.571L39.896,41.777C39.896,43.796 39.691,45.226 39.28,46.068C38.869,46.91 38.218,47.576 37.327,48.064C36.436,48.552 35.339,48.796 34.037,48.796C32.491,48.796 31.241,48.448 30.289,47.753C29.337,47.057 28.877,46.009 28.91,44.609ZM30.729,36.821C30.729,38.522 31.066,39.763 31.742,40.544C32.417,41.326 33.264,41.716 34.281,41.716C35.29,41.716 36.136,41.328 36.82,40.55C37.504,39.773 37.845,38.555 37.845,36.894C37.845,35.308 37.493,34.111 36.79,33.306C36.086,32.5 35.237,32.097 34.244,32.097C33.268,32.097 32.438,32.494 31.754,33.287C31.071,34.081 30.729,35.259 30.729,36.821Z" style="fill-rule:nonzero;"/>
    </g>
</svg>
