<?xml version="1.0" encoding="UTF-8" standalone="no"?>
<!DOCTYPE svg PUBLIC "-//W3C//DTD SVG 1.1//EN" "http://www.w3.org/Graphics/SVG/1.1/DTD/svg11.dtd">
<svg width="100%" height="100%" viewBox="0 0 20 20" version="1.1" xmlns="http://www.w3.org/2000/svg" xmlns:xlink="http://www.w3.org/1999/xlink" xml:space="preserve" xmlns:serif="http://www.serif.com/" style="fill-rule:evenodd;clip-rule:evenodd;stroke-linecap:round;stroke-linejoin:round;stroke-miterlimit:10;">
    <g transform="matrix(0.285714,0,0,0.285714,0,0)">
        <path d="M2.883,34.579C2.883,17.008 17.175,2.921 34.621,2.921C52.063,2.921 66.35,17.008 66.35,34.579C66.35,51.975 52.063,66.242 34.621,66.242C17.175,66.242 2.883,51.975 2.883,34.579" style="fill:white;stroke:black;stroke-width:2.75px;"/>
    </g>
    <g transform="matrix(0.285714,0,0,0.285714,0,0)">
        <path d="M18.845,36.037L14.097,18.142L16.526,18.142L19.248,29.873C19.541,31.101 19.793,32.322 20.005,33.535C20.461,31.622 20.729,30.52 20.811,30.227L24.216,18.142L27.073,18.142L29.636,27.199C30.279,29.445 30.743,31.557 31.028,33.535C31.256,32.404 31.553,31.106 31.919,29.641L34.727,18.142L37.107,18.142L32.2,36.037L29.917,36.037L26.145,22.402C25.828,21.263 25.64,20.563 25.583,20.302C25.396,21.124 25.221,21.824 25.059,22.402L21.262,36.037L18.845,36.037Z" style="fill-rule:nonzero;"/>
    </g>
    <g transform="matrix(0.285714,0,0,0.285714,0,0)">
        <path d="M39.353,36.037L39.353,18.142L47.288,18.142C48.883,18.142 50.095,18.302 50.925,18.624C51.755,18.945 52.419,19.513 52.915,20.327C53.411,21.141 53.66,22.04 53.66,23.024C53.66,24.294 53.249,25.364 52.427,26.235C51.605,27.106 50.335,27.659 48.618,27.895C49.245,28.196 49.721,28.493 50.046,28.786C50.738,29.421 51.393,30.214 52.012,31.167L55.124,36.037L52.146,36.037L49.778,32.314C49.086,31.24 48.516,30.418 48.069,29.848C47.621,29.279 47.22,28.88 46.866,28.652C46.512,28.424 46.152,28.265 45.786,28.176C45.518,28.119 45.078,28.09 44.468,28.09L41.721,28.09L41.721,36.037L39.353,36.037ZM41.721,26.04L46.811,26.04C47.894,26.04 48.74,25.928 49.351,25.704C49.961,25.48 50.425,25.122 50.742,24.63C51.06,24.137 51.218,23.602 51.218,23.024C51.218,22.178 50.911,21.482 50.297,20.937C49.682,20.392 48.712,20.119 47.385,20.119L41.721,20.119L41.721,26.04Z" style="fill-rule:nonzero;"/>
    </g>
    <g transform="matrix(0.285714,0,0,0.285714,0,0)">
        <path d="M23.539,52.895L22.623,52.895L22.623,47.061C22.403,47.272 22.114,47.482 21.756,47.692C21.398,47.902 21.077,48.06 20.792,48.165L20.792,47.28C21.304,47.039 21.752,46.748 22.135,46.405C22.518,46.063 22.789,45.731 22.949,45.408L23.539,45.408L23.539,52.895Z" style="fill-rule:nonzero;"/>
    </g>
    <g transform="matrix(0.285714,0,0,0.285714,0,0)">
        <path d="M27.292,48.852C26.913,48.713 26.631,48.514 26.448,48.257C26.265,47.999 26.173,47.69 26.173,47.331C26.173,46.788 26.368,46.332 26.758,45.963C27.148,45.593 27.667,45.408 28.315,45.408C28.966,45.408 29.49,45.597 29.886,45.975C30.283,46.354 30.482,46.814 30.482,47.356C30.482,47.702 30.391,48.003 30.209,48.259C30.028,48.515 29.753,48.713 29.383,48.852C29.841,49.001 30.189,49.242 30.428,49.574C30.667,49.906 30.787,50.303 30.787,50.764C30.787,51.402 30.561,51.937 30.11,52.371C29.659,52.805 29.066,53.023 28.33,53.023C27.594,53.023 27.001,52.805 26.55,52.369C26.099,51.933 25.873,51.39 25.873,50.739C25.873,50.254 25.996,49.848 26.242,49.521C26.488,49.193 26.838,48.97 27.292,48.852ZM27.109,47.3C27.109,47.653 27.223,47.941 27.45,48.165C27.677,48.389 27.972,48.501 28.335,48.501C28.688,48.501 28.977,48.39 29.202,48.168C29.428,47.946 29.541,47.673 29.541,47.351C29.541,47.016 29.424,46.733 29.192,46.504C28.96,46.276 28.671,46.161 28.325,46.161C27.976,46.161 27.686,46.273 27.455,46.497C27.225,46.721 27.109,46.989 27.109,47.3ZM26.814,50.744C26.814,51.005 26.876,51.258 27,51.502C27.124,51.746 27.308,51.935 27.552,52.069C27.796,52.203 28.059,52.27 28.34,52.27C28.778,52.27 29.139,52.129 29.424,51.848C29.708,51.566 29.851,51.208 29.851,50.774C29.851,50.334 29.704,49.969 29.411,49.681C29.118,49.393 28.751,49.249 28.31,49.249C27.879,49.249 27.522,49.391 27.239,49.676C26.956,49.961 26.814,50.317 26.814,50.744Z" style="fill-rule:nonzero;"/>
    </g>
    <g transform="matrix(0.285714,0,0,0.285714,0,0)">
        <path d="M36.244,52.895L34.266,45.439L35.278,45.439L36.412,50.327C36.534,50.839 36.639,51.347 36.727,51.853C36.917,51.056 37.029,50.596 37.063,50.474L38.482,45.439L39.672,45.439L40.741,49.213C41.008,50.149 41.202,51.029 41.32,51.853C41.415,51.381 41.539,50.841 41.692,50.23L42.861,45.439L43.853,45.439L41.809,52.895L40.858,52.895L39.286,47.214C39.154,46.739 39.076,46.448 39.052,46.339C38.974,46.682 38.901,46.973 38.833,47.214L37.251,52.895L36.244,52.895Z" style="fill-rule:nonzero;"/>
    </g>
    <g transform="matrix(0.285714,0,0,0.285714,0,0)">
        <path d="M44.128,50.195C44.128,49.194 44.406,48.453 44.962,47.972C45.427,47.572 45.993,47.372 46.661,47.372C47.404,47.372 48.01,47.615 48.482,48.102C48.953,48.588 49.189,49.26 49.189,50.118C49.189,50.813 49.085,51.36 48.876,51.759C48.667,52.157 48.364,52.466 47.966,52.687C47.567,52.907 47.132,53.017 46.661,53.017C45.905,53.017 45.294,52.775 44.827,52.29C44.361,51.805 44.128,51.107 44.128,50.195ZM45.069,50.195C45.069,50.886 45.22,51.404 45.522,51.748C45.823,52.093 46.203,52.265 46.661,52.265C47.115,52.265 47.493,52.092 47.795,51.746C48.097,51.4 48.248,50.873 48.248,50.164C48.248,49.496 48.096,48.99 47.793,48.646C47.489,48.302 47.112,48.13 46.661,48.13C46.203,48.13 45.823,48.301 45.522,48.643C45.22,48.986 45.069,49.503 45.069,50.195Z" style="fill-rule:nonzero;"/>
    </g>
    <g transform="matrix(0.285714,0,0,0.285714,0,0)">
        <path d="M12.5,41.665L58.333,41.665" style="fill:none;stroke:black;stroke-width:1.67px;stroke-miterlimit:1.5;"/>
    </g>
</svg>
