<?xml version="1.0" encoding="UTF-8" standalone="no"?>
<!DOCTYPE svg PUBLIC "-//W3C//DTD SVG 1.1//EN" "http://www.w3.org/Graphics/SVG/1.1/DTD/svg11.dtd">
<svg width="100%" height="100%" viewBox="0 0 20 20" version="1.1" xmlns="http://www.w3.org/2000/svg" xmlns:xlink="http://www.w3.org/1999/xlink" xml:space="preserve" xmlns:serif="http://www.serif.com/" style="fill-rule:evenodd;clip-rule:evenodd;stroke-linecap:round;stroke-linejoin:round;stroke-miterlimit:10;">
    <g transform="matrix(0.285714,0,0,0.285714,0,0)">
        <path d="M2.883,34.579C2.883,17.008 17.175,2.921 34.621,2.921C52.063,2.921 66.35,17.008 66.35,34.579C66.35,51.975 52.063,66.242 34.621,66.242C17.175,66.242 2.883,51.975 2.883,34.579" style="fill:white;stroke:black;stroke-width:2.75px;"/>
    </g>
    <g transform="matrix(0.285714,0,0,0.285714,0,0)">
        <path d="M18.845,36.037L14.097,18.142L16.526,18.142L19.248,29.873C19.541,31.101 19.793,32.322 20.005,33.535C20.461,31.622 20.729,30.52 20.811,30.227L24.216,18.142L27.073,18.142L29.636,27.199C30.279,29.445 30.743,31.557 31.028,33.535C31.256,32.404 31.553,31.106 31.919,29.641L34.727,18.142L37.107,18.142L32.2,36.037L29.917,36.037L26.145,22.402C25.828,21.263 25.64,20.563 25.583,20.302C25.396,21.124 25.221,21.824 25.059,22.402L21.262,36.037L18.845,36.037Z" style="fill-rule:nonzero;"/>
    </g>
    <g transform="matrix(0.285714,0,0,0.285714,0,0)">
        <path d="M39.353,36.037L39.353,18.142L47.288,18.142C48.883,18.142 50.095,18.302 50.925,18.624C51.755,18.945 52.419,19.513 52.915,20.327C53.411,21.141 53.66,22.04 53.66,23.024C53.66,24.294 53.249,25.364 52.427,26.235C51.605,27.106 50.335,27.659 48.618,27.895C49.245,28.196 49.721,28.493 50.046,28.786C50.738,29.421 51.393,30.214 52.012,31.167L55.124,36.037L52.146,36.037L49.778,32.314C49.086,31.24 48.516,30.418 48.069,29.848C47.621,29.279 47.22,28.88 46.866,28.652C46.512,28.424 46.152,28.265 45.786,28.176C45.518,28.119 45.078,28.09 44.468,28.09L41.721,28.09L41.721,36.037L39.353,36.037ZM41.721,26.04L46.811,26.04C47.894,26.04 48.74,25.928 49.351,25.704C49.961,25.48 50.425,25.122 50.742,24.63C51.06,24.137 51.218,23.602 51.218,23.024C51.218,22.178 50.911,21.482 50.297,20.937C49.682,20.392 48.712,20.119 47.385,20.119L41.721,20.119L41.721,26.04Z" style="fill-rule:nonzero;"/>
    </g>
    <g transform="matrix(0.285714,0,0,0.285714,0,0)">
        <path d="M24.396,48.852C24.016,48.713 23.735,48.514 23.552,48.257C23.368,47.999 23.277,47.69 23.277,47.331C23.277,46.788 23.472,46.332 23.862,45.963C24.252,45.593 24.771,45.408 25.418,45.408C26.069,45.408 26.593,45.597 26.99,45.975C27.387,46.354 27.585,46.814 27.585,47.356C27.585,47.702 27.494,48.003 27.313,48.259C27.131,48.515 26.856,48.713 26.486,48.852C26.944,49.001 27.292,49.242 27.532,49.574C27.771,49.906 27.89,50.303 27.89,50.764C27.89,51.402 27.665,51.937 27.214,52.371C26.763,52.805 26.169,53.023 25.433,53.023C24.698,53.023 24.104,52.805 23.653,52.369C23.202,51.933 22.977,51.39 22.977,50.739C22.977,50.254 23.1,49.848 23.346,49.521C23.591,49.193 23.941,48.97 24.396,48.852ZM24.213,47.3C24.213,47.653 24.326,47.941 24.553,48.165C24.781,48.389 25.076,48.501 25.439,48.501C25.791,48.501 26.08,48.39 26.306,48.168C26.531,47.946 26.644,47.673 26.644,47.351C26.644,47.016 26.528,46.733 26.296,46.504C26.063,46.276 25.774,46.161 25.428,46.161C25.079,46.161 24.789,46.273 24.559,46.497C24.328,46.721 24.213,46.989 24.213,47.3ZM23.918,50.744C23.918,51.005 23.98,51.258 24.103,51.502C24.227,51.746 24.411,51.935 24.655,52.069C24.899,52.203 25.162,52.27 25.444,52.27C25.881,52.27 26.242,52.129 26.527,51.848C26.812,51.566 26.954,51.208 26.954,50.774C26.954,50.334 26.808,49.969 26.514,49.681C26.221,49.393 25.854,49.249 25.413,49.249C24.982,49.249 24.626,49.391 24.342,49.676C24.059,49.961 23.918,50.317 23.918,50.744Z" style="fill-rule:nonzero;"/>
    </g>
    <g transform="matrix(0.285714,0,0,0.285714,0,0)">
        <path d="M33.348,52.895L31.369,45.439L32.381,45.439L33.515,50.327C33.638,50.839 33.743,51.347 33.831,51.853C34.021,51.056 34.133,50.596 34.167,50.474L35.586,45.439L36.776,45.439L37.844,49.213C38.112,50.149 38.305,51.029 38.424,51.853C38.519,51.381 38.642,50.841 38.795,50.23L39.965,45.439L40.957,45.439L38.912,52.895L37.961,52.895L36.389,47.214C36.257,46.739 36.179,46.448 36.155,46.339C36.077,46.682 36.004,46.973 35.937,47.214L34.355,52.895L33.348,52.895Z" style="fill-rule:nonzero;"/>
    </g>
    <g transform="matrix(0.285714,0,0,0.285714,0,0)">
        <path d="M41.231,50.195C41.231,49.194 41.509,48.453 42.065,47.972C42.53,47.572 43.096,47.372 43.764,47.372C44.507,47.372 45.114,47.615 45.585,48.102C46.057,48.588 46.292,49.26 46.292,50.118C46.292,50.813 46.188,51.36 45.979,51.759C45.771,52.157 45.467,52.466 45.069,52.687C44.671,52.907 44.236,53.017 43.764,53.017C43.008,53.017 42.397,52.775 41.931,52.29C41.464,51.805 41.231,51.107 41.231,50.195ZM42.172,50.195C42.172,50.886 42.323,51.404 42.625,51.748C42.927,52.093 43.307,52.265 43.764,52.265C44.219,52.265 44.597,52.092 44.899,51.746C45.2,51.4 45.351,50.873 45.351,50.164C45.351,49.496 45.199,48.99 44.896,48.646C44.593,48.302 44.215,48.13 43.764,48.13C43.307,48.13 42.927,48.301 42.625,48.643C42.323,48.986 42.172,49.503 42.172,50.195Z" style="fill-rule:nonzero;"/>
    </g>
    <g transform="matrix(0.285714,0,0,0.285714,0,0)">
        <path d="M12.5,41.665L58.333,41.665" style="fill:none;stroke:black;stroke-width:1.67px;stroke-miterlimit:1.5;"/>
    </g>
</svg>
