<?xml version="1.0" encoding="UTF-8" standalone="no"?>
<!DOCTYPE svg PUBLIC "-//W3C//DTD SVG 1.1//EN" "http://www.w3.org/Graphics/SVG/1.1/DTD/svg11.dtd">
<svg width="100%" height="100%" viewBox="0 0 20 20" version="1.1" xmlns="http://www.w3.org/2000/svg" xmlns:xlink="http://www.w3.org/1999/xlink" xml:space="preserve" xmlns:serif="http://www.serif.com/" style="fill-rule:evenodd;clip-rule:evenodd;stroke-linecap:round;stroke-linejoin:round;stroke-miterlimit:10;">
    <g transform="matrix(0.285714,0,0,0.285714,0,0)">
        <path d="M2.883,34.579C2.883,17.008 17.175,2.921 34.621,2.921C52.063,2.921 66.35,17.008 66.35,34.579C66.35,51.975 52.063,66.242 34.621,66.242C17.175,66.242 2.883,51.975 2.883,34.579" style="fill:white;stroke:black;stroke-width:2.75px;"/>
    </g>
    <g transform="matrix(0.285714,0,0,0.285714,0,0)">
        <path d="M18.845,36.037L14.097,18.142L16.526,18.142L19.248,29.873C19.541,31.101 19.793,32.322 20.005,33.535C20.461,31.622 20.729,30.52 20.811,30.227L24.216,18.142L27.073,18.142L29.636,27.199C30.279,29.445 30.743,31.557 31.028,33.535C31.256,32.404 31.553,31.106 31.919,29.641L34.727,18.142L37.107,18.142L32.2,36.037L29.917,36.037L26.145,22.402C25.828,21.263 25.64,20.563 25.583,20.302C25.396,21.124 25.221,21.824 25.059,22.402L21.262,36.037L18.845,36.037Z" style="fill-rule:nonzero;"/>
    </g>
    <g transform="matrix(0.285714,0,0,0.285714,0,0)">
        <path d="M39.353,36.037L39.353,18.142L47.288,18.142C48.883,18.142 50.095,18.302 50.925,18.624C51.755,18.945 52.419,19.513 52.915,20.327C53.411,21.141 53.66,22.04 53.66,23.024C53.66,24.294 53.249,25.364 52.427,26.235C51.605,27.106 50.335,27.659 48.618,27.895C49.245,28.196 49.721,28.493 50.046,28.786C50.738,29.421 51.393,30.214 52.012,31.167L55.124,36.037L52.146,36.037L49.778,32.314C49.086,31.24 48.516,30.418 48.069,29.848C47.621,29.279 47.22,28.88 46.866,28.652C46.512,28.424 46.152,28.265 45.786,28.176C45.518,28.119 45.078,28.09 44.468,28.09L41.721,28.09L41.721,36.037L39.353,36.037ZM41.721,26.04L46.811,26.04C47.894,26.04 48.74,25.928 49.351,25.704C49.961,25.48 50.425,25.122 50.742,24.63C51.06,24.137 51.218,23.602 51.218,23.024C51.218,22.178 50.911,21.482 50.297,20.937C49.682,20.392 48.712,20.119 47.385,20.119L41.721,20.119L41.721,26.04Z" style="fill-rule:nonzero;"/>
    </g>
    <g transform="matrix(0.285714,0,0,0.285714,0,0)">
        <path d="M23.925,52.895L23.01,52.895L23.01,47.061C22.789,47.272 22.5,47.482 22.143,47.692C21.785,47.902 21.464,48.06 21.179,48.165L21.179,47.28C21.691,47.039 22.138,46.748 22.522,46.405C22.905,46.063 23.176,45.731 23.335,45.408L23.925,45.408L23.925,52.895Z" style="fill-rule:nonzero;"/>
    </g>
    <g transform="matrix(0.285714,0,0,0.285714,0,0)">
        <path d="M28.945,52.895L28.03,52.895L28.03,47.061C27.81,47.272 27.52,47.482 27.163,47.692C26.805,47.902 26.484,48.06 26.199,48.165L26.199,47.28C26.711,47.039 27.159,46.748 27.542,46.405C27.925,46.063 28.196,45.731 28.355,45.408L28.945,45.408L28.945,52.895Z" style="fill-rule:nonzero;"/>
    </g>
    <g transform="matrix(0.285714,0,0,0.285714,0,0)">
        <path d="M35.858,52.895L33.879,45.439L34.891,45.439L36.026,50.327C36.148,50.839 36.253,51.347 36.341,51.853C36.531,51.056 36.643,50.596 36.677,50.474L38.096,45.439L39.286,45.439L40.354,49.213C40.622,50.149 40.815,51.029 40.934,51.853C41.029,51.381 41.153,50.841 41.305,50.23L42.475,45.439L43.467,45.439L41.422,52.895L40.471,52.895L38.899,47.214C38.767,46.739 38.689,46.448 38.665,46.339C38.587,46.682 38.514,46.973 38.447,47.214L36.865,52.895L35.858,52.895Z" style="fill-rule:nonzero;"/>
    </g>
    <g transform="matrix(0.285714,0,0,0.285714,0,0)">
        <path d="M43.741,50.195C43.741,49.194 44.019,48.453 44.576,47.972C45.04,47.572 45.606,47.372 46.274,47.372C47.017,47.372 47.624,47.615 48.095,48.102C48.567,48.588 48.802,49.26 48.802,50.118C48.802,50.813 48.698,51.36 48.489,51.759C48.281,52.157 47.977,52.466 47.579,52.687C47.181,52.907 46.746,53.017 46.274,53.017C45.518,53.017 44.907,52.775 44.441,52.29C43.975,51.805 43.741,51.107 43.741,50.195ZM44.682,50.195C44.682,50.886 44.833,51.404 45.135,51.748C45.437,52.093 45.817,52.265 46.274,52.265C46.729,52.265 47.107,52.092 47.409,51.746C47.71,51.4 47.861,50.873 47.861,50.164C47.861,49.496 47.71,48.99 47.406,48.646C47.103,48.302 46.725,48.13 46.274,48.13C45.817,48.13 45.437,48.301 45.135,48.643C44.833,48.986 44.682,49.503 44.682,50.195Z" style="fill-rule:nonzero;"/>
    </g>
    <g transform="matrix(0.285714,0,0,0.285714,0,0)">
        <path d="M12.5,41.665L58.333,41.665" style="fill:none;stroke:black;stroke-width:1.67px;stroke-miterlimit:1.5;"/>
    </g>
</svg>
