<?xml version="1.0" encoding="UTF-8" standalone="no"?>
<!DOCTYPE svg PUBLIC "-//W3C//DTD SVG 1.1//EN" "http://www.w3.org/Graphics/SVG/1.1/DTD/svg11.dtd">
<svg width="100%" height="100%" viewBox="0 0 20 20" version="1.1" xmlns="http://www.w3.org/2000/svg" xmlns:xlink="http://www.w3.org/1999/xlink" xml:space="preserve" xmlns:serif="http://www.serif.com/" style="fill-rule:evenodd;clip-rule:evenodd;stroke-linecap:round;stroke-linejoin:round;stroke-miterlimit:10;">
    <g transform="matrix(0.285714,0,0,0.285714,0,0)">
        <path d="M2.883,34.579C2.883,17.008 17.175,2.921 34.621,2.921C52.063,2.921 66.35,17.008 66.35,34.579C66.35,51.975 52.063,66.242 34.621,66.242C17.175,66.242 2.883,51.975 2.883,34.579" style="fill:white;stroke:black;stroke-width:2.75px;"/>
    </g>
    <g transform="matrix(0.285714,0,0,0.285714,0,0)">
        <path d="M18.845,36.037L14.097,18.142L16.526,18.142L19.248,29.873C19.541,31.101 19.793,32.322 20.005,33.535C20.461,31.622 20.729,30.52 20.811,30.227L24.216,18.142L27.073,18.142L29.636,27.199C30.279,29.445 30.743,31.557 31.028,33.535C31.256,32.404 31.553,31.106 31.919,29.641L34.727,18.142L37.107,18.142L32.2,36.037L29.917,36.037L26.145,22.402C25.828,21.263 25.64,20.563 25.583,20.302C25.396,21.124 25.221,21.824 25.059,22.402L21.262,36.037L18.845,36.037Z" style="fill-rule:nonzero;"/>
    </g>
    <g transform="matrix(0.285714,0,0,0.285714,0,0)">
        <path d="M39.353,36.037L39.353,18.142L47.288,18.142C48.883,18.142 50.095,18.302 50.925,18.624C51.755,18.945 52.419,19.513 52.915,20.327C53.411,21.141 53.66,22.04 53.66,23.024C53.66,24.294 53.249,25.364 52.427,26.235C51.605,27.106 50.335,27.659 48.618,27.895C49.245,28.196 49.721,28.493 50.046,28.786C50.738,29.421 51.393,30.214 52.012,31.167L55.124,36.037L52.146,36.037L49.778,32.314C49.086,31.24 48.516,30.418 48.069,29.848C47.621,29.279 47.22,28.88 46.866,28.652C46.512,28.424 46.152,28.265 45.786,28.176C45.518,28.119 45.078,28.09 44.468,28.09L41.721,28.09L41.721,36.037L39.353,36.037ZM41.721,26.04L46.811,26.04C47.894,26.04 48.74,25.928 49.351,25.704C49.961,25.48 50.425,25.122 50.742,24.63C51.06,24.137 51.218,23.602 51.218,23.024C51.218,22.178 50.911,21.482 50.297,20.937C49.682,20.392 48.712,20.119 47.385,20.119L41.721,20.119L41.721,26.04Z" style="fill-rule:nonzero;"/>
    </g>
    <g transform="matrix(0.285714,0,0,0.285714,0,0)">
        <path d="M27.737,47.265L26.827,47.336C26.746,46.977 26.63,46.716 26.481,46.553C26.234,46.292 25.928,46.161 25.566,46.161C25.274,46.161 25.018,46.243 24.798,46.405C24.509,46.616 24.282,46.922 24.116,47.326C23.95,47.729 23.863,48.304 23.857,49.05C24.077,48.714 24.347,48.465 24.665,48.302C24.984,48.14 25.318,48.058 25.667,48.058C26.278,48.058 26.797,48.283 27.226,48.732C27.655,49.182 27.87,49.762 27.87,50.474C27.87,50.942 27.769,51.377 27.567,51.779C27.365,52.181 27.088,52.488 26.736,52.702C26.383,52.916 25.983,53.023 25.535,53.023C24.772,53.023 24.15,52.742 23.668,52.181C23.187,51.62 22.946,50.695 22.946,49.406C22.946,47.965 23.212,46.917 23.745,46.263C24.209,45.693 24.835,45.408 25.622,45.408C26.208,45.408 26.689,45.573 27.064,45.902C27.438,46.231 27.663,46.685 27.737,47.265ZM23.999,50.479C23.999,50.795 24.066,51.097 24.2,51.385C24.334,51.673 24.521,51.893 24.762,52.043C25.003,52.194 25.255,52.27 25.52,52.27C25.906,52.27 26.239,52.114 26.517,51.802C26.795,51.49 26.934,51.066 26.934,50.53C26.934,50.015 26.797,49.609 26.522,49.312C26.247,49.015 25.901,48.867 25.484,48.867C25.071,48.867 24.72,49.015 24.431,49.312C24.143,49.609 23.999,49.998 23.999,50.479Z" style="fill-rule:nonzero;"/>
    </g>
    <g transform="matrix(0.285714,0,0,0.285714,0,0)">
        <path d="M33.348,52.895L31.369,45.439L32.381,45.439L33.515,50.327C33.638,50.839 33.743,51.347 33.831,51.853C34.021,51.056 34.133,50.596 34.167,50.474L35.586,45.439L36.776,45.439L37.844,49.213C38.112,50.149 38.305,51.029 38.424,51.853C38.519,51.381 38.642,50.841 38.795,50.23L39.965,45.439L40.957,45.439L38.912,52.895L37.961,52.895L36.389,47.214C36.257,46.739 36.179,46.448 36.155,46.339C36.077,46.682 36.004,46.973 35.937,47.214L34.355,52.895L33.348,52.895Z" style="fill-rule:nonzero;"/>
    </g>
    <g transform="matrix(0.285714,0,0,0.285714,0,0)">
        <path d="M41.231,50.195C41.231,49.194 41.509,48.453 42.065,47.972C42.53,47.572 43.096,47.372 43.764,47.372C44.507,47.372 45.114,47.615 45.585,48.102C46.057,48.588 46.292,49.26 46.292,50.118C46.292,50.813 46.188,51.36 45.979,51.759C45.771,52.157 45.467,52.466 45.069,52.687C44.671,52.907 44.236,53.017 43.764,53.017C43.008,53.017 42.397,52.775 41.931,52.29C41.464,51.805 41.231,51.107 41.231,50.195ZM42.172,50.195C42.172,50.886 42.323,51.404 42.625,51.748C42.927,52.093 43.307,52.265 43.764,52.265C44.219,52.265 44.597,52.092 44.899,51.746C45.2,51.4 45.351,50.873 45.351,50.164C45.351,49.496 45.199,48.99 44.896,48.646C44.593,48.302 44.215,48.13 43.764,48.13C43.307,48.13 42.927,48.301 42.625,48.643C42.323,48.986 42.172,49.503 42.172,50.195Z" style="fill-rule:nonzero;"/>
    </g>
    <g transform="matrix(0.285714,0,0,0.285714,0,0)">
        <path d="M12.5,41.665L58.333,41.665" style="fill:none;stroke:black;stroke-width:1.67px;stroke-miterlimit:1.5;"/>
    </g>
</svg>
