<?xml version="1.0" encoding="UTF-8" standalone="no"?>
<!DOCTYPE svg PUBLIC "-//W3C//DTD SVG 1.1//EN" "http://www.w3.org/Graphics/SVG/1.1/DTD/svg11.dtd">
<svg width="100%" height="100%" viewBox="0 0 20 20" version="1.1" xmlns="http://www.w3.org/2000/svg" xmlns:xlink="http://www.w3.org/1999/xlink" xml:space="preserve" xmlns:serif="http://www.serif.com/" style="fill-rule:evenodd;clip-rule:evenodd;stroke-linecap:round;stroke-linejoin:round;stroke-miterlimit:10;">
    <g transform="matrix(0.285714,0,0,0.285714,0,0)">
        <path d="M2.883,34.579C2.883,17.008 17.175,2.921 34.621,2.921C52.063,2.921 66.35,17.008 66.35,34.579C66.35,51.975 52.063,66.242 34.621,66.242C17.175,66.242 2.883,51.975 2.883,34.579" style="fill:white;stroke:black;stroke-width:2.75px;"/>
    </g>
    <g transform="matrix(0.285714,0,0,0.285714,0,0)">
        <path d="M18.845,36.037L14.097,18.142L16.526,18.142L19.248,29.873C19.541,31.101 19.793,32.322 20.005,33.535C20.461,31.622 20.729,30.52 20.811,30.227L24.216,18.142L27.073,18.142L29.636,27.199C30.279,29.445 30.743,31.557 31.028,33.535C31.256,32.404 31.553,31.106 31.919,29.641L34.727,18.142L37.107,18.142L32.2,36.037L29.917,36.037L26.145,22.402C25.828,21.263 25.64,20.563 25.583,20.302C25.396,21.124 25.221,21.824 25.059,22.402L21.262,36.037L18.845,36.037Z" style="fill-rule:nonzero;"/>
    </g>
    <g transform="matrix(0.285714,0,0,0.285714,0,0)">
        <path d="M39.353,36.037L39.353,18.142L47.288,18.142C48.883,18.142 50.095,18.302 50.925,18.624C51.755,18.945 52.419,19.513 52.915,20.327C53.411,21.141 53.66,22.04 53.66,23.024C53.66,24.294 53.249,25.364 52.427,26.235C51.605,27.106 50.335,27.659 48.618,27.895C49.245,28.196 49.721,28.493 50.046,28.786C50.738,29.421 51.393,30.214 52.012,31.167L55.124,36.037L52.146,36.037L49.778,32.314C49.086,31.24 48.516,30.418 48.069,29.848C47.621,29.279 47.22,28.88 46.866,28.652C46.512,28.424 46.152,28.265 45.786,28.176C45.518,28.119 45.078,28.09 44.468,28.09L41.721,28.09L41.721,36.037L39.353,36.037ZM41.721,26.04L46.811,26.04C47.894,26.04 48.74,25.928 49.351,25.704C49.961,25.48 50.425,25.122 50.742,24.63C51.06,24.137 51.218,23.602 51.218,23.024C51.218,22.178 50.911,21.482 50.297,20.937C49.682,20.392 48.712,20.119 47.385,20.119L41.721,20.119L41.721,26.04Z" style="fill-rule:nonzero;"/>
    </g>
    <g transform="matrix(0.285714,0,0,0.285714,0,0)">
        <path d="M23.539,52.895L22.623,52.895L22.623,47.061C22.403,47.272 22.114,47.482 21.756,47.692C21.398,47.902 21.077,48.06 20.792,48.165L20.792,47.28C21.304,47.039 21.752,46.748 22.135,46.405C22.518,46.063 22.789,45.731 22.949,45.408L23.539,45.408L23.539,52.895Z" style="fill-rule:nonzero;"/>
    </g>
    <g transform="matrix(0.285714,0,0,0.285714,0,0)">
        <path d="M30.634,47.265L29.724,47.336C29.642,46.977 29.527,46.716 29.378,46.553C29.13,46.292 28.825,46.161 28.462,46.161C28.171,46.161 27.915,46.243 27.694,46.405C27.406,46.616 27.179,46.922 27.013,47.326C26.847,47.729 26.76,48.304 26.753,49.05C26.974,48.714 27.243,48.465 27.562,48.302C27.881,48.14 28.215,48.058 28.564,48.058C29.174,48.058 29.694,48.283 30.123,48.732C30.552,49.182 30.766,49.762 30.766,50.474C30.766,50.942 30.665,51.377 30.464,51.779C30.262,52.181 29.985,52.488 29.632,52.702C29.279,52.916 28.879,53.023 28.432,53.023C27.669,53.023 27.047,52.742 26.565,52.181C26.084,51.62 25.843,50.695 25.843,49.406C25.843,47.965 26.109,46.917 26.641,46.263C27.106,45.693 27.732,45.408 28.518,45.408C29.105,45.408 29.586,45.573 29.96,45.902C30.335,46.231 30.56,46.685 30.634,47.265ZM26.896,50.479C26.896,50.795 26.963,51.097 27.097,51.385C27.231,51.673 27.418,51.893 27.659,52.043C27.899,52.194 28.152,52.27 28.417,52.27C28.803,52.27 29.135,52.114 29.413,51.802C29.691,51.49 29.83,51.066 29.83,50.53C29.83,50.015 29.693,49.609 29.419,49.312C29.144,49.015 28.798,48.867 28.381,48.867C27.967,48.867 27.616,49.015 27.328,49.312C27.04,49.609 26.896,49.998 26.896,50.479Z" style="fill-rule:nonzero;"/>
    </g>
    <g transform="matrix(0.285714,0,0,0.285714,0,0)">
        <path d="M36.244,52.895L34.266,45.439L35.278,45.439L36.412,50.327C36.534,50.839 36.639,51.347 36.727,51.853C36.917,51.056 37.029,50.596 37.063,50.474L38.482,45.439L39.672,45.439L40.741,49.213C41.008,50.149 41.202,51.029 41.32,51.853C41.415,51.381 41.539,50.841 41.692,50.23L42.861,45.439L43.853,45.439L41.809,52.895L40.858,52.895L39.286,47.214C39.154,46.739 39.076,46.448 39.052,46.339C38.974,46.682 38.901,46.973 38.833,47.214L37.251,52.895L36.244,52.895Z" style="fill-rule:nonzero;"/>
    </g>
    <g transform="matrix(0.285714,0,0,0.285714,0,0)">
        <path d="M44.128,50.195C44.128,49.194 44.406,48.453 44.962,47.972C45.427,47.572 45.993,47.372 46.661,47.372C47.404,47.372 48.01,47.615 48.482,48.102C48.953,48.588 49.189,49.26 49.189,50.118C49.189,50.813 49.085,51.36 48.876,51.759C48.667,52.157 48.364,52.466 47.966,52.687C47.567,52.907 47.132,53.017 46.661,53.017C45.905,53.017 45.294,52.775 44.827,52.29C44.361,51.805 44.128,51.107 44.128,50.195ZM45.069,50.195C45.069,50.886 45.22,51.404 45.522,51.748C45.823,52.093 46.203,52.265 46.661,52.265C47.115,52.265 47.493,52.092 47.795,51.746C48.097,51.4 48.248,50.873 48.248,50.164C48.248,49.496 48.096,48.99 47.793,48.646C47.489,48.302 47.112,48.13 46.661,48.13C46.203,48.13 45.823,48.301 45.522,48.643C45.22,48.986 45.069,49.503 45.069,50.195Z" style="fill-rule:nonzero;"/>
    </g>
    <g transform="matrix(0.285714,0,0,0.285714,0,0)">
        <path d="M12.5,41.665L58.333,41.665" style="fill:none;stroke:black;stroke-width:1.67px;stroke-miterlimit:1.5;"/>
    </g>
</svg>
