<?xml version="1.0" encoding="UTF-8" standalone="no"?>
<!DOCTYPE svg PUBLIC "-//W3C//DTD SVG 1.1//EN" "http://www.w3.org/Graphics/SVG/1.1/DTD/svg11.dtd">
<svg width="100%" height="100%" viewBox="0 0 20 20" version="1.1" xmlns="http://www.w3.org/2000/svg" xmlns:xlink="http://www.w3.org/1999/xlink" xml:space="preserve" xmlns:serif="http://www.serif.com/" style="fill-rule:evenodd;clip-rule:evenodd;stroke-linecap:round;stroke-linejoin:round;stroke-miterlimit:10;">
    <g transform="matrix(0.285714,0,0,0.285714,0,0)">
        <path d="M2.883,34.579C2.883,17.008 17.175,2.921 34.621,2.921C52.063,2.921 66.35,17.008 66.35,34.579C66.35,51.975 52.063,66.242 34.621,66.242C17.175,66.242 2.883,51.975 2.883,34.579" style="fill:white;stroke:black;stroke-width:2.75px;"/>
    </g>
    <g transform="matrix(0.285714,0,0,0.285714,0,0)">
        <path d="M18.845,36.037L14.097,18.142L16.526,18.142L19.248,29.873C19.541,31.101 19.793,32.322 20.005,33.535C20.461,31.622 20.729,30.52 20.811,30.227L24.216,18.142L27.073,18.142L29.636,27.199C30.279,29.445 30.743,31.557 31.028,33.535C31.256,32.404 31.553,31.106 31.919,29.641L34.727,18.142L37.107,18.142L32.2,36.037L29.917,36.037L26.145,22.402C25.828,21.263 25.64,20.563 25.583,20.302C25.396,21.124 25.221,21.824 25.059,22.402L21.262,36.037L18.845,36.037Z" style="fill-rule:nonzero;"/>
    </g>
    <g transform="matrix(0.285714,0,0,0.285714,0,0)">
        <path d="M39.353,36.037L39.353,18.142L47.288,18.142C48.883,18.142 50.095,18.302 50.925,18.624C51.755,18.945 52.419,19.513 52.915,20.327C53.411,21.141 53.66,22.04 53.66,23.024C53.66,24.294 53.249,25.364 52.427,26.235C51.605,27.106 50.335,27.659 48.618,27.895C49.245,28.196 49.721,28.493 50.046,28.786C50.738,29.421 51.393,30.214 52.012,31.167L55.124,36.037L52.146,36.037L49.778,32.314C49.086,31.24 48.516,30.418 48.069,29.848C47.621,29.279 47.22,28.88 46.866,28.652C46.512,28.424 46.152,28.265 45.786,28.176C45.518,28.119 45.078,28.09 44.468,28.09L41.721,28.09L41.721,36.037L39.353,36.037ZM41.721,26.04L46.811,26.04C47.894,26.04 48.74,25.928 49.351,25.704C49.961,25.48 50.425,25.122 50.742,24.63C51.06,24.137 51.218,23.602 51.218,23.024C51.218,22.178 50.911,21.482 50.297,20.937C49.682,20.392 48.712,20.119 47.385,20.119L41.721,20.119L41.721,26.04Z" style="fill-rule:nonzero;"/>
    </g>
    <g transform="matrix(0.285714,0,0,0.285714,0,0)">
        <path d="M20.095,50.927L21.011,50.805C21.116,51.324 21.295,51.698 21.548,51.926C21.8,52.155 22.108,52.27 22.471,52.27C22.901,52.27 23.265,52.121 23.562,51.822C23.858,51.524 24.007,51.154 24.007,50.713C24.007,50.293 23.869,49.946 23.595,49.673C23.32,49.4 22.971,49.264 22.547,49.264C22.374,49.264 22.159,49.298 21.901,49.365L22.003,48.562C22.064,48.569 22.113,48.572 22.15,48.572C22.54,48.572 22.891,48.47 23.203,48.267C23.515,48.063 23.671,47.75 23.671,47.326C23.671,46.99 23.557,46.712 23.33,46.492C23.103,46.271 22.81,46.161 22.45,46.161C22.094,46.161 21.798,46.273 21.56,46.497C21.323,46.721 21.17,47.056 21.102,47.504L20.187,47.341C20.299,46.727 20.553,46.252 20.95,45.914C21.347,45.577 21.84,45.408 22.43,45.408C22.837,45.408 23.212,45.496 23.554,45.67C23.897,45.845 24.158,46.083 24.34,46.385C24.521,46.687 24.612,47.007 24.612,47.346C24.612,47.668 24.526,47.962 24.353,48.226C24.18,48.491 23.924,48.701 23.585,48.857C24.025,48.959 24.368,49.17 24.612,49.49C24.856,49.811 24.978,50.212 24.978,50.693C24.978,51.344 24.741,51.896 24.266,52.349C23.791,52.801 23.191,53.028 22.466,53.028C21.811,53.028 21.268,52.833 20.835,52.443C20.403,52.053 20.156,51.547 20.095,50.927Z" style="fill-rule:nonzero;"/>
    </g>
    <g transform="matrix(0.285714,0,0,0.285714,0,0)">
        <path d="M25.884,49.218C25.884,48.336 25.974,47.627 26.156,47.089C26.337,46.552 26.607,46.137 26.964,45.846C27.322,45.554 27.772,45.408 28.315,45.408C28.715,45.408 29.066,45.489 29.368,45.65C29.669,45.811 29.919,46.043 30.115,46.347C30.312,46.65 30.466,47.02 30.578,47.456C30.69,47.891 30.746,48.479 30.746,49.218C30.746,50.093 30.656,50.799 30.476,51.336C30.297,51.874 30.028,52.289 29.67,52.583C29.313,52.876 28.861,53.023 28.315,53.023C27.596,53.023 27.031,52.765 26.621,52.249C26.129,51.629 25.884,50.618 25.884,49.218ZM26.825,49.218C26.825,50.442 26.968,51.257 27.254,51.662C27.541,52.067 27.894,52.27 28.315,52.27C28.735,52.27 29.089,52.066 29.375,51.659C29.662,51.252 29.805,50.439 29.805,49.218C29.805,47.991 29.662,47.175 29.375,46.771C29.089,46.368 28.732,46.166 28.305,46.166C27.884,46.166 27.548,46.344 27.298,46.7C26.982,47.155 26.825,47.994 26.825,49.218Z" style="fill-rule:nonzero;"/>
    </g>
    <g transform="matrix(0.285714,0,0,0.285714,0,0)">
        <path d="M36.244,52.895L34.266,45.439L35.278,45.439L36.412,50.327C36.534,50.839 36.639,51.347 36.727,51.853C36.917,51.056 37.029,50.596 37.063,50.474L38.482,45.439L39.672,45.439L40.741,49.213C41.008,50.149 41.202,51.029 41.32,51.853C41.415,51.381 41.539,50.841 41.692,50.23L42.861,45.439L43.853,45.439L41.809,52.895L40.858,52.895L39.286,47.214C39.154,46.739 39.076,46.448 39.052,46.339C38.974,46.682 38.901,46.973 38.833,47.214L37.251,52.895L36.244,52.895Z" style="fill-rule:nonzero;"/>
    </g>
    <g transform="matrix(0.285714,0,0,0.285714,0,0)">
        <path d="M44.128,50.195C44.128,49.194 44.406,48.453 44.962,47.972C45.427,47.572 45.993,47.372 46.661,47.372C47.404,47.372 48.01,47.615 48.482,48.102C48.953,48.588 49.189,49.26 49.189,50.118C49.189,50.813 49.085,51.36 48.876,51.759C48.667,52.157 48.364,52.466 47.966,52.687C47.567,52.907 47.132,53.017 46.661,53.017C45.905,53.017 45.294,52.775 44.827,52.29C44.361,51.805 44.128,51.107 44.128,50.195ZM45.069,50.195C45.069,50.886 45.22,51.404 45.522,51.748C45.823,52.093 46.203,52.265 46.661,52.265C47.115,52.265 47.493,52.092 47.795,51.746C48.097,51.4 48.248,50.873 48.248,50.164C48.248,49.496 48.096,48.99 47.793,48.646C47.489,48.302 47.112,48.13 46.661,48.13C46.203,48.13 45.823,48.301 45.522,48.643C45.22,48.986 45.069,49.503 45.069,50.195Z" style="fill-rule:nonzero;"/>
    </g>
    <g transform="matrix(0.285714,0,0,0.285714,0,0)">
        <path d="M12.5,41.665L58.333,41.665" style="fill:none;stroke:black;stroke-width:1.67px;stroke-miterlimit:1.5;"/>
    </g>
</svg>
