<?xml version="1.0" encoding="UTF-8"?>
<!DOCTYPE svg PUBLIC "-//W3C//DTD SVG 1.1//EN" "http://www.w3.org/Graphics/SVG/1.1/DTD/svg11.dtd">
<svg version="1.2" width="40.26mm" height="40.26mm" viewBox="0 0 4026 4026" preserveAspectRatio="xMidYMid" fill-rule="evenodd" stroke-width="28.222" stroke-linejoin="round" xmlns="http://www.w3.org/2000/svg" xmlns:ooo="http://xml.openoffice.org/svg/export" xmlns:xlink="http://www.w3.org/1999/xlink" xmlns:presentation="http://sun.com/xmlns/staroffice/presentation" xmlns:smil="http://www.w3.org/2001/SMIL20/" xmlns:anim="urn:oasis:names:tc:opendocument:xmlns:animation:1.0" xml:space="preserve">
 <defs class="ClipPathGroup">
  <clipPath id="presentation_clip_path" clipPathUnits="userSpaceOnUse">
   <rect x="0" y="0" width="4026" height="4026"/>
  </clipPath>
  <clipPath id="presentation_clip_path_shrink" clipPathUnits="userSpaceOnUse">
   <rect x="4" y="4" width="4018" height="4018"/>
  </clipPath>
 </defs>
 <defs class="TextShapeIndex">
  <g ooo:slide="id1" ooo:id-list="id3 id4 id5 id6"/>
 </defs>
 <defs class="EmbeddedBulletChars">
  <g id="bullet-char-template-57356" transform="scale(0.00048828125,-0.00048828125)">
   <path d="M 580,1141 L 1163,571 580,0 -4,571 580,1141 Z"/>
  </g>
  <g id="bullet-char-template-57354" transform="scale(0.00048828125,-0.00048828125)">
   <path d="M 8,1128 L 1137,1128 1137,0 8,0 8,1128 Z"/>
  </g>
  <g id="bullet-char-template-10146" transform="scale(0.00048828125,-0.00048828125)">
   <path d="M 174,0 L 602,739 174,1481 1456,739 174,0 Z M 1358,739 L 309,1346 659,739 1358,739 Z"/>
  </g>
  <g id="bullet-char-template-10132" transform="scale(0.00048828125,-0.00048828125)">
   <path d="M 2015,739 L 1276,0 717,0 1260,543 174,543 174,936 1260,936 717,1481 1274,1481 2015,739 Z"/>
  </g>
  <g id="bullet-char-template-10007" transform="scale(0.00048828125,-0.00048828125)">
   <path d="M 0,-2 C -7,14 -16,27 -25,37 L 356,567 C 262,823 215,952 215,954 215,979 228,992 255,992 264,992 276,990 289,987 310,991 331,999 354,1012 L 381,999 492,748 772,1049 836,1024 860,1049 C 881,1039 901,1025 922,1006 886,937 835,863 770,784 769,783 710,716 594,584 L 774,223 C 774,196 753,168 711,139 L 727,119 C 717,90 699,76 672,76 641,76 570,178 457,381 L 164,-76 C 142,-110 111,-127 72,-127 30,-127 9,-110 8,-76 1,-67 -2,-52 -2,-32 -2,-23 -1,-13 0,-2 Z"/>
  </g>
  <g id="bullet-char-template-10004" transform="scale(0.00048828125,-0.00048828125)">
   <path d="M 285,-33 C 182,-33 111,30 74,156 52,228 41,333 41,471 41,549 55,616 82,672 116,743 169,778 240,778 293,778 328,747 346,684 L 369,508 C 377,444 397,411 428,410 L 1163,1116 C 1174,1127 1196,1133 1229,1133 1271,1133 1292,1118 1292,1087 L 1292,965 C 1292,929 1282,901 1262,881 L 442,47 C 390,-6 338,-33 285,-33 Z"/>
  </g>
  <g id="bullet-char-template-9679" transform="scale(0.00048828125,-0.00048828125)">
   <path d="M 813,0 C 632,0 489,54 383,161 276,268 223,411 223,592 223,773 276,916 383,1023 489,1130 632,1184 813,1184 992,1184 1136,1130 1245,1023 1353,916 1407,772 1407,592 1407,412 1353,268 1245,161 1136,54 992,0 813,0 Z"/>
  </g>
  <g id="bullet-char-template-8226" transform="scale(0.00048828125,-0.00048828125)">
   <path d="M 346,457 C 273,457 209,483 155,535 101,586 74,649 74,723 74,796 101,859 155,911 209,963 273,989 346,989 419,989 480,963 531,910 582,859 608,796 608,723 608,648 583,586 532,535 482,483 420,457 346,457 Z"/>
  </g>
  <g id="bullet-char-template-8211" transform="scale(0.00048828125,-0.00048828125)">
   <path d="M -4,459 L 1135,459 1135,606 -4,606 -4,459 Z"/>
  </g>
  <g id="bullet-char-template-61548" transform="scale(0.00048828125,-0.00048828125)">
   <path d="M 173,740 C 173,903 231,1043 346,1159 462,1274 601,1332 765,1332 928,1332 1067,1274 1183,1159 1299,1043 1357,903 1357,740 1357,577 1299,437 1183,322 1067,206 928,148 765,148 601,148 462,206 346,322 231,437 173,577 173,740 Z"/>
  </g>
 </defs>
 <g>
  <g id="id2" class="Master_Slide">
   <g id="bg-id2" class="Background"/>
   <g id="bo-id2" class="BackgroundObjects"/>
  </g>
 </g>
 <g class="SlideGroup">
  <g>
   <g id="container-id1">
    <g id="id1" class="Slide" clip-path="url(#presentation_clip_path)">
     <g class="Page">
      <g class="com.sun.star.drawing.PolyPolygonShape">
       <g id="id3">
        <rect class="BoundingBox" stroke="none" fill="none" x="78" y="78" width="3867" height="3867"/>
        <path fill="rgb(255,255,255)" stroke="none" d="M 3943,2012 L 3939,2138 3926,2263 3906,2388 3877,2510 3841,2631 3796,2749 3744,2864 3684,2976 3617,3084 3544,3187 3463,3285 3377,3377 3285,3463 3187,3544 3084,3617 2976,3684 2864,3744 2749,3796 2631,3841 2510,3877 2388,3906 2263,3926 2138,3939 2012,3943 1884,3939 1759,3926 1634,3906 1511,3877 1391,3841 1273,3796 1158,3744 1046,3684 938,3617 835,3544 737,3463 645,3377 559,3285 478,3187 405,3084 338,2976 278,2864 226,2749 181,2631 145,2511 116,2388 96,2264 83,2138 79,2012 83,1885 96,1759 116,1635 145,1512 182,1391 226,1273 278,1158 338,1046 405,938 479,835 559,737 645,645 737,559 835,478 938,405 1046,338 1158,278 1273,226 1391,181 1512,145 1635,116 1759,96 1885,83 2012,79 2138,83 2264,96 2388,116 2511,145 2631,181 2749,226 2864,278 2976,338 3084,405 3187,478 3285,559 3377,645 3463,737 3543,835 3617,938 3684,1046 3744,1158 3796,1273 3840,1391 3877,1512 3906,1634 3926,1759 3939,1885 3943,2012 Z"/>
       </g>
      </g>
      <g class="com.sun.star.drawing.PolyPolygonShape">
       <g id="id4">
        <rect class="BoundingBox" stroke="none" fill="none" x="12" y="12" width="3999" height="3999"/>
        <path fill="none" stroke="rgb(0,0,0)" stroke-width="133" stroke-linejoin="round" d="M 3943,2012 L 3939,2138 3926,2264 3906,2388 3877,2511 3841,2631 3796,2749 3744,2864 3684,2976 3617,3084 3544,3187 3463,3285 3377,3377 3285,3463 3187,3544 3084,3617 2976,3684 2864,3744 2749,3796 2631,3841 2510,3877 2388,3906 2263,3926 2138,3939 2012,3943 1884,3939 1759,3926 1634,3906 1511,3877 1391,3840 1273,3796 1158,3744 1046,3684 938,3617 835,3543 737,3463 645,3377 559,3285 478,3187 405,3084 338,2976 278,2864 226,2749 181,2631 145,2511 116,2388 96,2264 83,2138 79,2012 83,1885 96,1759 116,1635 145,1512 182,1391 226,1273 278,1158 338,1046 405,938 479,835 559,737 645,645 737,559 835,478 938,405 1046,338 1158,278 1273,226 1391,181 1512,145 1635,116 1759,96 1885,83 2012,79 2138,83 2264,96 2388,116 2511,145 2631,181 2749,226 2864,278 2976,338 3084,405 3187,478 3285,559 3377,645 3463,737 3543,835 3617,938 3684,1046 3744,1158 3796,1273 3840,1391 3877,1512 3906,1635 3926,1759 3939,1885 3943,2012 Z"/>
       </g>
      </g>
      <g class="Group">
       <g class="com.sun.star.drawing.PolyPolygonShape">
        <g id="id5">
         <rect class="BoundingBox" stroke="none" fill="none" x="507" y="1191" width="1448" height="1517"/>
         <path fill="rgb(0,0,0)" stroke="none" d="M 507,2707 L 507,1192 809,1192 1168,2265 1240,2489 1321,2246 1683,1192 1953,1192 1953,2707 1760,2707 1760,1439 1320,2707 1139,2707 700,1417 700,2707 507,2707 Z"/>
        </g>
       </g>
       <g class="com.sun.star.drawing.PolyPolygonShape">
        <g id="id6">
         <rect class="BoundingBox" stroke="none" fill="none" x="2278" y="1191" width="1255" height="1517"/>
         <path fill="rgb(0,0,0)" stroke="none" d="M 2278,2707 L 2278,1192 2800,1192 2883,1193 2956,1197 3018,1204 3046,1208 3070,1213 3102,1222 3133,1231 3162,1243 3191,1255 3218,1270 3244,1286 3269,1303 3292,1322 3321,1348 3349,1376 3374,1406 3397,1437 3419,1470 3438,1505 3456,1542 3472,1581 3486,1621 3498,1662 3508,1705 3516,1750 3523,1795 3527,1843 3530,1891 3531,1941 3529,2025 3525,2065 3521,2104 3515,2141 3508,2178 3500,2213 3491,2247 3480,2280 3469,2311 3457,2341 3445,2369 3432,2396 3418,2421 3403,2445 3387,2468 3372,2489 3355,2509 3339,2528 3321,2546 3304,2562 3286,2578 3268,2592 3249,2605 3230,2617 3210,2629 3189,2639 3167,2649 3144,2658 3120,2667 3095,2674 3069,2681 3042,2687 3014,2692 2985,2697 2955,2701 2892,2705 2825,2707 2278,2707 Z M 2479,2528 L 2802,2528 2873,2526 2906,2524 2936,2521 2965,2517 2991,2512 3015,2507 3038,2500 3058,2493 3078,2485 3097,2476 3114,2467 3131,2456 3146,2446 3160,2434 3174,2422 3191,2403 3207,2383 3223,2361 3237,2338 3250,2313 3263,2287 3274,2259 3285,2230 3294,2199 3302,2167 3309,2132 3314,2097 3319,2059 3322,2021 3324,1938 3323,1880 3320,1826 3313,1775 3305,1728 3294,1684 3281,1643 3265,1606 3246,1573 3226,1542 3205,1514 3183,1489 3160,1466 3136,1446 3110,1428 3084,1414 3057,1401 3035,1394 3010,1388 2982,1383 2952,1378 2918,1375 2881,1372 2797,1370 2479,1370 2479,2528 Z"/>
        </g>
       </g>
      </g>
     </g>
    </g>
   </g>
  </g>
 </g>
</svg>