<?xml version="1.0" encoding="UTF-8" standalone="no"?>
<!DOCTYPE svg PUBLIC "-//W3C//DTD SVG 1.1//EN" "http://www.w3.org/Graphics/SVG/1.1/DTD/svg11.dtd">
<svg width="100%" height="100%" viewBox="0 0 20 20" version="1.1" xmlns="http://www.w3.org/2000/svg" xmlns:xlink="http://www.w3.org/1999/xlink" xml:space="preserve" xmlns:serif="http://www.serif.com/" style="fill-rule:evenodd;clip-rule:evenodd;stroke-linecap:round;stroke-linejoin:round;stroke-miterlimit:10;">
    <g transform="matrix(0.285714,0,0,0.285714,0,0)">
        <path d="M2.883,34.579C2.883,17.008 17.175,2.921 34.621,2.921C52.063,2.921 66.35,17.008 66.35,34.579C66.35,51.975 52.063,66.242 34.621,66.242C17.175,66.242 2.883,51.975 2.883,34.579" style="fill:white;stroke:black;stroke-width:2.75px;"/>
    </g>
    <g transform="matrix(0.285714,0,0,0.285714,0,0)">
        <path d="M18.278,34.709C18.278,32.594 18.495,30.891 18.931,29.601C19.366,28.311 20.013,27.316 20.872,26.616C21.73,25.916 22.81,25.566 24.113,25.566C25.073,25.566 25.915,25.76 26.639,26.146C27.364,26.533 27.962,27.09 28.434,27.819C28.906,28.547 29.276,29.434 29.545,30.48C29.813,31.525 29.947,32.935 29.947,34.709C29.947,36.809 29.732,38.504 29.301,39.794C28.869,41.084 28.224,42.08 27.366,42.784C26.507,43.488 25.423,43.84 24.113,43.84C22.387,43.84 21.032,43.222 20.048,41.985C18.868,40.496 18.278,38.07 18.278,34.709ZM20.536,34.709C20.536,37.647 20.88,39.602 21.567,40.575C22.255,41.547 23.103,42.034 24.113,42.034C25.122,42.034 25.97,41.545 26.658,40.569C27.345,39.592 27.689,37.639 27.689,34.709C27.689,31.763 27.345,29.806 26.658,28.838C25.97,27.869 25.113,27.385 24.088,27.385C23.079,27.385 22.273,27.812 21.671,28.667C20.914,29.757 20.536,31.772 20.536,34.709Z" style="fill-rule:nonzero;"/>
    </g>
    <g transform="matrix(0.285714,0,0,0.285714,0,0)">
        <path d="M33.365,43.535L33.365,41.033L35.868,41.033L35.868,43.535C35.868,44.455 35.705,45.197 35.38,45.763C35.054,46.328 34.537,46.766 33.829,47.075L33.219,46.135C33.683,45.932 34.025,45.633 34.244,45.238C34.464,44.843 34.586,44.276 34.611,43.535L33.365,43.535Z" style="fill-rule:nonzero;"/>
    </g>
    <g transform="matrix(0.285714,0,0,0.285714,0,0)">
        <path d="M39.139,38.811L41.337,38.518C41.589,39.763 42.018,40.66 42.624,41.21C43.231,41.759 43.969,42.034 44.84,42.034C45.874,42.034 46.746,41.676 47.458,40.959C48.171,40.243 48.527,39.356 48.527,38.298C48.527,37.289 48.197,36.457 47.538,35.802C46.879,35.147 46.04,34.819 45.023,34.819C44.608,34.819 44.091,34.901 43.473,35.063L43.717,33.135C43.863,33.151 43.981,33.159 44.071,33.159C45.007,33.159 45.849,32.915 46.598,32.427C47.347,31.938 47.721,31.186 47.721,30.168C47.721,29.363 47.448,28.695 46.903,28.166C46.358,27.637 45.654,27.373 44.791,27.373C43.937,27.373 43.225,27.642 42.655,28.179C42.085,28.716 41.719,29.521 41.556,30.596L39.359,30.205C39.628,28.732 40.238,27.591 41.19,26.781C42.142,25.971 43.326,25.566 44.742,25.566C45.719,25.566 46.618,25.776 47.44,26.195C48.262,26.614 48.891,27.186 49.326,27.91C49.762,28.634 49.979,29.403 49.979,30.217C49.979,30.99 49.772,31.694 49.357,32.329C48.942,32.964 48.327,33.468 47.513,33.843C48.571,34.087 49.393,34.593 49.979,35.363C50.565,36.132 50.858,37.094 50.858,38.249C50.858,39.812 50.288,41.136 49.149,42.223C48.01,43.309 46.569,43.852 44.828,43.852C43.257,43.852 41.953,43.385 40.915,42.449C39.878,41.513 39.286,40.3 39.139,38.811Z" style="fill-rule:nonzero;"/>
    </g>
</svg>
