<?xml version="1.0" encoding="UTF-8" standalone="no"?>
<!DOCTYPE svg PUBLIC "-//W3C//DTD SVG 1.1//EN" "http://www.w3.org/Graphics/SVG/1.1/DTD/svg11.dtd">
<svg width="100%" height="100%" viewBox="0 0 20 20" version="1.1" xmlns="http://www.w3.org/2000/svg" xmlns:xlink="http://www.w3.org/1999/xlink" xml:space="preserve" xmlns:serif="http://www.serif.com/" style="fill-rule:evenodd;clip-rule:evenodd;stroke-linecap:round;stroke-linejoin:round;stroke-miterlimit:10;">
    <g transform="matrix(0.285714,0,0,0.285714,0,0)">
        <path d="M2.883,34.579C2.883,17.008 17.175,2.921 34.621,2.921C52.063,2.921 66.35,17.008 66.35,34.579C66.35,51.975 52.063,66.242 34.621,66.242C17.175,66.242 2.883,51.975 2.883,34.579" style="fill:white;stroke:black;stroke-width:2.75px;"/>
    </g>
    <g transform="matrix(0.285714,0,0,0.285714,0,0)">
        <path d="M18.278,34.709C18.278,32.594 18.495,30.891 18.931,29.601C19.366,28.311 20.013,27.316 20.872,26.616C21.73,25.916 22.81,25.566 24.113,25.566C25.073,25.566 25.915,25.76 26.639,26.146C27.364,26.533 27.962,27.09 28.434,27.819C28.906,28.547 29.276,29.434 29.545,30.48C29.813,31.525 29.947,32.935 29.947,34.709C29.947,36.809 29.732,38.504 29.301,39.794C28.869,41.084 28.224,42.08 27.366,42.784C26.507,43.488 25.423,43.84 24.113,43.84C22.387,43.84 21.032,43.222 20.048,41.985C18.868,40.496 18.278,38.07 18.278,34.709ZM20.536,34.709C20.536,37.647 20.88,39.602 21.567,40.575C22.255,41.547 23.103,42.034 24.113,42.034C25.122,42.034 25.97,41.545 26.658,40.569C27.345,39.592 27.689,37.639 27.689,34.709C27.689,31.763 27.345,29.806 26.658,28.838C25.97,27.869 25.113,27.385 24.088,27.385C23.079,27.385 22.273,27.812 21.671,28.667C20.914,29.757 20.536,31.772 20.536,34.709Z" style="fill-rule:nonzero;"/>
    </g>
    <g transform="matrix(0.285714,0,0,0.285714,0,0)">
        <path d="M33.365,43.535L33.365,41.033L35.868,41.033L35.868,43.535C35.868,44.455 35.705,45.197 35.38,45.763C35.054,46.328 34.537,46.766 33.829,47.075L33.219,46.135C33.683,45.932 34.025,45.633 34.244,45.238C34.464,44.843 34.586,44.276 34.611,43.535L33.365,43.535Z" style="fill-rule:nonzero;"/>
    </g>
    <g transform="matrix(0.285714,0,0,0.285714,0,0)">
        <path d="M42.509,33.831C41.597,33.497 40.922,33.021 40.482,32.402C40.043,31.784 39.823,31.043 39.823,30.181C39.823,28.879 40.291,27.784 41.227,26.897C42.163,26.01 43.408,25.566 44.962,25.566C46.525,25.566 47.782,26.02 48.734,26.927C49.686,27.835 50.162,28.94 50.162,30.242C50.162,31.072 49.945,31.794 49.509,32.408C49.074,33.023 48.413,33.497 47.526,33.831C48.624,34.189 49.46,34.766 50.034,35.564C50.608,36.361 50.895,37.314 50.895,38.42C50.895,39.95 50.354,41.236 49.271,42.278C48.189,43.319 46.765,43.84 44.999,43.84C43.233,43.84 41.809,43.317 40.726,42.272C39.644,41.226 39.103,39.922 39.103,38.359C39.103,37.196 39.398,36.221 39.988,35.436C40.578,34.65 41.418,34.115 42.509,33.831ZM42.069,30.107C42.069,30.954 42.342,31.645 42.887,32.183C43.432,32.72 44.14,32.988 45.011,32.988C45.857,32.988 46.551,32.722 47.092,32.189C47.633,31.656 47.904,31.003 47.904,30.229C47.904,29.424 47.625,28.746 47.068,28.197C46.51,27.648 45.817,27.373 44.987,27.373C44.148,27.373 43.453,27.642 42.899,28.179C42.346,28.716 42.069,29.359 42.069,30.107ZM41.361,38.372C41.361,38.998 41.51,39.604 41.807,40.19C42.104,40.776 42.545,41.23 43.131,41.551C43.717,41.873 44.348,42.034 45.023,42.034C46.073,42.034 46.94,41.696 47.623,41.02C48.307,40.345 48.649,39.486 48.649,38.445C48.649,37.387 48.297,36.512 47.593,35.82C46.889,35.129 46.008,34.783 44.95,34.783C43.916,34.783 43.06,35.124 42.38,35.808C41.701,36.492 41.361,37.346 41.361,38.372Z" style="fill-rule:nonzero;"/>
    </g>
</svg>
