<?xml version="1.0" encoding="UTF-8" standalone="no"?>
<!DOCTYPE svg PUBLIC "-//W3C//DTD SVG 1.1//EN" "http://www.w3.org/Graphics/SVG/1.1/DTD/svg11.dtd">
<svg width="100%" height="100%" viewBox="0 0 20 20" version="1.1" xmlns="http://www.w3.org/2000/svg" xmlns:xlink="http://www.w3.org/1999/xlink" xml:space="preserve" xmlns:serif="http://www.serif.com/" style="fill-rule:evenodd;clip-rule:evenodd;stroke-linecap:round;stroke-linejoin:round;stroke-miterlimit:10;">
    <g transform="matrix(0.285714,0,0,0.285714,0,0)">
        <path d="M2.883,34.579C2.883,17.008 17.175,2.921 34.621,2.921C52.063,2.921 66.35,17.008 66.35,34.579C66.35,51.975 52.063,66.242 34.621,66.242C17.175,66.242 2.883,51.975 2.883,34.579" style="fill:white;stroke:black;stroke-width:2.75px;"/>
    </g>
    <g transform="matrix(0.285714,0,0,0.285714,0,0)">
        <path d="M18.278,34.709C18.278,32.594 18.495,30.891 18.931,29.601C19.366,28.311 20.013,27.316 20.872,26.616C21.73,25.916 22.81,25.566 24.113,25.566C25.073,25.566 25.915,25.76 26.639,26.146C27.364,26.533 27.962,27.09 28.434,27.819C28.906,28.547 29.276,29.434 29.545,30.48C29.813,31.525 29.947,32.935 29.947,34.709C29.947,36.809 29.732,38.504 29.301,39.794C28.869,41.084 28.224,42.08 27.366,42.784C26.507,43.488 25.423,43.84 24.113,43.84C22.387,43.84 21.032,43.222 20.048,41.985C18.868,40.496 18.278,38.07 18.278,34.709ZM20.536,34.709C20.536,37.647 20.88,39.602 21.567,40.575C22.255,41.547 23.103,42.034 24.113,42.034C25.122,42.034 25.97,41.545 26.658,40.569C27.345,39.592 27.689,37.639 27.689,34.709C27.689,31.763 27.345,29.806 26.658,28.838C25.97,27.869 25.113,27.385 24.088,27.385C23.079,27.385 22.273,27.812 21.671,28.667C20.914,29.757 20.536,31.772 20.536,34.709Z" style="fill-rule:nonzero;"/>
    </g>
    <g transform="matrix(0.285714,0,0,0.285714,0,0)">
        <path d="M33.365,43.535L33.365,41.033L35.868,41.033L35.868,43.535C35.868,44.455 35.705,45.197 35.38,45.763C35.054,46.328 34.537,46.766 33.829,47.075L33.219,46.135C33.683,45.932 34.025,45.633 34.244,45.238C34.464,44.843 34.586,44.276 34.611,43.535L33.365,43.535Z" style="fill-rule:nonzero;"/>
    </g>
    <g transform="matrix(0.285714,0,0,0.285714,0,0)">
        <path d="M39.274,27.983L39.274,25.872L50.858,25.872L50.858,27.581C49.719,28.793 48.59,30.404 47.471,32.415C46.352,34.425 45.487,36.492 44.877,38.616C44.437,40.113 44.156,41.753 44.034,43.535L41.776,43.535C41.801,42.127 42.077,40.426 42.606,38.433C43.135,36.439 43.894,34.516 44.883,32.665C45.872,30.813 46.923,29.253 48.038,27.983L39.274,27.983Z" style="fill-rule:nonzero;"/>
    </g>
</svg>
