<?xml version="1.0" encoding="UTF-8" standalone="no"?>
<!DOCTYPE svg PUBLIC "-//W3C//DTD SVG 1.1//EN" "http://www.w3.org/Graphics/SVG/1.1/DTD/svg11.dtd">
<svg width="100%" height="100%" viewBox="0 0 20 20" version="1.1" xmlns="http://www.w3.org/2000/svg" xmlns:xlink="http://www.w3.org/1999/xlink" xml:space="preserve" xmlns:serif="http://www.serif.com/" style="fill-rule:evenodd;clip-rule:evenodd;stroke-linecap:round;stroke-linejoin:round;stroke-miterlimit:10;">
    <g transform="matrix(0.285714,0,0,0.285714,0,0)">
        <path d="M2.883,34.579C2.883,17.008 17.175,2.921 34.621,2.921C52.063,2.921 66.35,17.008 66.35,34.579C66.35,51.975 52.063,66.242 34.621,66.242C17.175,66.242 2.883,51.975 2.883,34.579" style="fill:white;stroke:black;stroke-width:2.75px;"/>
    </g>
    <g transform="matrix(0.285714,0,0,0.285714,0,0)">
        <path d="M18.278,34.709C18.278,32.594 18.495,30.891 18.931,29.601C19.366,28.311 20.013,27.316 20.872,26.616C21.73,25.916 22.81,25.566 24.113,25.566C25.073,25.566 25.915,25.76 26.639,26.146C27.364,26.533 27.962,27.09 28.434,27.819C28.906,28.547 29.276,29.434 29.545,30.48C29.813,31.525 29.947,32.935 29.947,34.709C29.947,36.809 29.732,38.504 29.301,39.794C28.869,41.084 28.224,42.08 27.366,42.784C26.507,43.488 25.423,43.84 24.113,43.84C22.387,43.84 21.032,43.222 20.048,41.985C18.868,40.496 18.278,38.07 18.278,34.709ZM20.536,34.709C20.536,37.647 20.88,39.602 21.567,40.575C22.255,41.547 23.103,42.034 24.113,42.034C25.122,42.034 25.97,41.545 26.658,40.569C27.345,39.592 27.689,37.639 27.689,34.709C27.689,31.763 27.345,29.806 26.658,28.838C25.97,27.869 25.113,27.385 24.088,27.385C23.079,27.385 22.273,27.812 21.671,28.667C20.914,29.757 20.536,31.772 20.536,34.709Z" style="fill-rule:nonzero;"/>
    </g>
    <g transform="matrix(0.285714,0,0,0.285714,0,0)">
        <path d="M33.365,43.535L33.365,41.033L35.868,41.033L35.868,43.535C35.868,44.455 35.705,45.197 35.38,45.763C35.054,46.328 34.537,46.766 33.829,47.075L33.219,46.135C33.683,45.932 34.025,45.633 34.244,45.238C34.464,44.843 34.586,44.276 34.611,43.535L33.365,43.535Z" style="fill-rule:nonzero;"/>
    </g>
    <g transform="matrix(0.285714,0,0,0.285714,0,0)">
        <path d="M39.127,38.848L41.434,38.652C41.605,39.775 42.002,40.62 42.624,41.185C43.247,41.751 43.998,42.034 44.877,42.034C45.935,42.034 46.83,41.635 47.562,40.837C48.295,40.04 48.661,38.982 48.661,37.664C48.661,36.41 48.309,35.422 47.605,34.697C46.901,33.973 45.979,33.611 44.84,33.611C44.132,33.611 43.493,33.772 42.924,34.093C42.354,34.414 41.906,34.831 41.581,35.344L39.518,35.076L41.251,25.884L50.15,25.884L50.15,27.983L43.009,27.983L42.045,32.793C43.119,32.044 44.246,31.67 45.426,31.67C46.988,31.67 48.307,32.211 49.381,33.293C50.455,34.376 50.992,35.767 50.992,37.468C50.992,39.088 50.52,40.487 49.576,41.667C48.429,43.116 46.862,43.84 44.877,43.84C43.249,43.84 41.921,43.385 40.891,42.473C39.862,41.562 39.274,40.353 39.127,38.848Z" style="fill-rule:nonzero;"/>
    </g>
</svg>
