<?xml version="1.0" encoding="UTF-8" standalone="no"?>
<!DOCTYPE svg PUBLIC "-//W3C//DTD SVG 1.1//EN" "http://www.w3.org/Graphics/SVG/1.1/DTD/svg11.dtd">
<svg width="100%" height="100%" viewBox="0 0 20 20" version="1.1" xmlns="http://www.w3.org/2000/svg" xmlns:xlink="http://www.w3.org/1999/xlink" xml:space="preserve" xmlns:serif="http://www.serif.com/" style="fill-rule:evenodd;clip-rule:evenodd;stroke-linecap:round;stroke-linejoin:round;stroke-miterlimit:10;">
    <g transform="matrix(0.285714,0,0,0.285714,0,0)">
        <path d="M2.883,34.579C2.883,17.008 17.175,2.921 34.621,2.921C52.063,2.921 66.35,17.008 66.35,34.579C66.35,51.975 52.063,66.242 34.621,66.242C17.175,66.242 2.883,51.975 2.883,34.579" style="fill:white;stroke:black;stroke-width:2.75px;"/>
    </g>
    <g transform="matrix(0.285714,0,0,0.285714,0,0)">
        <path d="M18.278,34.709C18.278,32.594 18.495,30.891 18.931,29.601C19.366,28.311 20.013,27.316 20.872,26.616C21.73,25.916 22.81,25.566 24.113,25.566C25.073,25.566 25.915,25.76 26.639,26.146C27.364,26.533 27.962,27.09 28.434,27.819C28.906,28.547 29.276,29.434 29.545,30.48C29.813,31.525 29.947,32.935 29.947,34.709C29.947,36.809 29.732,38.504 29.301,39.794C28.869,41.084 28.224,42.08 27.366,42.784C26.507,43.488 25.423,43.84 24.113,43.84C22.387,43.84 21.032,43.222 20.048,41.985C18.868,40.496 18.278,38.07 18.278,34.709ZM20.536,34.709C20.536,37.647 20.88,39.602 21.567,40.575C22.255,41.547 23.103,42.034 24.113,42.034C25.122,42.034 25.97,41.545 26.658,40.569C27.345,39.592 27.689,37.639 27.689,34.709C27.689,31.763 27.345,29.806 26.658,28.838C25.97,27.869 25.113,27.385 24.088,27.385C23.079,27.385 22.273,27.812 21.671,28.667C20.914,29.757 20.536,31.772 20.536,34.709Z" style="fill-rule:nonzero;"/>
    </g>
    <g transform="matrix(0.285714,0,0,0.285714,0,0)">
        <path d="M33.365,43.535L33.365,41.033L35.868,41.033L35.868,43.535C35.868,44.455 35.705,45.197 35.38,45.763C35.054,46.328 34.537,46.766 33.829,47.075L33.219,46.135C33.683,45.932 34.025,45.633 34.244,45.238C34.464,44.843 34.586,44.276 34.611,43.535L33.365,43.535Z" style="fill-rule:nonzero;"/>
    </g>
    <g transform="matrix(0.285714,0,0,0.285714,0,0)">
        <path d="M50.529,30.022L48.343,30.193C48.148,29.33 47.871,28.704 47.513,28.313C46.919,27.686 46.187,27.373 45.316,27.373C44.616,27.373 44.002,27.568 43.473,27.959C42.781,28.463 42.236,29.2 41.837,30.168C41.438,31.137 41.231,32.516 41.215,34.307C41.744,33.501 42.391,32.903 43.155,32.512C43.92,32.122 44.722,31.926 45.56,31.926C47.025,31.926 48.272,32.465 49.302,33.544C50.331,34.622 50.846,36.016 50.846,37.725C50.846,38.848 50.604,39.891 50.12,40.856C49.635,41.82 48.97,42.559 48.124,43.071C47.277,43.584 46.317,43.84 45.243,43.84C43.412,43.84 41.919,43.167 40.763,41.82C39.607,40.473 39.03,38.254 39.03,35.161C39.03,31.702 39.668,29.188 40.946,27.617C42.061,26.25 43.562,25.566 45.45,25.566C46.858,25.566 48.012,25.961 48.911,26.75C49.81,27.54 50.349,28.63 50.529,30.022ZM41.556,37.737C41.556,38.494 41.717,39.218 42.039,39.91C42.36,40.601 42.81,41.128 43.387,41.49C43.965,41.853 44.572,42.034 45.206,42.034C46.134,42.034 46.932,41.659 47.599,40.911C48.266,40.162 48.6,39.145 48.6,37.859C48.6,36.622 48.27,35.647 47.611,34.935C46.952,34.223 46.122,33.867 45.121,33.867C44.128,33.867 43.286,34.223 42.594,34.935C41.902,35.647 41.556,36.581 41.556,37.737Z" style="fill-rule:nonzero;"/>
    </g>
</svg>
