<?xml version="1.0" encoding="UTF-8" standalone="no"?>
<!DOCTYPE svg PUBLIC "-//W3C//DTD SVG 1.1//EN" "http://www.w3.org/Graphics/SVG/1.1/DTD/svg11.dtd">
<svg width="100%" height="100%" viewBox="0 0 20 20" version="1.1" xmlns="http://www.w3.org/2000/svg" xmlns:xlink="http://www.w3.org/1999/xlink" xml:space="preserve" xmlns:serif="http://www.serif.com/" style="fill-rule:evenodd;clip-rule:evenodd;stroke-linecap:round;stroke-linejoin:round;stroke-miterlimit:10;">
    <g transform="matrix(0.285714,0,0,0.285714,0,0)">
        <path d="M2.883,34.579C2.883,17.008 17.175,2.921 34.621,2.921C52.063,2.921 66.35,17.008 66.35,34.579C66.35,51.975 52.063,66.242 34.621,66.242C17.175,66.242 2.883,51.975 2.883,34.579" style="fill:white;stroke:black;stroke-width:2.75px;"/>
    </g>
    <g transform="matrix(0.285714,0,0,0.285714,0,0)">
        <path d="M18.278,34.709C18.278,32.594 18.495,30.891 18.931,29.601C19.366,28.311 20.013,27.316 20.872,26.616C21.73,25.916 22.81,25.566 24.113,25.566C25.073,25.566 25.915,25.76 26.639,26.146C27.364,26.533 27.962,27.09 28.434,27.819C28.906,28.547 29.276,29.434 29.545,30.48C29.813,31.525 29.947,32.935 29.947,34.709C29.947,36.809 29.732,38.504 29.301,39.794C28.869,41.084 28.224,42.08 27.366,42.784C26.507,43.488 25.423,43.84 24.113,43.84C22.387,43.84 21.032,43.222 20.048,41.985C18.868,40.496 18.278,38.07 18.278,34.709ZM20.536,34.709C20.536,37.647 20.88,39.602 21.567,40.575C22.255,41.547 23.103,42.034 24.113,42.034C25.122,42.034 25.97,41.545 26.658,40.569C27.345,39.592 27.689,37.639 27.689,34.709C27.689,31.763 27.345,29.806 26.658,28.838C25.97,27.869 25.113,27.385 24.088,27.385C23.079,27.385 22.273,27.812 21.671,28.667C20.914,29.757 20.536,31.772 20.536,34.709Z" style="fill-rule:nonzero;"/>
    </g>
    <g transform="matrix(0.285714,0,0,0.285714,0,0)">
        <path d="M33.365,43.535L33.365,41.033L35.868,41.033L35.868,43.535C35.868,44.455 35.705,45.197 35.38,45.763C35.054,46.328 34.537,46.766 33.829,47.075L33.219,46.135C33.683,45.932 34.025,45.633 34.244,45.238C34.464,44.843 34.586,44.276 34.611,43.535L33.365,43.535Z" style="fill-rule:nonzero;"/>
    </g>
    <g transform="matrix(0.285714,0,0,0.285714,0,0)">
        <path d="M39.457,39.397L41.569,39.202C41.748,40.194 42.089,40.915 42.594,41.362C43.099,41.81 43.745,42.034 44.535,42.034C45.21,42.034 45.802,41.879 46.311,41.57C46.82,41.261 47.237,40.848 47.562,40.331C47.888,39.814 48.16,39.116 48.38,38.237C48.6,37.358 48.71,36.463 48.71,35.552C48.71,35.454 48.706,35.308 48.697,35.112C48.258,35.812 47.658,36.38 46.897,36.815C46.136,37.251 45.312,37.468 44.425,37.468C42.944,37.468 41.691,36.931 40.665,35.857C39.64,34.783 39.127,33.367 39.127,31.609C39.127,29.794 39.662,28.333 40.732,27.227C41.803,26.12 43.143,25.566 44.755,25.566C45.918,25.566 46.982,25.88 47.947,26.506C48.911,27.133 49.644,28.026 50.144,29.186C50.644,30.345 50.895,32.024 50.895,34.221C50.895,36.508 50.647,38.329 50.15,39.684C49.654,41.039 48.915,42.07 47.935,42.778C46.954,43.486 45.804,43.84 44.486,43.84C43.086,43.84 41.943,43.452 41.056,42.675C40.169,41.897 39.636,40.805 39.457,39.397ZM48.453,31.499C48.453,30.238 48.118,29.237 47.446,28.496C46.775,27.755 45.967,27.385 45.023,27.385C44.047,27.385 43.196,27.784 42.472,28.581C41.748,29.379 41.385,30.413 41.385,31.682C41.385,32.821 41.729,33.747 42.417,34.459C43.105,35.171 43.953,35.527 44.962,35.527C45.979,35.527 46.816,35.171 47.471,34.459C48.126,33.747 48.453,32.76 48.453,31.499Z" style="fill-rule:nonzero;"/>
    </g>
</svg>
