<?xml version="1.0" encoding="UTF-8" standalone="no"?>
<!DOCTYPE svg PUBLIC "-//W3C//DTD SVG 1.1//EN" "http://www.w3.org/Graphics/SVG/1.1/DTD/svg11.dtd">
<svg width="100%" height="100%" viewBox="0 0 20 20" version="1.1" xmlns="http://www.w3.org/2000/svg" xmlns:xlink="http://www.w3.org/1999/xlink" xml:space="preserve" xmlns:serif="http://www.serif.com/" style="fill-rule:evenodd;clip-rule:evenodd;stroke-linecap:round;stroke-linejoin:round;stroke-miterlimit:10;">
    <g transform="matrix(0.285714,0,0,0.285714,0,0)">
        <path d="M2.883,34.579C2.883,17.008 17.175,2.921 34.621,2.921C52.063,2.921 66.35,17.008 66.35,34.579C66.35,51.975 52.063,66.242 34.621,66.242C17.175,66.242 2.883,51.975 2.883,34.579" style="fill:white;stroke:black;stroke-width:2.75px;"/>
    </g>
    <g transform="matrix(0.285714,0,0,0.285714,0,0)">
        <path d="M18.278,34.709C18.278,32.594 18.495,30.891 18.931,29.601C19.366,28.311 20.013,27.316 20.872,26.616C21.73,25.916 22.81,25.566 24.113,25.566C25.073,25.566 25.915,25.76 26.639,26.146C27.364,26.533 27.962,27.09 28.434,27.819C28.906,28.547 29.276,29.434 29.545,30.48C29.813,31.525 29.947,32.935 29.947,34.709C29.947,36.809 29.732,38.504 29.301,39.794C28.869,41.084 28.224,42.08 27.366,42.784C26.507,43.488 25.423,43.84 24.113,43.84C22.387,43.84 21.032,43.222 20.048,41.985C18.868,40.496 18.278,38.07 18.278,34.709ZM20.536,34.709C20.536,37.647 20.88,39.602 21.567,40.575C22.255,41.547 23.103,42.034 24.113,42.034C25.122,42.034 25.97,41.545 26.658,40.569C27.345,39.592 27.689,37.639 27.689,34.709C27.689,31.763 27.345,29.806 26.658,28.838C25.97,27.869 25.113,27.385 24.088,27.385C23.079,27.385 22.273,27.812 21.671,28.667C20.914,29.757 20.536,31.772 20.536,34.709Z" style="fill-rule:nonzero;"/>
    </g>
    <g transform="matrix(0.285714,0,0,0.285714,0,0)">
        <path d="M33.365,43.535L33.365,41.033L35.868,41.033L35.868,43.535C35.868,44.455 35.705,45.197 35.38,45.763C35.054,46.328 34.537,46.766 33.829,47.075L33.219,46.135C33.683,45.932 34.025,45.633 34.244,45.238C34.464,44.843 34.586,44.276 34.611,43.535L33.365,43.535Z" style="fill-rule:nonzero;"/>
    </g>
    <g transform="matrix(0.285714,0,0,0.285714,0,0)">
        <path d="M50.675,41.423L50.675,43.535L38.846,43.535C38.83,43.006 38.916,42.498 39.103,42.009C39.404,41.204 39.886,40.41 40.549,39.629C41.213,38.848 42.171,37.944 43.424,36.919C45.369,35.324 46.683,34.06 47.367,33.129C48.051,32.197 48.392,31.316 48.392,30.486C48.392,29.615 48.081,28.881 47.458,28.282C46.836,27.684 46.024,27.385 45.023,27.385C43.965,27.385 43.119,27.703 42.484,28.337C41.849,28.972 41.528,29.851 41.52,30.974L39.261,30.742C39.416,29.058 39.998,27.774 41.007,26.891C42.016,26.008 43.371,25.566 45.072,25.566C46.789,25.566 48.148,26.042 49.149,26.995C50.15,27.947 50.651,29.127 50.651,30.535C50.651,31.251 50.504,31.955 50.211,32.646C49.918,33.338 49.432,34.067 48.752,34.831C48.073,35.596 46.944,36.646 45.365,37.981C44.047,39.088 43.2,39.838 42.826,40.233C42.452,40.628 42.142,41.025 41.898,41.423L50.675,41.423Z" style="fill-rule:nonzero;"/>
    </g>
</svg>
