<?xml version="1.0" encoding="UTF-8" standalone="no"?>
<!DOCTYPE svg PUBLIC "-//W3C//DTD SVG 1.1//EN" "http://www.w3.org/Graphics/SVG/1.1/DTD/svg11.dtd">
<svg width="100%" height="100%" viewBox="0 0 20 20" version="1.1" xmlns="http://www.w3.org/2000/svg" xmlns:xlink="http://www.w3.org/1999/xlink" xml:space="preserve" xmlns:serif="http://www.serif.com/" style="fill-rule:evenodd;clip-rule:evenodd;stroke-linecap:round;stroke-linejoin:round;stroke-miterlimit:10;">
    <g transform="matrix(0.285714,0,0,0.285714,0,0)">
        <path d="M2.883,34.579C2.883,17.008 17.175,2.921 34.621,2.921C52.063,2.921 66.35,17.008 66.35,34.579C66.35,51.975 52.063,66.242 34.621,66.242C17.175,66.242 2.883,51.975 2.883,34.579" style="fill:white;stroke:black;stroke-width:2.75px;"/>
    </g>
    <g transform="matrix(0.285714,0,0,0.285714,0,0)">
        <path d="M26.554,43.535L24.357,43.535L24.357,29.534C23.828,30.038 23.134,30.543 22.275,31.047C21.417,31.552 20.646,31.93 19.962,32.183L19.962,30.059C21.191,29.481 22.265,28.781 23.185,27.959C24.104,27.137 24.755,26.339 25.138,25.566L26.554,25.566L26.554,43.535Z" style="fill-rule:nonzero;"/>
    </g>
    <g transform="matrix(0.285714,0,0,0.285714,0,0)">
        <path d="M33.365,43.535L33.365,41.033L35.868,41.033L35.868,43.535C35.868,44.455 35.705,45.197 35.38,45.763C35.054,46.328 34.537,46.766 33.829,47.075L33.219,46.135C33.683,45.932 34.025,45.633 34.244,45.238C34.464,44.843 34.586,44.276 34.611,43.535L33.365,43.535Z" style="fill-rule:nonzero;"/>
    </g>
    <g transform="matrix(0.285714,0,0,0.285714,0,0)">
        <path d="M39.127,34.709C39.127,32.594 39.345,30.891 39.78,29.601C40.216,28.311 40.863,27.316 41.721,26.616C42.58,25.916 43.66,25.566 44.962,25.566C45.922,25.566 46.765,25.76 47.489,26.146C48.213,26.533 48.811,27.09 49.283,27.819C49.755,28.547 50.126,29.434 50.394,30.48C50.663,31.525 50.797,32.935 50.797,34.709C50.797,36.809 50.581,38.504 50.15,39.794C49.719,41.084 49.074,42.08 48.215,42.784C47.357,43.488 46.272,43.84 44.962,43.84C43.237,43.84 41.882,43.222 40.897,41.985C39.717,40.496 39.127,38.07 39.127,34.709ZM41.385,34.709C41.385,37.647 41.729,39.602 42.417,40.575C43.105,41.547 43.953,42.034 44.962,42.034C45.971,42.034 46.82,41.545 47.507,40.569C48.195,39.592 48.539,37.639 48.539,34.709C48.539,31.763 48.195,29.806 47.507,28.838C46.82,27.869 45.963,27.385 44.938,27.385C43.929,27.385 43.123,27.812 42.521,28.667C41.764,29.757 41.385,31.772 41.385,34.709Z" style="fill-rule:nonzero;"/>
    </g>
</svg>
