<?xml version="1.0" encoding="UTF-8"?>
<!DOCTYPE svg PUBLIC "-//W3C//DTD SVG 1.1//EN" "http://www.w3.org/Graphics/SVG/1.1/DTD/svg11.dtd">
<svg version="1.2" width="40mm" height="40mm" viewBox="0 0 4000 4000" preserveAspectRatio="xMidYMid" fill-rule="evenodd" stroke-width="28.222" stroke-linejoin="round" xmlns="http://www.w3.org/2000/svg" xmlns:ooo="http://xml.openoffice.org/svg/export" xmlns:xlink="http://www.w3.org/1999/xlink" xmlns:presentation="http://sun.com/xmlns/staroffice/presentation" xmlns:smil="http://www.w3.org/2001/SMIL20/" xmlns:anim="urn:oasis:names:tc:opendocument:xmlns:animation:1.0" xml:space="preserve">
 <defs class="ClipPathGroup">
  <clipPath id="presentation_clip_path" clipPathUnits="userSpaceOnUse">
   <rect x="0" y="0" width="4000" height="4000"/>
  </clipPath>
  <clipPath id="presentation_clip_path_shrink" clipPathUnits="userSpaceOnUse">
   <rect x="4" y="4" width="3992" height="3992"/>
  </clipPath>
 </defs>
 <defs class="TextShapeIndex">
  <g ooo:slide="id1" ooo:id-list="id3 id4 id5 id6"/>
 </defs>
 <defs class="EmbeddedBulletChars">
  <g id="bullet-char-template-57356" transform="scale(0.00048828125,-0.00048828125)">
   <path d="M 580,1141 L 1163,571 580,0 -4,571 580,1141 Z"/>
  </g>
  <g id="bullet-char-template-57354" transform="scale(0.00048828125,-0.00048828125)">
   <path d="M 8,1128 L 1137,1128 1137,0 8,0 8,1128 Z"/>
  </g>
  <g id="bullet-char-template-10146" transform="scale(0.00048828125,-0.00048828125)">
   <path d="M 174,0 L 602,739 174,1481 1456,739 174,0 Z M 1358,739 L 309,1346 659,739 1358,739 Z"/>
  </g>
  <g id="bullet-char-template-10132" transform="scale(0.00048828125,-0.00048828125)">
   <path d="M 2015,739 L 1276,0 717,0 1260,543 174,543 174,936 1260,936 717,1481 1274,1481 2015,739 Z"/>
  </g>
  <g id="bullet-char-template-10007" transform="scale(0.00048828125,-0.00048828125)">
   <path d="M 0,-2 C -7,14 -16,27 -25,37 L 356,567 C 262,823 215,952 215,954 215,979 228,992 255,992 264,992 276,990 289,987 310,991 331,999 354,1012 L 381,999 492,748 772,1049 836,1024 860,1049 C 881,1039 901,1025 922,1006 886,937 835,863 770,784 769,783 710,716 594,584 L 774,223 C 774,196 753,168 711,139 L 727,119 C 717,90 699,76 672,76 641,76 570,178 457,381 L 164,-76 C 142,-110 111,-127 72,-127 30,-127 9,-110 8,-76 1,-67 -2,-52 -2,-32 -2,-23 -1,-13 0,-2 Z"/>
  </g>
  <g id="bullet-char-template-10004" transform="scale(0.00048828125,-0.00048828125)">
   <path d="M 285,-33 C 182,-33 111,30 74,156 52,228 41,333 41,471 41,549 55,616 82,672 116,743 169,778 240,778 293,778 328,747 346,684 L 369,508 C 377,444 397,411 428,410 L 1163,1116 C 1174,1127 1196,1133 1229,1133 1271,1133 1292,1118 1292,1087 L 1292,965 C 1292,929 1282,901 1262,881 L 442,47 C 390,-6 338,-33 285,-33 Z"/>
  </g>
  <g id="bullet-char-template-9679" transform="scale(0.00048828125,-0.00048828125)">
   <path d="M 813,0 C 632,0 489,54 383,161 276,268 223,411 223,592 223,773 276,916 383,1023 489,1130 632,1184 813,1184 992,1184 1136,1130 1245,1023 1353,916 1407,772 1407,592 1407,412 1353,268 1245,161 1136,54 992,0 813,0 Z"/>
  </g>
  <g id="bullet-char-template-8226" transform="scale(0.00048828125,-0.00048828125)">
   <path d="M 346,457 C 273,457 209,483 155,535 101,586 74,649 74,723 74,796 101,859 155,911 209,963 273,989 346,989 419,989 480,963 531,910 582,859 608,796 608,723 608,648 583,586 532,535 482,483 420,457 346,457 Z"/>
  </g>
  <g id="bullet-char-template-8211" transform="scale(0.00048828125,-0.00048828125)">
   <path d="M -4,459 L 1135,459 1135,606 -4,606 -4,459 Z"/>
  </g>
  <g id="bullet-char-template-61548" transform="scale(0.00048828125,-0.00048828125)">
   <path d="M 173,740 C 173,903 231,1043 346,1159 462,1274 601,1332 765,1332 928,1332 1067,1274 1183,1159 1299,1043 1357,903 1357,740 1357,577 1299,437 1183,322 1067,206 928,148 765,148 601,148 462,206 346,322 231,437 173,577 173,740 Z"/>
  </g>
 </defs>
 <g>
  <g id="id2" class="Master_Slide">
   <g id="bg-id2" class="Background"/>
   <g id="bo-id2" class="BackgroundObjects"/>
  </g>
 </g>
 <g class="SlideGroup">
  <g>
   <g id="container-id1">
    <g id="id1" class="Slide" clip-path="url(#presentation_clip_path)">
     <g class="Page">
      <g class="com.sun.star.drawing.ClosedBezierShape">
       <g id="id3">
        <rect class="BoundingBox" stroke="none" fill="none" x="65" y="65" width="3867" height="3867"/>
        <path fill="rgb(255,255,255)" stroke="none" d="M 3930,1999 C 3930,2336 3841,2669 3671,2963 3502,3257 3257,3502 2963,3671 2669,3841 2336,3930 1999,3930 1659,3930 1327,3841 1033,3671 739,3502 494,3257 325,2963 155,2669 66,2337 66,1999 66,1660 156,1327 325,1033 495,739 739,494 1033,325 1327,155 1660,66 1999,66 2337,66 2669,155 2963,325 3257,494 3501,739 3671,1033 3840,1327 3930,1660 3930,1999 Z"/>
       </g>
      </g>
      <g class="com.sun.star.drawing.ClosedBezierShape">
       <g id="id4">
        <rect class="BoundingBox" stroke="none" fill="none" x="-1" y="-1" width="3999" height="3999"/>
        <path fill="none" stroke="rgb(0,0,0)" stroke-width="133" stroke-linejoin="round" d="M 3930,1999 C 3930,2337 3841,2669 3671,2963 3502,3257 3257,3502 2963,3671 2669,3841 2336,3930 1999,3930 1659,3930 1327,3840 1033,3671 739,3501 494,3257 325,2963 155,2669 66,2337 66,1999 66,1660 156,1327 325,1033 495,739 739,494 1033,325 1327,155 1660,66 1999,66 2337,66 2669,155 2963,325 3257,494 3501,739 3671,1033 3840,1327 3930,1660 3930,1999 Z"/>
       </g>
      </g>
      <g class="com.sun.star.drawing.PolyPolygonShape">
       <g id="id5">
        <rect class="BoundingBox" stroke="none" fill="none" x="278" y="839" width="1587" height="2299"/>
        <path fill="rgb(0,0,0)" stroke="none" d="M 1137,2228 L 1137,1967 1863,1965 1863,2790 1821,2832 1779,2871 1736,2907 1694,2941 1650,2972 1607,3001 1563,3027 1518,3050 1474,3070 1429,3088 1384,3103 1338,3115 1293,3125 1247,3131 1200,3136 1154,3137 1091,3135 1030,3128 971,3117 913,3102 856,3082 801,3058 747,3030 695,2997 645,2960 598,2919 554,2874 514,2825 476,2773 442,2716 411,2656 383,2591 359,2524 337,2455 319,2384 304,2310 293,2235 285,2158 280,2080 278,1999 280,1918 285,1839 293,1761 304,1685 319,1610 337,1536 358,1464 383,1393 410,1325 441,1262 474,1203 510,1148 549,1098 591,1053 636,1012 684,976 734,944 786,916 839,892 895,873 953,858 1012,848 1073,841 1136,839 1182,840 1227,844 1271,850 1313,859 1355,870 1395,883 1434,899 1472,917 1509,938 1543,960 1576,984 1606,1011 1635,1039 1661,1069 1685,1101 1708,1135 1729,1171 1748,1210 1766,1251 1783,1295 1799,1342 1813,1392 1826,1444 1838,1499 1633,1571 1623,1530 1613,1491 1601,1454 1590,1420 1577,1387 1565,1358 1551,1330 1537,1305 1522,1281 1505,1258 1487,1237 1468,1217 1446,1198 1424,1181 1399,1164 1373,1149 1347,1135 1319,1124 1290,1114 1261,1105 1231,1099 1201,1094 1169,1092 1137,1091 1099,1092 1062,1095 1027,1099 992,1106 959,1115 928,1125 898,1138 868,1152 841,1168 815,1185 790,1204 766,1223 744,1244 723,1266 704,1289 686,1314 669,1339 653,1365 638,1391 624,1419 611,1446 599,1475 588,1504 577,1533 562,1585 549,1639 538,1693 528,1748 521,1805 516,1862 513,1921 512,1980 513,2053 517,2123 523,2190 532,2253 543,2314 556,2372 572,2426 591,2478 612,2526 635,2571 660,2613 688,2652 718,2687 750,2720 784,2749 821,2775 859,2797 897,2817 936,2834 976,2847 1016,2858 1057,2866 1099,2870 1141,2872 1178,2871 1214,2867 1250,2861 1286,2853 1322,2843 1358,2830 1393,2815 1428,2798 1494,2761 1524,2742 1552,2722 1577,2702 1601,2682 1622,2662 1641,2641 1641,2228 1137,2228 Z"/>
       </g>
      </g>
      <g class="com.sun.star.drawing.PolyPolygonShape">
       <g id="id6">
        <rect class="BoundingBox" stroke="none" fill="none" x="2162" y="859" width="1202" height="2223"/>
        <path fill="rgb(0,0,0)" stroke="none" d="M 2163,3081 L 2163,859 3325,859 3325,1121 2375,1121 2375,1802 3265,1802 3265,2063 2375,2063 2375,2819 3363,2819 3363,3081 2163,3081 Z"/>
       </g>
      </g>
     </g>
    </g>
   </g>
  </g>
 </g>
</svg>