<?xml version="1.0" encoding="UTF-8"?>
<!DOCTYPE svg PUBLIC "-//W3C//DTD SVG 1.1//EN" "http://www.w3.org/Graphics/SVG/1.1/DTD/svg11.dtd">
<svg version="1.2" width="40mm" height="40mm" viewBox="0 0 4000 4000" preserveAspectRatio="xMidYMid" fill-rule="evenodd" stroke-width="28.222" stroke-linejoin="round" xmlns="http://www.w3.org/2000/svg" xmlns:ooo="http://xml.openoffice.org/svg/export" xmlns:xlink="http://www.w3.org/1999/xlink" xmlns:presentation="http://sun.com/xmlns/staroffice/presentation" xmlns:smil="http://www.w3.org/2001/SMIL20/" xmlns:anim="urn:oasis:names:tc:opendocument:xmlns:animation:1.0" xml:space="preserve">
 <defs class="ClipPathGroup">
  <clipPath id="presentation_clip_path" clipPathUnits="userSpaceOnUse">
   <rect x="0" y="0" width="4000" height="4000"/>
  </clipPath>
  <clipPath id="presentation_clip_path_shrink" clipPathUnits="userSpaceOnUse">
   <rect x="4" y="4" width="3992" height="3992"/>
  </clipPath>
 </defs>
 <defs class="TextShapeIndex">
  <g ooo:slide="id1" ooo:id-list="id3 id4 id5"/>
 </defs>
 <defs class="EmbeddedBulletChars">
  <g id="bullet-char-template-57356" transform="scale(0.00048828125,-0.00048828125)">
   <path d="M 580,1141 L 1163,571 580,0 -4,571 580,1141 Z"/>
  </g>
  <g id="bullet-char-template-57354" transform="scale(0.00048828125,-0.00048828125)">
   <path d="M 8,1128 L 1137,1128 1137,0 8,0 8,1128 Z"/>
  </g>
  <g id="bullet-char-template-10146" transform="scale(0.00048828125,-0.00048828125)">
   <path d="M 174,0 L 602,739 174,1481 1456,739 174,0 Z M 1358,739 L 309,1346 659,739 1358,739 Z"/>
  </g>
  <g id="bullet-char-template-10132" transform="scale(0.00048828125,-0.00048828125)">
   <path d="M 2015,739 L 1276,0 717,0 1260,543 174,543 174,936 1260,936 717,1481 1274,1481 2015,739 Z"/>
  </g>
  <g id="bullet-char-template-10007" transform="scale(0.00048828125,-0.00048828125)">
   <path d="M 0,-2 C -7,14 -16,27 -25,37 L 356,567 C 262,823 215,952 215,954 215,979 228,992 255,992 264,992 276,990 289,987 310,991 331,999 354,1012 L 381,999 492,748 772,1049 836,1024 860,1049 C 881,1039 901,1025 922,1006 886,937 835,863 770,784 769,783 710,716 594,584 L 774,223 C 774,196 753,168 711,139 L 727,119 C 717,90 699,76 672,76 641,76 570,178 457,381 L 164,-76 C 142,-110 111,-127 72,-127 30,-127 9,-110 8,-76 1,-67 -2,-52 -2,-32 -2,-23 -1,-13 0,-2 Z"/>
  </g>
  <g id="bullet-char-template-10004" transform="scale(0.00048828125,-0.00048828125)">
   <path d="M 285,-33 C 182,-33 111,30 74,156 52,228 41,333 41,471 41,549 55,616 82,672 116,743 169,778 240,778 293,778 328,747 346,684 L 369,508 C 377,444 397,411 428,410 L 1163,1116 C 1174,1127 1196,1133 1229,1133 1271,1133 1292,1118 1292,1087 L 1292,965 C 1292,929 1282,901 1262,881 L 442,47 C 390,-6 338,-33 285,-33 Z"/>
  </g>
  <g id="bullet-char-template-9679" transform="scale(0.00048828125,-0.00048828125)">
   <path d="M 813,0 C 632,0 489,54 383,161 276,268 223,411 223,592 223,773 276,916 383,1023 489,1130 632,1184 813,1184 992,1184 1136,1130 1245,1023 1353,916 1407,772 1407,592 1407,412 1353,268 1245,161 1136,54 992,0 813,0 Z"/>
  </g>
  <g id="bullet-char-template-8226" transform="scale(0.00048828125,-0.00048828125)">
   <path d="M 346,457 C 273,457 209,483 155,535 101,586 74,649 74,723 74,796 101,859 155,911 209,963 273,989 346,989 419,989 480,963 531,910 582,859 608,796 608,723 608,648 583,586 532,535 482,483 420,457 346,457 Z"/>
  </g>
  <g id="bullet-char-template-8211" transform="scale(0.00048828125,-0.00048828125)">
   <path d="M -4,459 L 1135,459 1135,606 -4,606 -4,459 Z"/>
  </g>
  <g id="bullet-char-template-61548" transform="scale(0.00048828125,-0.00048828125)">
   <path d="M 173,740 C 173,903 231,1043 346,1159 462,1274 601,1332 765,1332 928,1332 1067,1274 1183,1159 1299,1043 1357,903 1357,740 1357,577 1299,437 1183,322 1067,206 928,148 765,148 601,148 462,206 346,322 231,437 173,577 173,740 Z"/>
  </g>
 </defs>
 <g>
  <g id="id2" class="Master_Slide">
   <g id="bg-id2" class="Background"/>
   <g id="bo-id2" class="BackgroundObjects"/>
  </g>
 </g>
 <g class="SlideGroup">
  <g>
   <g id="container-id1">
    <g id="id1" class="Slide" clip-path="url(#presentation_clip_path)">
     <g class="Page">
      <g class="com.sun.star.drawing.ClosedBezierShape">
       <g id="id3">
        <rect class="BoundingBox" stroke="none" fill="none" x="65" y="65" width="3867" height="3867"/>
        <path fill="rgb(255,255,255)" stroke="none" d="M 3930,1999 C 3930,2336 3841,2669 3671,2963 3502,3257 3257,3502 2963,3671 2669,3841 2336,3930 1999,3930 1659,3930 1327,3841 1033,3671 739,3502 494,3257 325,2963 155,2669 66,2337 66,1999 66,1660 156,1327 325,1033 495,739 739,494 1033,325 1327,155 1660,66 1999,66 2337,66 2669,155 2963,325 3257,494 3501,739 3671,1033 3840,1327 3930,1660 3930,1999 Z"/>
       </g>
      </g>
      <g class="com.sun.star.drawing.ClosedBezierShape">
       <g id="id4">
        <rect class="BoundingBox" stroke="none" fill="none" x="-1" y="-1" width="3999" height="3999"/>
        <path fill="none" stroke="rgb(0,0,0)" stroke-width="133" stroke-linejoin="round" d="M 3930,1999 C 3930,2337 3841,2669 3671,2963 3502,3257 3257,3502 2963,3671 2669,3841 2336,3930 1999,3930 1659,3930 1327,3840 1033,3671 739,3501 494,3257 325,2963 155,2669 66,2337 66,1999 66,1660 156,1327 325,1033 495,739 739,494 1033,325 1327,155 1660,66 1999,66 2337,66 2669,155 2963,325 3257,494 3501,739 3671,1033 3840,1327 3930,1660 3930,1999 Z"/>
       </g>
      </g>
      <g class="com.sun.star.drawing.PolyPolygonShape">
       <g id="id5">
        <rect class="BoundingBox" stroke="none" fill="none" x="778" y="839" width="2057" height="2299"/>
        <path fill="rgb(0,0,0)" stroke="none" d="M 1892,2228 L 1892,1967 2833,1965 2833,2790 2779,2832 2724,2871 2669,2907 2613,2941 2557,2972 2501,3001 2444,3027 2386,3050 2328,3070 2270,3088 2212,3103 2153,3115 2094,3125 2034,3131 1974,3136 1913,3137 1832,3135 1753,3128 1676,3117 1601,3102 1528,3082 1456,3058 1386,3030 1319,2997 1254,2960 1193,2919 1136,2874 1084,2825 1035,2773 991,2716 951,2656 915,2591 883,2524 855,2455 831,2384 812,2310 797,2235 787,2158 780,2080 778,1999 780,1918 787,1839 797,1761 812,1685 831,1610 855,1536 882,1464 914,1393 950,1325 989,1262 1032,1203 1079,1148 1130,1098 1184,1053 1242,1012 1304,976 1369,944 1436,916 1506,892 1578,873 1653,858 1730,848 1809,841 1891,839 1950,840 2008,844 2065,850 2120,859 2174,870 2226,883 2277,899 2326,917 2374,938 2419,960 2461,984 2500,1011 2537,1039 2571,1069 2603,1101 2632,1135 2659,1171 2684,1210 2707,1251 2729,1295 2749,1342 2768,1392 2785,1444 2800,1499 2535,1571 2522,1530 2508,1491 2494,1454 2479,1420 2463,1387 2446,1358 2429,1330 2411,1305 2391,1281 2369,1258 2346,1237 2320,1217 2293,1198 2263,1181 2232,1164 2198,1149 2163,1135 2127,1124 2091,1114 2053,1105 2014,1099 1974,1094 1934,1092 1892,1091 1843,1092 1795,1095 1749,1099 1704,1106 1662,1115 1621,1125 1581,1138 1544,1152 1508,1168 1474,1185 1441,1204 1411,1223 1382,1244 1355,1266 1330,1289 1306,1314 1284,1339 1264,1365 1244,1391 1226,1419 1209,1446 1194,1475 1179,1504 1166,1533 1146,1585 1129,1639 1114,1693 1103,1748 1093,1805 1087,1862 1083,1921 1081,1980 1083,2053 1088,2123 1096,2190 1107,2253 1121,2314 1139,2372 1160,2426 1184,2478 1211,2526 1241,2571 1273,2613 1309,2652 1348,2687 1390,2720 1434,2749 1481,2775 1531,2797 1581,2817 1631,2834 1683,2847 1735,2858 1788,2866 1842,2870 1897,2872 1944,2871 1992,2867 2039,2861 2085,2853 2132,2843 2178,2830 2224,2815 2270,2798 2355,2761 2394,2742 2429,2722 2463,2702 2493,2682 2521,2662 2545,2641 2545,2228 1892,2228 Z"/>
       </g>
      </g>
     </g>
    </g>
   </g>
  </g>
 </g>
</svg>