<?xml version="1.0" encoding="UTF-8" standalone="no"?>
<!DOCTYPE svg PUBLIC "-//W3C//DTD SVG 1.1//EN" "http://www.w3.org/Graphics/SVG/1.1/DTD/svg11.dtd">
<svg width="100%" height="100%" viewBox="0 0 20 20" version="1.1" xmlns="http://www.w3.org/2000/svg" xmlns:xlink="http://www.w3.org/1999/xlink" xml:space="preserve" xmlns:serif="http://www.serif.com/" style="fill-rule:evenodd;clip-rule:evenodd;stroke-linecap:round;stroke-linejoin:round;stroke-miterlimit:10;">
    <g transform="matrix(0.285714,0,0,0.285714,0,0)">
        <path d="M2.883,34.579C2.883,17.008 17.175,2.921 34.621,2.921C52.063,2.921 66.35,17.008 66.35,34.579C66.35,51.975 52.063,66.242 34.621,66.242C17.175,66.242 2.883,51.975 2.883,34.579" style="fill:white;stroke:black;stroke-width:2.75px;"/>
    </g>
    <g transform="matrix(0.285714,0,0,0.285714,0,0)">
        <path d="M17.765,34.819C17.765,31.849 18.562,29.523 20.157,27.843C21.752,26.162 23.811,25.322 26.334,25.322C27.986,25.322 29.475,25.717 30.802,26.506C32.128,27.296 33.14,28.396 33.835,29.808C34.531,31.22 34.879,32.821 34.879,34.612C34.879,36.427 34.513,38.05 33.78,39.482C33.048,40.915 32.01,41.999 30.668,42.736C29.325,43.472 27.876,43.84 26.322,43.84C24.637,43.84 23.132,43.433 21.805,42.62C20.479,41.806 19.474,40.695 18.79,39.287C18.107,37.879 17.765,36.39 17.765,34.819ZM20.206,34.856C20.206,37.012 20.786,38.711 21.946,39.952C23.105,41.193 24.56,41.814 26.31,41.814C28.092,41.814 29.559,41.187 30.71,39.934C31.862,38.681 32.438,36.903 32.438,34.6C32.438,33.143 32.192,31.871 31.699,30.785C31.207,29.698 30.487,28.856 29.539,28.258C28.59,27.66 27.526,27.361 26.346,27.361C24.67,27.361 23.228,27.937 22.019,29.088C20.811,30.24 20.206,32.162 20.206,34.856Z" style="fill-rule:nonzero;"/>
    </g>
    <g transform="matrix(0.285714,0,0,0.285714,0,0)">
        <path d="M37.833,43.535L37.833,25.64L40.201,25.64L40.201,34.514L49.088,25.64L52.299,25.64L44.791,32.891L52.628,43.535L49.503,43.535L43.131,34.477L40.201,37.334L40.201,43.535L37.833,43.535Z" style="fill-rule:nonzero;"/>
    </g>
</svg>
