<?xml version="1.0" encoding="UTF-8" standalone="no"?>
<!DOCTYPE svg PUBLIC "-//W3C//DTD SVG 1.1//EN" "http://www.w3.org/Graphics/SVG/1.1/DTD/svg11.dtd">
<svg width="100%" height="100%" viewBox="0 0 20 20" version="1.1" xmlns="http://www.w3.org/2000/svg" xmlns:xlink="http://www.w3.org/1999/xlink" xml:space="preserve" xmlns:serif="http://www.serif.com/" style="fill-rule:evenodd;clip-rule:evenodd;stroke-linejoin:round;stroke-miterlimit:2;">
    <g transform="matrix(0.285714,0,0,0.285714,0,0)">
        <path d="M17.698,43.535L17.698,25.64L24.412,25.64C25.779,25.64 26.875,25.821 27.701,26.183C28.527,26.545 29.174,27.102 29.642,27.855C30.11,28.608 30.344,29.395 30.344,30.217C30.344,30.982 30.137,31.702 29.722,32.378C29.307,33.053 28.68,33.599 27.842,34.014C28.924,34.331 29.756,34.872 30.338,35.637C30.92,36.402 31.211,37.305 31.211,38.347C31.211,39.185 31.034,39.965 30.68,40.685C30.326,41.405 29.888,41.96 29.368,42.351C28.847,42.742 28.194,43.037 27.408,43.236C26.623,43.435 25.661,43.535 24.521,43.535L17.698,43.535ZM20.066,33.159L23.936,33.159C24.985,33.159 25.738,33.09 26.194,32.952C26.796,32.773 27.25,32.476 27.555,32.06C27.86,31.645 28.013,31.125 28.013,30.498C28.013,29.904 27.87,29.381 27.585,28.929C27.301,28.478 26.894,28.168 26.365,28.002C25.836,27.835 24.928,27.751 23.643,27.751L20.066,27.751L20.066,33.159ZM20.066,41.423L24.521,41.423C25.286,41.423 25.824,41.395 26.133,41.338C26.678,41.24 27.134,41.077 27.5,40.85C27.866,40.622 28.167,40.29 28.403,39.855C28.639,39.419 28.757,38.917 28.757,38.347C28.757,37.68 28.586,37.1 28.245,36.608C27.903,36.115 27.429,35.769 26.822,35.57C26.216,35.371 25.343,35.271 24.204,35.271L20.066,35.271L20.066,41.423Z" style="fill-rule:nonzero;"/>
    </g>
    <g transform="matrix(0.285714,0,0,0.285714,0,0)">
        <path d="M34.397,43.535L34.397,25.64L37.961,25.64L42.197,38.31C42.588,39.491 42.873,40.373 43.052,40.959C43.255,40.308 43.573,39.352 44.004,38.091L48.289,25.64L51.475,25.64L51.475,43.535L49.192,43.535L49.192,28.557L43.992,43.535L41.855,43.535L36.68,28.301L36.68,43.535L34.397,43.535Z" style="fill-rule:nonzero;"/>
    </g>
</svg>
