<?xml version="1.0" encoding="UTF-8" standalone="no"?>
<!DOCTYPE svg PUBLIC "-//W3C//DTD SVG 1.1//EN" "http://www.w3.org/Graphics/SVG/1.1/DTD/svg11.dtd">
<svg width="100%" height="100%" viewBox="0 0 20 20" version="1.1" xmlns="http://www.w3.org/2000/svg" xmlns:xlink="http://www.w3.org/1999/xlink" xml:space="preserve" xmlns:serif="http://www.serif.com/" style="fill-rule:evenodd;clip-rule:evenodd;stroke-linejoin:round;stroke-miterlimit:2;">
    <g transform="matrix(0.285714,0,0,0.285714,0,0)">
        <path d="M22.904,43.535L15.97,25.64L18.534,25.64L23.185,38.64C23.559,39.682 23.872,40.658 24.125,41.57C24.401,40.593 24.723,39.617 25.089,38.64L29.923,25.64L32.34,25.64L25.333,43.535L22.904,43.535Z" style="fill-rule:nonzero;"/>
    </g>
    <g transform="matrix(0.285714,0,0,0.285714,0,0)">
        <rect x="34.867" y="25.64" width="2.368" height="17.896"/>
    </g>
    <g transform="matrix(0.285714,0,0,0.285714,0,0)">
        <rect x="41.813" y="25.64" width="2.368" height="17.896"/>
    </g>
    <g transform="matrix(0.285714,0,0,0.285714,0,0)">
        <rect x="48.759" y="25.64" width="2.368" height="17.896"/>
    </g>
</svg>
