<?xml version="1.0" encoding="UTF-8" standalone="no"?>
<!DOCTYPE svg PUBLIC "-//W3C//DTD SVG 1.1//EN" "http://www.w3.org/Graphics/SVG/1.1/DTD/svg11.dtd">
<svg width="100%" height="100%" viewBox="0 0 20 20" version="1.1" xmlns="http://www.w3.org/2000/svg" xmlns:xlink="http://www.w3.org/1999/xlink" xml:space="preserve" xmlns:serif="http://www.serif.com/" style="fill-rule:evenodd;clip-rule:evenodd;stroke-linejoin:round;stroke-miterlimit:2;">
    <g transform="matrix(0.285714,0,0,0.285714,0,0)">
        <path d="M26.169,36.516L26.169,34.416L33.75,34.404L33.75,41.045C32.586,41.973 31.386,42.67 30.149,43.138C28.912,43.606 27.642,43.84 26.34,43.84C24.582,43.84 22.985,43.464 21.549,42.711C20.113,41.958 19.028,40.87 18.296,39.446C17.563,38.022 17.197,36.431 17.197,34.673C17.197,32.931 17.561,31.306 18.29,29.796C19.018,28.286 20.066,27.165 21.433,26.433C22.8,25.701 24.375,25.334 26.157,25.334C27.451,25.334 28.621,25.544 29.667,25.963C30.712,26.382 31.532,26.966 32.126,27.715C32.721,28.463 33.172,29.44 33.481,30.644L31.345,31.23C31.077,30.319 30.743,29.603 30.344,29.082C29.945,28.561 29.376,28.144 28.635,27.831C27.895,27.517 27.073,27.361 26.169,27.361C25.087,27.361 24.151,27.526 23.362,27.855C22.572,28.185 21.936,28.618 21.451,29.155C20.967,29.692 20.591,30.282 20.322,30.925C19.867,32.032 19.639,33.232 19.639,34.526C19.639,36.121 19.913,37.456 20.463,38.53C21.012,39.604 21.811,40.402 22.861,40.923C23.911,41.444 25.026,41.704 26.206,41.704C27.231,41.704 28.232,41.507 29.209,41.112C30.186,40.717 30.926,40.296 31.431,39.849L31.431,36.516L26.169,36.516Z" style="fill-rule:nonzero;"/>
    </g>
    <g transform="matrix(0.285714,0,0,0.285714,0,0)">
        <path d="M37.278,43.535L37.278,25.64L45.212,25.64C46.807,25.64 48.02,25.8 48.85,26.122C49.68,26.443 50.343,27.011 50.84,27.825C51.336,28.638 51.584,29.538 51.584,30.522C51.584,31.792 51.173,32.862 50.352,33.733C49.53,34.604 48.26,35.157 46.543,35.393C47.17,35.694 47.646,35.991 47.971,36.284C48.663,36.919 49.318,37.712 49.936,38.665L53.049,43.535L50.071,43.535L47.703,39.812C47.011,38.738 46.441,37.916 45.994,37.346C45.546,36.776 45.145,36.378 44.791,36.15C44.437,35.922 44.077,35.763 43.711,35.674C43.442,35.617 43.003,35.588 42.393,35.588L39.646,35.588L39.646,43.535L37.278,43.535ZM39.646,33.538L44.736,33.538C45.819,33.538 46.665,33.426 47.275,33.202C47.886,32.978 48.35,32.62 48.667,32.128C48.984,31.635 49.143,31.1 49.143,30.522C49.143,29.676 48.836,28.98 48.221,28.435C47.607,27.89 46.637,27.617 45.31,27.617L39.646,27.617L39.646,33.538Z" style="fill-rule:nonzero;"/>
    </g>
</svg>
