<?xml version="1.0" encoding="UTF-8" standalone="no"?>
<!DOCTYPE svg PUBLIC "-//W3C//DTD SVG 1.1//EN" "http://www.w3.org/Graphics/SVG/1.1/DTD/svg11.dtd">
<svg width="100%" height="100%" viewBox="0 0 20 20" version="1.1" xmlns="http://www.w3.org/2000/svg" xmlns:xlink="http://www.w3.org/1999/xlink" xml:space="preserve" xmlns:serif="http://www.serif.com/" style="fill-rule:evenodd;clip-rule:evenodd;stroke-linecap:round;stroke-linejoin:round;stroke-miterlimit:10;">
    <g transform="matrix(0.285714,0,0,0.285714,0,0)">
        <path d="M2.883,34.579C2.883,17.008 17.175,2.921 34.621,2.921C52.063,2.921 66.35,17.008 66.35,34.579C66.35,51.975 52.063,66.242 34.621,66.242C17.175,66.242 2.883,51.975 2.883,34.579" style="fill:white;stroke:black;stroke-width:2.75px;"/>
    </g>
    <g transform="matrix(0.285714,0,0,0.285714,0,0)">
        <path d="M26.389,43.535L33.311,34.209L27.207,25.64L30.027,25.64L33.274,30.229C33.949,31.182 34.429,31.914 34.714,32.427C35.113,31.776 35.585,31.096 36.13,30.388L39.731,25.64L42.307,25.64L36.02,34.075L42.795,43.535L39.866,43.535L35.361,37.151C35.109,36.785 34.849,36.386 34.58,35.955C34.181,36.606 33.896,37.053 33.726,37.297L29.233,43.535L26.389,43.535Z" style="fill-rule:nonzero;"/>
    </g>
</svg>
