<?xml version="1.0" encoding="UTF-8" standalone="no"?>
<!DOCTYPE svg PUBLIC "-//W3C//DTD SVG 1.1//EN" "http://www.w3.org/Graphics/SVG/1.1/DTD/svg11.dtd">
<svg width="100%" height="100%" viewBox="0 0 20 20" version="1.1" xmlns="http://www.w3.org/2000/svg" xmlns:xlink="http://www.w3.org/1999/xlink" xml:space="preserve" xmlns:serif="http://www.serif.com/" style="fill-rule:evenodd;clip-rule:evenodd;stroke-linejoin:round;stroke-miterlimit:2;">
    <g transform="matrix(0.285714,0,0,0.285714,0,0)">
        <path d="M10.062,43.535L10.062,25.64L16.776,25.64C18.143,25.64 19.24,25.821 20.066,26.183C20.892,26.545 21.539,27.102 22.007,27.855C22.475,28.608 22.709,29.395 22.709,30.217C22.709,30.982 22.501,31.702 22.086,32.378C21.671,33.053 21.044,33.599 20.206,34.014C21.289,34.331 22.121,34.872 22.703,35.637C23.284,36.402 23.575,37.305 23.575,38.347C23.575,39.185 23.398,39.965 23.044,40.685C22.69,41.405 22.253,41.96 21.732,42.351C21.211,42.742 20.558,43.037 19.773,43.236C18.988,43.435 18.025,43.535 16.886,43.535L10.062,43.535ZM12.43,33.159L16.3,33.159C17.35,33.159 18.103,33.09 18.558,32.952C19.161,32.773 19.614,32.476 19.919,32.06C20.225,31.645 20.377,31.125 20.377,30.498C20.377,29.904 20.235,29.381 19.95,28.929C19.665,28.478 19.258,28.168 18.729,28.002C18.2,27.835 17.293,27.751 16.007,27.751L12.43,27.751L12.43,33.159ZM12.43,41.423L16.886,41.423C17.651,41.423 18.188,41.395 18.497,41.338C19.043,41.24 19.498,41.077 19.864,40.85C20.231,40.622 20.532,40.29 20.768,39.855C21.004,39.419 21.122,38.917 21.122,38.347C21.122,37.68 20.951,37.1 20.609,36.608C20.267,36.115 19.793,35.769 19.187,35.57C18.581,35.371 17.708,35.271 16.569,35.271L12.43,35.271L12.43,41.423Z" style="fill-rule:nonzero;"/>
    </g>
    <g transform="matrix(0.285714,0,0,0.285714,0,0)">
        <path d="M26.761,43.535L26.761,25.64L30.326,25.64L34.562,38.31C34.952,39.491 35.237,40.373 35.416,40.959C35.62,40.308 35.937,39.352 36.368,38.091L40.653,25.64L43.839,25.64L43.839,43.535L41.556,43.535L41.556,28.557L36.356,43.535L34.22,43.535L29.044,28.301L29.044,43.535L26.761,43.535Z" style="fill-rule:nonzero;"/>
    </g>
    <g transform="matrix(0.285714,0,0,0.285714,0,0)">
        <path d="M46.232,43.535L46.232,41.338L55.399,29.875C56.05,29.062 56.669,28.354 57.255,27.751L47.269,27.751L47.269,25.64L60.087,25.64L60.087,27.751L50.04,40.166L48.954,41.423L60.38,41.423L60.38,43.535L46.232,43.535Z" style="fill-rule:nonzero;"/>
    </g>
</svg>
