<?xml version="1.0" encoding="UTF-8" standalone="no"?>
<!DOCTYPE svg PUBLIC "-//W3C//DTD SVG 1.1//EN" "http://www.w3.org/Graphics/SVG/1.1/DTD/svg11.dtd">
<svg width="100%" height="100%" viewBox="0 0 20 20" version="1.1" xmlns="http://www.w3.org/2000/svg" xmlns:xlink="http://www.w3.org/1999/xlink" xml:space="preserve" xmlns:serif="http://www.serif.com/" style="fill-rule:evenodd;clip-rule:evenodd;stroke-linejoin:round;stroke-miterlimit:2;">
    <g transform="matrix(0.285714,0,0,0.285714,0,0)">
        <path d="M22.312,43.535L20.273,43.535L20.273,25.64L22.471,25.64L22.471,32.024C23.398,30.86 24.582,30.278 26.023,30.278C26.82,30.278 27.575,30.439 28.287,30.76C28.999,31.082 29.585,31.534 30.045,32.115C30.505,32.697 30.865,33.399 31.125,34.221C31.386,35.043 31.516,35.922 31.516,36.858C31.516,39.08 30.967,40.797 29.868,42.009C28.769,43.222 27.451,43.828 25.913,43.828C24.383,43.828 23.183,43.189 22.312,41.912L22.312,43.535ZM22.288,36.956C22.288,38.51 22.499,39.633 22.922,40.325C23.614,41.456 24.55,42.021 25.73,42.021C26.69,42.021 27.52,41.604 28.22,40.77C28.92,39.936 29.27,38.693 29.27,37.041C29.27,35.348 28.934,34.099 28.263,33.293C27.592,32.488 26.78,32.085 25.828,32.085C24.867,32.085 24.037,32.502 23.337,33.336C22.638,34.17 22.288,35.377 22.288,36.956Z" style="fill-rule:nonzero;"/>
    </g>
    <g transform="matrix(0.285714,0,0,0.285714,0,0)">
        <path d="M34.202,28.166L34.202,25.64L36.399,25.64L36.399,28.166L34.202,28.166ZM34.202,43.535L34.202,30.571L36.399,30.571L36.399,43.535L34.202,43.535Z" style="fill-rule:nonzero;"/>
    </g>
    <g transform="matrix(0.285714,0,0,0.285714,0,0)">
        <path d="M38.865,39.665L41.038,39.324C41.16,40.194 41.499,40.862 42.057,41.326C42.614,41.79 43.394,42.021 44.394,42.021C45.404,42.021 46.152,41.816 46.641,41.405C47.129,40.994 47.373,40.512 47.373,39.958C47.373,39.462 47.157,39.071 46.726,38.787C46.425,38.591 45.676,38.343 44.48,38.042C42.869,37.635 41.752,37.283 41.129,36.986C40.507,36.689 40.035,36.278 39.713,35.753C39.392,35.228 39.231,34.648 39.231,34.014C39.231,33.436 39.363,32.901 39.628,32.408C39.892,31.916 40.252,31.507 40.708,31.182C41.05,30.929 41.516,30.716 42.106,30.541C42.696,30.366 43.328,30.278 44.004,30.278C45.021,30.278 45.914,30.425 46.683,30.718C47.452,31.011 48.02,31.407 48.386,31.908C48.752,32.408 49.005,33.078 49.143,33.916L46.995,34.209C46.897,33.542 46.614,33.021 46.146,32.646C45.678,32.272 45.017,32.085 44.163,32.085C43.153,32.085 42.433,32.252 42.002,32.585C41.571,32.919 41.355,33.31 41.355,33.757C41.355,34.042 41.444,34.298 41.624,34.526C41.803,34.762 42.083,34.958 42.466,35.112C42.686,35.194 43.332,35.381 44.407,35.674C45.961,36.089 47.045,36.429 47.66,36.693C48.274,36.958 48.756,37.342 49.106,37.847C49.456,38.351 49.631,38.978 49.631,39.727C49.631,40.459 49.418,41.149 48.99,41.796C48.563,42.443 47.947,42.943 47.141,43.297C46.335,43.651 45.424,43.828 44.407,43.828C42.722,43.828 41.438,43.478 40.555,42.778C39.672,42.078 39.109,41.041 38.865,39.665Z" style="fill-rule:nonzero;"/>
    </g>
</svg>
