<?xml version="1.0" encoding="UTF-8" standalone="no"?>
<!DOCTYPE svg PUBLIC "-//W3C//DTD SVG 1.1//EN" "http://www.w3.org/Graphics/SVG/1.1/DTD/svg11.dtd">
<svg width="100%" height="100%" viewBox="0 0 20 20" version="1.1" xmlns="http://www.w3.org/2000/svg" xmlns:xlink="http://www.w3.org/1999/xlink" xml:space="preserve" xmlns:serif="http://www.serif.com/" style="fill-rule:evenodd;clip-rule:evenodd;stroke-linejoin:round;stroke-miterlimit:2;">
    <g transform="matrix(0.285714,0,0,0.285714,0,0)">
        <path d="M27.561,36.516L27.561,34.416L35.142,34.404L35.142,41.045C33.978,41.973 32.777,42.67 31.54,43.138C30.304,43.606 29.034,43.84 27.732,43.84C25.974,43.84 24.377,43.464 22.941,42.711C21.504,41.958 20.42,40.87 19.687,39.446C18.955,38.022 18.589,36.431 18.589,34.673C18.589,32.931 18.953,31.306 19.681,29.796C20.41,28.286 21.457,27.165 22.825,26.433C24.192,25.701 25.767,25.334 27.549,25.334C28.843,25.334 30.013,25.544 31.058,25.963C32.104,26.382 32.924,26.966 33.518,27.715C34.112,28.463 34.564,29.44 34.873,30.644L32.737,31.23C32.468,30.319 32.135,29.603 31.736,29.082C31.337,28.561 30.767,28.144 30.027,27.831C29.286,27.517 28.464,27.361 27.561,27.361C26.479,27.361 25.543,27.526 24.753,27.855C23.964,28.185 23.327,28.618 22.843,29.155C22.359,29.692 21.982,30.282 21.714,30.925C21.258,32.032 21.03,33.232 21.03,34.526C21.03,36.121 21.305,37.456 21.854,38.53C22.404,39.604 23.203,40.402 24.253,40.923C25.303,41.444 26.418,41.704 27.598,41.704C28.623,41.704 29.624,41.507 30.601,41.112C31.577,40.717 32.318,40.296 32.822,39.849L32.822,36.516L27.561,36.516Z" style="fill-rule:nonzero;"/>
    </g>
    <g transform="matrix(0.285714,0,0,0.285714,0,0)">
        <path d="M38.755,43.535L38.755,25.64L50.828,25.64L50.828,27.751L41.123,27.751L41.123,33.293L49.521,33.293L49.521,35.405L41.123,35.405L41.123,43.535L38.755,43.535Z" style="fill-rule:nonzero;"/>
    </g>
</svg>
