<?xml version="1.0" encoding="UTF-8" standalone="no"?>
<!DOCTYPE svg PUBLIC "-//W3C//DTD SVG 1.1//EN" "http://www.w3.org/Graphics/SVG/1.1/DTD/svg11.dtd">
<svg width="100%" height="100%" viewBox="0 0 20 20" version="1.1" xmlns="http://www.w3.org/2000/svg" xmlns:xlink="http://www.w3.org/1999/xlink" xml:space="preserve" xmlns:serif="http://www.serif.com/" style="fill-rule:evenodd;clip-rule:evenodd;stroke-linejoin:round;stroke-miterlimit:2;">
    <g transform="matrix(0.285714,0,0,0.285714,0,0)">
        <path d="M18.534,36.516L18.534,34.416L26.114,34.404L26.114,41.045C24.951,41.973 23.75,42.67 22.513,43.138C21.276,43.606 20.007,43.84 18.705,43.84C16.947,43.84 15.35,43.464 13.914,42.711C12.477,41.958 11.393,40.87 10.66,39.446C9.928,38.022 9.562,36.431 9.562,34.673C9.562,32.931 9.926,31.306 10.654,29.796C11.383,28.286 12.43,27.165 13.798,26.433C15.165,25.701 16.739,25.334 18.522,25.334C19.816,25.334 20.985,25.544 22.031,25.963C23.077,26.382 23.897,26.966 24.491,27.715C25.085,28.463 25.537,29.44 25.846,30.644L23.71,31.23C23.441,30.319 23.107,29.603 22.709,29.082C22.31,28.561 21.74,28.144 21,27.831C20.259,27.517 19.437,27.361 18.534,27.361C17.452,27.361 16.516,27.526 15.726,27.855C14.937,28.185 14.3,28.618 13.816,29.155C13.332,29.692 12.955,30.282 12.687,30.925C12.231,32.032 12.003,33.232 12.003,34.526C12.003,36.121 12.278,37.456 12.827,38.53C13.376,39.604 14.176,40.402 15.226,40.923C16.276,41.444 17.391,41.704 18.571,41.704C19.596,41.704 20.597,41.507 21.573,41.112C22.55,40.717 23.291,40.296 23.795,39.849L23.795,36.516L18.534,36.516Z" style="fill-rule:nonzero;"/>
    </g>
    <g transform="matrix(0.285714,0,0,0.285714,0,0)">
        <path d="M29.642,43.535L29.642,25.64L37.577,25.64C39.172,25.64 40.384,25.8 41.215,26.122C42.045,26.443 42.708,27.011 43.204,27.825C43.701,28.638 43.949,29.538 43.949,30.522C43.949,31.792 43.538,32.862 42.716,33.733C41.894,34.604 40.625,35.157 38.907,35.393C39.534,35.694 40.01,35.991 40.336,36.284C41.027,36.919 41.683,37.712 42.301,38.665L45.414,43.535L42.435,43.535L40.067,39.812C39.375,38.738 38.806,37.916 38.358,37.346C37.911,36.776 37.51,36.378 37.156,36.15C36.802,35.922 36.442,35.763 36.075,35.674C35.807,35.617 35.367,35.588 34.757,35.588L32.01,35.588L32.01,43.535L29.642,43.535ZM32.01,33.538L37.101,33.538C38.183,33.538 39.03,33.426 39.64,33.202C40.25,32.978 40.714,32.62 41.031,32.128C41.349,31.635 41.508,31.1 41.508,30.522C41.508,29.676 41.2,28.98 40.586,28.435C39.971,27.89 39.001,27.617 37.675,27.617L32.01,27.617L32.01,33.538Z" style="fill-rule:nonzero;"/>
    </g>
    <g transform="matrix(0.285714,0,0,0.285714,0,0)">
        <path d="M46.232,43.535L46.232,41.338L55.399,29.875C56.05,29.062 56.669,28.354 57.255,27.751L47.269,27.751L47.269,25.64L60.087,25.64L60.087,27.751L50.04,40.166L48.954,41.423L60.38,41.423L60.38,43.535L46.232,43.535Z" style="fill-rule:nonzero;"/>
    </g>
</svg>
