<?xml version="1.0" encoding="UTF-8"?>
<!DOCTYPE svg PUBLIC "-//W3C//DTD SVG 1.1//EN" "http://www.w3.org/Graphics/SVG/1.1/DTD/svg11.dtd">
<svg version="1.2" width="40mm" height="40mm" viewBox="0 0 4000 4000" preserveAspectRatio="xMidYMid" fill-rule="evenodd" stroke-width="28.222" stroke-linejoin="round" xmlns="http://www.w3.org/2000/svg" xmlns:ooo="http://xml.openoffice.org/svg/export" xmlns:xlink="http://www.w3.org/1999/xlink" xmlns:presentation="http://sun.com/xmlns/staroffice/presentation" xmlns:smil="http://www.w3.org/2001/SMIL20/" xmlns:anim="urn:oasis:names:tc:opendocument:xmlns:animation:1.0" xml:space="preserve">
 <defs class="ClipPathGroup">
  <clipPath id="presentation_clip_path" clipPathUnits="userSpaceOnUse">
   <rect x="0" y="0" width="4000" height="4000"/>
  </clipPath>
  <clipPath id="presentation_clip_path_shrink" clipPathUnits="userSpaceOnUse">
   <rect x="4" y="4" width="3992" height="3992"/>
  </clipPath>
 </defs>
 <defs class="TextShapeIndex">
  <g ooo:slide="id1" ooo:id-list="id3 id4 id5"/>
 </defs>
 <defs class="EmbeddedBulletChars">
  <g id="bullet-char-template-57356" transform="scale(0.00048828125,-0.00048828125)">
   <path d="M 580,1141 L 1163,571 580,0 -4,571 580,1141 Z"/>
  </g>
  <g id="bullet-char-template-57354" transform="scale(0.00048828125,-0.00048828125)">
   <path d="M 8,1128 L 1137,1128 1137,0 8,0 8,1128 Z"/>
  </g>
  <g id="bullet-char-template-10146" transform="scale(0.00048828125,-0.00048828125)">
   <path d="M 174,0 L 602,739 174,1481 1456,739 174,0 Z M 1358,739 L 309,1346 659,739 1358,739 Z"/>
  </g>
  <g id="bullet-char-template-10132" transform="scale(0.00048828125,-0.00048828125)">
   <path d="M 2015,739 L 1276,0 717,0 1260,543 174,543 174,936 1260,936 717,1481 1274,1481 2015,739 Z"/>
  </g>
  <g id="bullet-char-template-10007" transform="scale(0.00048828125,-0.00048828125)">
   <path d="M 0,-2 C -7,14 -16,27 -25,37 L 356,567 C 262,823 215,952 215,954 215,979 228,992 255,992 264,992 276,990 289,987 310,991 331,999 354,1012 L 381,999 492,748 772,1049 836,1024 860,1049 C 881,1039 901,1025 922,1006 886,937 835,863 770,784 769,783 710,716 594,584 L 774,223 C 774,196 753,168 711,139 L 727,119 C 717,90 699,76 672,76 641,76 570,178 457,381 L 164,-76 C 142,-110 111,-127 72,-127 30,-127 9,-110 8,-76 1,-67 -2,-52 -2,-32 -2,-23 -1,-13 0,-2 Z"/>
  </g>
  <g id="bullet-char-template-10004" transform="scale(0.00048828125,-0.00048828125)">
   <path d="M 285,-33 C 182,-33 111,30 74,156 52,228 41,333 41,471 41,549 55,616 82,672 116,743 169,778 240,778 293,778 328,747 346,684 L 369,508 C 377,444 397,411 428,410 L 1163,1116 C 1174,1127 1196,1133 1229,1133 1271,1133 1292,1118 1292,1087 L 1292,965 C 1292,929 1282,901 1262,881 L 442,47 C 390,-6 338,-33 285,-33 Z"/>
  </g>
  <g id="bullet-char-template-9679" transform="scale(0.00048828125,-0.00048828125)">
   <path d="M 813,0 C 632,0 489,54 383,161 276,268 223,411 223,592 223,773 276,916 383,1023 489,1130 632,1184 813,1184 992,1184 1136,1130 1245,1023 1353,916 1407,772 1407,592 1407,412 1353,268 1245,161 1136,54 992,0 813,0 Z"/>
  </g>
  <g id="bullet-char-template-8226" transform="scale(0.00048828125,-0.00048828125)">
   <path d="M 346,457 C 273,457 209,483 155,535 101,586 74,649 74,723 74,796 101,859 155,911 209,963 273,989 346,989 419,989 480,963 531,910 582,859 608,796 608,723 608,648 583,586 532,535 482,483 420,457 346,457 Z"/>
  </g>
  <g id="bullet-char-template-8211" transform="scale(0.00048828125,-0.00048828125)">
   <path d="M -4,459 L 1135,459 1135,606 -4,606 -4,459 Z"/>
  </g>
  <g id="bullet-char-template-61548" transform="scale(0.00048828125,-0.00048828125)">
   <path d="M 173,740 C 173,903 231,1043 346,1159 462,1274 601,1332 765,1332 928,1332 1067,1274 1183,1159 1299,1043 1357,903 1357,740 1357,577 1299,437 1183,322 1067,206 928,148 765,148 601,148 462,206 346,322 231,437 173,577 173,740 Z"/>
  </g>
 </defs>
 <g>
  <g id="id2" class="Master_Slide">
   <g id="bg-id2" class="Background"/>
   <g id="bo-id2" class="BackgroundObjects"/>
  </g>
 </g>
 <g class="SlideGroup">
  <g>
   <g id="container-id1">
    <g id="id1" class="Slide" clip-path="url(#presentation_clip_path)">
     <g class="Page">
      <g class="Graphic">
       <g id="id3">
        <rect class="BoundingBox" stroke="none" fill="none" x="0" y="0" width="4000" height="4000"/>
        <defs>
         <clipPath id="clip_path_1" clipPathUnits="userSpaceOnUse">
          <path d="M 0,0 L 3999,0 3999,3999 0,3999 0,0 Z"/>
         </clipPath>
        </defs>
        <g clip-path="url(#clip_path_1)">
         <path fill="rgb(255,255,255)" stroke="none" d="M 3929,1999 C 3929,2335 3840,2668 3670,2962 3501,3256 3256,3501 2962,3670 2668,3840 2335,3929 1999,3929 1659,3929 1327,3840 1033,3670 739,3501 494,3256 325,2962 155,2668 66,2336 66,1999 66,1660 156,1327 325,1033 495,739 739,494 1033,325 1327,155 1660,66 1999,66 2336,66 2668,155 2962,325 3256,494 3500,739 3670,1033 3839,1327 3929,1660 3929,1999 L 3929,1999 Z"/>
         <path fill="none" stroke="rgb(0,0,0)" stroke-width="133" stroke-linejoin="round" d="M 3929,1999 C 3929,2336 3840,2668 3670,2962 3501,3256 3256,3501 2962,3670 2668,3840 2335,3929 1999,3929 1659,3929 1327,3839 1033,3670 739,3500 494,3256 325,2962 155,2668 66,2336 66,1999 66,1660 156,1327 325,1033 495,739 739,494 1033,325 1327,155 1660,66 1999,66 2336,66 2668,155 2962,325 3256,494 3500,739 3670,1033 3839,1327 3929,1660 3929,1999 Z"/>
         <path fill="rgb(0,0,0)" stroke="none" d="M 751,1428 L 921,1413 925,1438 929,1462 935,1485 941,1506 949,1527 957,1546 967,1564 977,1581 989,1597 1002,1612 1017,1627 1034,1641 1052,1654 1071,1666 1092,1677 1114,1687 1138,1697 1162,1705 1187,1712 1213,1718 1240,1722 1267,1725 1295,1727 1324,1728 1349,1728 1374,1726 1398,1724 1421,1720 1443,1716 1465,1711 1486,1704 1506,1697 1525,1689 1543,1680 1559,1671 1575,1661 1589,1650 1602,1638 1613,1626 1623,1613 1632,1599 1640,1585 1647,1571 1652,1557 1657,1542 1660,1527 1661,1512 1662,1496 1661,1480 1660,1465 1657,1450 1653,1436 1647,1422 1641,1409 1634,1396 1625,1384 1615,1372 1603,1361 1590,1350 1575,1340 1559,1330 1542,1320 1523,1312 1502,1303 1486,1297 1466,1291 1414,1276 1259,1237 1172,1214 1099,1193 1068,1182 1040,1172 1016,1161 996,1151 972,1138 950,1124 929,1109 910,1094 893,1078 877,1061 863,1043 850,1024 839,1005 829,985 821,965 814,944 809,922 805,900 803,877 802,854 803,829 806,803 810,779 817,754 825,730 835,707 847,684 861,661 876,639 893,619 912,600 933,582 955,566 979,551 1005,537 1032,525 1060,514 1090,504 1120,496 1151,490 1182,485 1215,481 1248,479 1282,478 1320,479 1356,481 1391,485 1425,490 1458,497 1490,505 1520,515 1550,527 1578,540 1604,554 1629,570 1652,587 1674,606 1693,626 1712,647 1728,670 1743,694 1756,719 1767,745 1776,771 1783,799 1789,827 1793,855 1795,885 1622,898 1617,867 1611,837 1602,810 1591,785 1585,773 1579,761 1571,750 1564,740 1555,730 1547,720 1537,711 1528,703 1517,695 1506,687 1495,681 1482,674 1456,663 1428,653 1397,646 1364,641 1328,638 1290,637 1250,638 1213,641 1179,645 1148,652 1120,660 1094,671 1082,677 1071,683 1061,690 1051,697 1033,713 1025,720 1018,729 1011,737 1005,746 1000,754 995,763 990,773 987,782 983,791 981,801 979,811 977,821 976,831 976,842 977,860 978,869 979,877 981,885 983,894 986,901 989,909 993,917 997,924 1001,931 1006,938 1011,944 1017,951 1029,963 1036,969 1045,975 1055,981 1066,987 1092,999 1123,1011 1160,1023 1202,1036 1301,1060 1403,1085 1487,1107 1554,1128 1581,1138 1603,1148 1632,1162 1659,1177 1684,1193 1707,1210 1728,1228 1747,1246 1764,1266 1779,1287 1793,1308 1804,1330 1814,1353 1822,1377 1828,1402 1832,1427 1835,1454 1836,1481 1835,1508 1832,1534 1827,1560 1820,1586 1812,1612 1801,1637 1788,1661 1774,1686 1757,1709 1739,1731 1719,1752 1698,1771 1675,1789 1650,1806 1623,1821 1595,1836 1565,1848 1535,1859 1503,1868 1471,1876 1437,1881 1403,1886 1368,1888 1332,1889 1287,1888 1243,1886 1202,1881 1162,1876 1124,1868 1088,1859 1054,1848 1022,1835 992,1821 963,1805 936,1787 910,1768 887,1746 865,1724 844,1699 826,1673 809,1645 794,1617 782,1588 772,1558 763,1526 757,1495 753,1462 751,1428 Z"/>
         <path fill="rgb(0,0,0)" stroke="none" d="M 2026,1202 L 2029,1119 2037,1041 2052,968 2072,899 2084,866 2097,835 2112,805 2129,775 2146,747 2166,720 2186,695 2208,670 2231,647 2256,625 2280,605 2306,586 2333,569 2360,553 2388,539 2417,526 2447,515 2478,505 2509,497 2541,490 2609,481 2679,478 2726,479 2771,484 2815,491 2858,501 2900,513 2941,529 2981,547 3019,568 3056,592 3091,618 3123,646 3153,676 3181,709 3206,744 3229,781 3250,820 3269,861 3285,903 3299,947 3310,992 3319,1038 3325,1086 3329,1135 3330,1186 3329,1237 3325,1287 3318,1335 3309,1382 3297,1428 3283,1472 3266,1515 3246,1557 3224,1597 3200,1634 3174,1669 3145,1701 3114,1731 3081,1758 3046,1783 3009,1805 2970,1825 2931,1842 2891,1856 2850,1868 2808,1877 2765,1884 2722,1888 2678,1889 2631,1888 2584,1883 2539,1876 2496,1866 2453,1853 2412,1837 2372,1818 2334,1796 2297,1772 2263,1745 2230,1717 2201,1686 2173,1653 2148,1618 2125,1581 2104,1542 2086,1502 2070,1460 2057,1419 2046,1377 2037,1334 2031,1290 2027,1246 2026,1202 Z M 2212,1204 L 2214,1264 2220,1321 2231,1375 2245,1425 2264,1472 2275,1494 2287,1516 2300,1536 2313,1556 2328,1575 2345,1593 2379,1626 2397,1641 2415,1655 2434,1668 2453,1680 2473,1690 2494,1700 2515,1708 2537,1715 2559,1721 2581,1726 2628,1733 2677,1735 2727,1733 2774,1726 2797,1721 2820,1715 2842,1708 2863,1699 2883,1690 2904,1679 2923,1667 2942,1654 2960,1640 2978,1625 3012,1592 3028,1573 3043,1554 3057,1534 3070,1512 3082,1490 3093,1467 3111,1418 3125,1366 3136,1309 3142,1249 3144,1185 3143,1144 3140,1104 3136,1066 3130,1029 3122,993 3112,959 3101,926 3088,894 3073,864 3056,835 3038,809 3018,784 2997,761 2974,739 2949,719 2923,701 2896,685 2867,671 2838,660 2808,650 2777,643 2746,637 2713,634 2680,633 2633,635 2587,641 2544,652 2502,666 2461,684 2423,707 2385,734 2350,765 2333,782 2318,800 2303,820 2290,842 2277,864 2266,888 2256,914 2247,940 2231,998 2221,1061 2214,1130 2212,1204 Z"/>
        </g>
       </g>
      </g>
      <g class="Group">
       <g class="com.sun.star.drawing.PolyPolygonShape">
        <g id="id4">
         <rect class="BoundingBox" stroke="none" fill="none" x="1014" y="2184" width="1068" height="1055"/>
         <path fill="rgb(0,0,0)" stroke="none" d="M 1920,2863 L 2081,2897 2067,2937 2051,2975 2032,3010 2010,3043 1987,3074 1960,3102 1931,3127 1900,3150 1866,3170 1831,3188 1794,3203 1755,3215 1714,3225 1672,3232 1627,3236 1581,3237 1533,3236 1488,3233 1445,3228 1404,3220 1366,3211 1329,3199 1295,3186 1264,3170 1234,3153 1206,3133 1180,3112 1156,3088 1134,3063 1113,3036 1095,3007 1078,2976 1063,2944 1050,2912 1039,2878 1030,2845 1023,2810 1018,2775 1015,2740 1014,2703 1015,2664 1019,2627 1024,2590 1032,2555 1042,2521 1055,2488 1069,2456 1086,2426 1105,2397 1126,2371 1149,2345 1173,2322 1200,2300 1228,2281 1259,2263 1291,2246 1325,2232 1359,2220 1394,2209 1431,2200 1468,2194 1505,2189 1544,2186 1584,2185 1628,2186 1671,2190 1711,2196 1750,2204 1787,2215 1823,2229 1856,2245 1888,2263 1918,2283 1945,2306 1970,2330 1993,2356 2013,2385 2031,2415 2047,2447 2060,2481 1903,2513 1892,2486 1880,2461 1867,2438 1852,2417 1836,2397 1819,2380 1801,2364 1781,2351 1761,2339 1739,2329 1716,2320 1691,2313 1665,2307 1638,2303 1610,2301 1580,2300 1546,2301 1513,2304 1482,2308 1452,2314 1424,2322 1397,2332 1371,2343 1347,2356 1325,2371 1304,2387 1285,2404 1267,2422 1252,2442 1238,2462 1226,2484 1216,2507 1207,2531 1199,2555 1192,2579 1187,2604 1183,2628 1180,2653 1178,2678 1178,2703 1178,2735 1180,2766 1184,2795 1189,2824 1195,2852 1203,2879 1212,2905 1222,2929 1234,2953 1248,2975 1263,2995 1280,3014 1298,3031 1318,3047 1339,3061 1362,3074 1386,3085 1410,3095 1435,3103 1461,3110 1487,3115 1513,3119 1540,3121 1567,3122 1600,3121 1632,3118 1662,3113 1691,3106 1719,3097 1745,3085 1771,3072 1794,3057 1817,3039 1837,3020 1856,2999 1873,2976 1887,2951 1900,2923 1911,2894 1920,2863 Z"/>
        </g>
       </g>
       <g class="com.sun.star.drawing.PolyPolygonShape">
        <g id="id5">
         <rect class="BoundingBox" stroke="none" fill="none" x="2252" y="2467" width="760" height="1036"/>
         <path fill="rgb(0,0,0)" stroke="none" d="M 2253,3502 L 2253,2483 2387,2483 2387,2580 2399,2566 2412,2553 2425,2541 2438,2530 2452,2520 2466,2511 2480,2503 2495,2495 2511,2489 2527,2483 2544,2478 2562,2474 2580,2471 2600,2469 2620,2468 2641,2467 2668,2468 2695,2470 2721,2474 2746,2479 2770,2486 2794,2494 2816,2504 2838,2516 2859,2528 2878,2542 2896,2558 2913,2574 2929,2592 2943,2611 2956,2631 2967,2652 2978,2675 2986,2698 2994,2721 3000,2745 3005,2769 3008,2794 3010,2820 3011,2846 3010,2874 3008,2901 3004,2927 2999,2953 2992,2978 2984,3003 2974,3026 2963,3049 2950,3071 2936,3092 2921,3111 2904,3129 2886,3146 2866,3161 2845,3175 2823,3188 2800,3199 2777,3209 2753,3217 2729,3224 2705,3229 2680,3233 2655,3235 2630,3236 2612,3235 2594,3234 2577,3232 2560,3229 2544,3225 2528,3221 2513,3216 2498,3209 2483,3203 2470,3196 2456,3188 2444,3180 2432,3171 2421,3162 2411,3153 2401,3143 2401,3502 2253,3502 Z M 2387,2856 L 2388,2890 2392,2922 2397,2952 2404,2979 2414,3004 2420,3016 2426,3027 2432,3038 2440,3048 2447,3057 2455,3066 2473,3082 2482,3089 2491,3095 2501,3101 2511,3107 2521,3112 2531,3117 2541,3121 2552,3124 2563,3127 2574,3129 2585,3131 2597,3132 2608,3133 2620,3134 2633,3133 2645,3132 2656,3131 2668,3129 2679,3127 2690,3124 2701,3120 2712,3116 2722,3111 2733,3106 2743,3100 2752,3094 2771,3080 2789,3063 2798,3054 2806,3044 2813,3034 2820,3023 2826,3012 2832,3000 2842,2974 2849,2945 2855,2914 2858,2881 2859,2845 2858,2811 2855,2780 2850,2750 2842,2723 2833,2697 2827,2686 2821,2674 2814,2664 2807,2654 2799,2644 2791,2635 2773,2619 2755,2604 2745,2598 2736,2592 2726,2587 2716,2582 2705,2578 2695,2575 2684,2572 2673,2569 2662,2567 2650,2566 2639,2565 2627,2565 2615,2565 2604,2566 2592,2568 2581,2570 2570,2572 2559,2575 2549,2579 2538,2584 2528,2589 2518,2594 2508,2600 2498,2607 2479,2622 2460,2639 2451,2649 2443,2659 2435,2670 2428,2681 2416,2705 2406,2731 2398,2759 2392,2789 2388,2821 2387,2856 Z"/>
        </g>
       </g>
      </g>
     </g>
    </g>
   </g>
  </g>
 </g>
</svg>