<?xml version="1.0" encoding="UTF-8"?>
<!DOCTYPE svg PUBLIC "-//W3C//DTD SVG 1.1//EN" "http://www.w3.org/Graphics/SVG/1.1/DTD/svg11.dtd">
<svg version="1.2" width="40mm" height="40mm" viewBox="0 0 4000 4000" preserveAspectRatio="xMidYMid" fill-rule="evenodd" stroke-width="28.222" stroke-linejoin="round" xmlns="http://www.w3.org/2000/svg" xmlns:ooo="http://xml.openoffice.org/svg/export" xmlns:xlink="http://www.w3.org/1999/xlink" xmlns:presentation="http://sun.com/xmlns/staroffice/presentation" xmlns:smil="http://www.w3.org/2001/SMIL20/" xmlns:anim="urn:oasis:names:tc:opendocument:xmlns:animation:1.0" xml:space="preserve">
 <defs class="ClipPathGroup">
  <clipPath id="presentation_clip_path" clipPathUnits="userSpaceOnUse">
   <rect x="0" y="0" width="4000" height="4000"/>
  </clipPath>
  <clipPath id="presentation_clip_path_shrink" clipPathUnits="userSpaceOnUse">
   <rect x="4" y="4" width="3992" height="3992"/>
  </clipPath>
 </defs>
 <defs class="TextShapeIndex">
  <g ooo:slide="id1" ooo:id-list="id3 id4 id5 id6 id7 id8 id9 id10"/>
 </defs>
 <defs class="EmbeddedBulletChars">
  <g id="bullet-char-template-57356" transform="scale(0.00048828125,-0.00048828125)">
   <path d="M 580,1141 L 1163,571 580,0 -4,571 580,1141 Z"/>
  </g>
  <g id="bullet-char-template-57354" transform="scale(0.00048828125,-0.00048828125)">
   <path d="M 8,1128 L 1137,1128 1137,0 8,0 8,1128 Z"/>
  </g>
  <g id="bullet-char-template-10146" transform="scale(0.00048828125,-0.00048828125)">
   <path d="M 174,0 L 602,739 174,1481 1456,739 174,0 Z M 1358,739 L 309,1346 659,739 1358,739 Z"/>
  </g>
  <g id="bullet-char-template-10132" transform="scale(0.00048828125,-0.00048828125)">
   <path d="M 2015,739 L 1276,0 717,0 1260,543 174,543 174,936 1260,936 717,1481 1274,1481 2015,739 Z"/>
  </g>
  <g id="bullet-char-template-10007" transform="scale(0.00048828125,-0.00048828125)">
   <path d="M 0,-2 C -7,14 -16,27 -25,37 L 356,567 C 262,823 215,952 215,954 215,979 228,992 255,992 264,992 276,990 289,987 310,991 331,999 354,1012 L 381,999 492,748 772,1049 836,1024 860,1049 C 881,1039 901,1025 922,1006 886,937 835,863 770,784 769,783 710,716 594,584 L 774,223 C 774,196 753,168 711,139 L 727,119 C 717,90 699,76 672,76 641,76 570,178 457,381 L 164,-76 C 142,-110 111,-127 72,-127 30,-127 9,-110 8,-76 1,-67 -2,-52 -2,-32 -2,-23 -1,-13 0,-2 Z"/>
  </g>
  <g id="bullet-char-template-10004" transform="scale(0.00048828125,-0.00048828125)">
   <path d="M 285,-33 C 182,-33 111,30 74,156 52,228 41,333 41,471 41,549 55,616 82,672 116,743 169,778 240,778 293,778 328,747 346,684 L 369,508 C 377,444 397,411 428,410 L 1163,1116 C 1174,1127 1196,1133 1229,1133 1271,1133 1292,1118 1292,1087 L 1292,965 C 1292,929 1282,901 1262,881 L 442,47 C 390,-6 338,-33 285,-33 Z"/>
  </g>
  <g id="bullet-char-template-9679" transform="scale(0.00048828125,-0.00048828125)">
   <path d="M 813,0 C 632,0 489,54 383,161 276,268 223,411 223,592 223,773 276,916 383,1023 489,1130 632,1184 813,1184 992,1184 1136,1130 1245,1023 1353,916 1407,772 1407,592 1407,412 1353,268 1245,161 1136,54 992,0 813,0 Z"/>
  </g>
  <g id="bullet-char-template-8226" transform="scale(0.00048828125,-0.00048828125)">
   <path d="M 346,457 C 273,457 209,483 155,535 101,586 74,649 74,723 74,796 101,859 155,911 209,963 273,989 346,989 419,989 480,963 531,910 582,859 608,796 608,723 608,648 583,586 532,535 482,483 420,457 346,457 Z"/>
  </g>
  <g id="bullet-char-template-8211" transform="scale(0.00048828125,-0.00048828125)">
   <path d="M -4,459 L 1135,459 1135,606 -4,606 -4,459 Z"/>
  </g>
  <g id="bullet-char-template-61548" transform="scale(0.00048828125,-0.00048828125)">
   <path d="M 173,740 C 173,903 231,1043 346,1159 462,1274 601,1332 765,1332 928,1332 1067,1274 1183,1159 1299,1043 1357,903 1357,740 1357,577 1299,437 1183,322 1067,206 928,148 765,148 601,148 462,206 346,322 231,437 173,577 173,740 Z"/>
  </g>
 </defs>
 <g>
  <g id="id2" class="Master_Slide">
   <g id="bg-id2" class="Background"/>
   <g id="bo-id2" class="BackgroundObjects"/>
  </g>
 </g>
 <g class="SlideGroup">
  <g>
   <g id="container-id1">
    <g id="id1" class="Slide" clip-path="url(#presentation_clip_path)">
     <g class="Page">
      <g class="com.sun.star.drawing.ClosedBezierShape">
       <g id="id3">
        <rect class="BoundingBox" stroke="none" fill="none" x="65" y="65" width="3867" height="3867"/>
        <path fill="rgb(255,255,255)" stroke="none" d="M 3930,1999 C 3930,2336 3841,2669 3671,2963 3502,3257 3257,3502 2963,3671 2669,3841 2336,3930 1999,3930 1659,3930 1327,3841 1033,3671 739,3502 494,3257 325,2963 155,2669 66,2337 66,1999 66,1660 156,1327 325,1033 495,739 739,494 1033,325 1327,155 1660,66 1999,66 2337,66 2669,155 2963,325 3257,494 3501,739 3671,1033 3840,1327 3930,1660 3930,1999 Z"/>
       </g>
      </g>
      <g class="com.sun.star.drawing.ClosedBezierShape">
       <g id="id4">
        <rect class="BoundingBox" stroke="none" fill="none" x="-1" y="-1" width="3999" height="3999"/>
        <path fill="none" stroke="rgb(0,0,0)" stroke-width="133" stroke-linejoin="round" d="M 3930,1999 C 3930,2337 3841,2669 3671,2963 3502,3257 3257,3502 2963,3671 2669,3841 2336,3930 1999,3930 1659,3930 1327,3840 1033,3671 739,3501 494,3257 325,2963 155,2669 66,2337 66,1999 66,1660 156,1327 325,1033 495,739 739,494 1033,325 1327,155 1660,66 1999,66 2337,66 2669,155 2963,325 3257,494 3501,739 3671,1033 3840,1327 3930,1660 3930,1999 Z"/>
       </g>
      </g>
      <g class="Group">
       <g class="com.sun.star.drawing.PolyPolygonShape">
        <g id="id5">
         <rect class="BoundingBox" stroke="none" fill="none" x="751" y="478" width="1086" height="1412"/>
         <path fill="rgb(0,0,0)" stroke="none" d="M 751,1428 L 921,1413 925,1438 929,1462 935,1485 941,1506 949,1527 957,1546 967,1564 977,1581 989,1597 1002,1612 1017,1627 1034,1641 1052,1654 1071,1666 1092,1677 1114,1687 1138,1697 1162,1705 1187,1712 1213,1718 1240,1722 1267,1725 1295,1727 1324,1728 1349,1728 1374,1726 1398,1724 1421,1720 1443,1716 1465,1711 1486,1704 1506,1697 1525,1689 1543,1680 1559,1671 1575,1661 1589,1650 1602,1638 1613,1626 1623,1613 1632,1599 1640,1585 1647,1571 1652,1557 1657,1542 1660,1527 1661,1512 1662,1496 1661,1480 1660,1465 1657,1450 1653,1436 1647,1422 1641,1409 1634,1396 1625,1384 1615,1372 1603,1361 1590,1350 1575,1340 1559,1330 1542,1320 1523,1312 1502,1303 1486,1297 1466,1291 1414,1276 1259,1237 1172,1214 1099,1193 1068,1182 1040,1172 1016,1161 996,1151 972,1138 950,1124 929,1109 910,1094 893,1078 877,1061 863,1043 850,1024 839,1005 829,985 821,965 814,944 809,922 805,900 803,877 802,854 803,829 806,803 810,779 817,754 825,730 835,707 847,684 861,661 876,639 893,619 912,600 933,582 955,566 979,551 1005,537 1032,525 1060,514 1090,504 1120,496 1151,490 1182,485 1215,481 1248,479 1282,478 1320,479 1356,481 1391,485 1425,490 1458,497 1490,505 1520,515 1550,527 1578,540 1604,554 1629,570 1652,587 1674,606 1693,626 1712,647 1728,670 1743,694 1756,719 1767,745 1776,771 1783,799 1789,827 1793,855 1795,885 1622,898 1617,867 1611,837 1602,810 1591,785 1585,773 1579,761 1571,750 1564,740 1555,730 1547,720 1537,711 1528,703 1517,695 1506,687 1495,681 1482,674 1456,663 1428,653 1397,646 1364,641 1328,638 1290,637 1250,638 1213,641 1179,645 1148,652 1120,660 1094,671 1082,677 1071,683 1061,690 1051,697 1033,713 1025,720 1018,729 1011,737 1005,746 1000,754 995,763 990,773 987,782 983,791 981,801 979,811 977,821 976,831 976,842 977,860 978,869 979,877 981,885 983,894 986,901 989,909 993,917 997,924 1001,931 1006,938 1011,944 1017,951 1029,963 1036,969 1045,975 1055,981 1066,987 1092,999 1123,1011 1160,1023 1202,1036 1301,1060 1403,1085 1487,1107 1554,1128 1581,1138 1603,1148 1632,1162 1659,1177 1684,1193 1707,1210 1728,1228 1747,1246 1764,1266 1779,1287 1793,1308 1804,1330 1814,1353 1822,1377 1828,1402 1832,1427 1835,1454 1836,1481 1835,1508 1832,1534 1827,1560 1820,1586 1812,1612 1801,1637 1788,1661 1774,1686 1757,1709 1739,1731 1719,1752 1698,1771 1675,1789 1650,1806 1623,1821 1595,1836 1565,1848 1535,1859 1503,1868 1471,1876 1437,1881 1403,1886 1368,1888 1332,1889 1287,1888 1243,1886 1202,1881 1162,1876 1124,1868 1088,1859 1054,1848 1022,1835 992,1821 963,1805 936,1787 910,1768 887,1746 865,1724 844,1699 826,1673 809,1645 794,1617 782,1588 772,1558 763,1526 757,1495 753,1462 751,1428 Z"/>
        </g>
       </g>
       <g class="com.sun.star.drawing.PolyPolygonShape">
        <g id="id6">
         <rect class="BoundingBox" stroke="none" fill="none" x="2027" y="478" width="1305" height="1412"/>
         <path fill="rgb(0,0,0)" stroke="none" d="M 2027,1202 L 2030,1119 2038,1041 2053,968 2073,899 2085,866 2098,835 2113,805 2130,775 2147,747 2167,720 2187,695 2209,670 2232,647 2257,625 2281,605 2307,586 2334,569 2361,553 2389,539 2418,526 2448,515 2479,505 2510,497 2542,490 2610,481 2680,478 2727,479 2772,484 2816,491 2859,501 2901,513 2942,529 2982,547 3020,568 3057,592 3092,618 3124,646 3154,676 3182,709 3207,744 3230,781 3251,820 3270,861 3286,903 3300,947 3311,992 3320,1038 3326,1086 3330,1135 3331,1186 3330,1237 3326,1287 3319,1335 3310,1382 3298,1428 3284,1472 3267,1515 3247,1557 3225,1597 3201,1634 3175,1669 3146,1701 3115,1731 3082,1758 3047,1783 3010,1805 2971,1825 2932,1842 2892,1856 2851,1868 2809,1877 2766,1884 2723,1888 2679,1889 2632,1888 2585,1883 2540,1876 2497,1866 2454,1853 2413,1837 2373,1818 2335,1796 2298,1772 2264,1745 2231,1717 2202,1686 2174,1653 2149,1618 2126,1581 2105,1542 2087,1502 2071,1460 2058,1419 2047,1377 2038,1334 2032,1290 2028,1246 2027,1202 Z M 2213,1204 L 2215,1264 2221,1321 2232,1375 2246,1425 2265,1472 2276,1494 2288,1516 2301,1536 2314,1556 2329,1575 2346,1593 2380,1626 2398,1641 2416,1655 2435,1668 2454,1680 2474,1690 2495,1700 2516,1708 2538,1715 2560,1721 2582,1726 2629,1733 2678,1735 2728,1733 2775,1726 2798,1721 2821,1715 2843,1708 2864,1699 2884,1690 2905,1679 2924,1667 2943,1654 2961,1640 2979,1625 3013,1592 3029,1573 3044,1554 3058,1534 3071,1512 3083,1490 3094,1467 3112,1418 3126,1366 3137,1309 3143,1249 3145,1185 3144,1144 3141,1104 3137,1066 3131,1029 3123,993 3113,959 3102,926 3089,894 3074,864 3057,835 3039,809 3019,784 2998,761 2975,739 2950,719 2924,701 2897,685 2868,671 2839,660 2809,650 2778,643 2747,637 2714,634 2681,633 2634,635 2588,641 2545,652 2503,666 2462,684 2424,707 2386,734 2351,765 2334,782 2319,800 2304,820 2291,842 2278,864 2267,888 2257,914 2248,940 2232,998 2222,1061 2215,1130 2213,1204 Z"/>
        </g>
       </g>
       <g class="com.sun.star.drawing.PolyPolygonShape">
        <g id="id7">
         <rect class="BoundingBox" stroke="none" fill="none" x="596" y="2441" width="845" height="658"/>
         <path fill="rgb(0,0,0)" stroke="none" d="M 769,3098 L 596,2441 686,2441 785,2872 813,3006 843,2885 967,2441 1072,2441 1166,2774 1182,2835 1196,2894 1208,2951 1218,3006 1251,2864 1353,2441 1440,2441 1261,3098 1176,3098 1039,2598 1018,2520 997,2598 859,3098 769,3098 Z"/>
        </g>
       </g>
       <g class="com.sun.star.drawing.PolyPolygonShape">
        <g id="id8">
         <rect class="BoundingBox" stroke="none" fill="none" x="1497" y="2429" width="629" height="681"/>
         <path fill="rgb(0,0,0)" stroke="none" d="M 1497,2778 L 1498,2738 1502,2701 1509,2666 1519,2633 1525,2617 1531,2602 1538,2587 1546,2573 1555,2560 1564,2547 1574,2534 1585,2522 1596,2511 1608,2501 1620,2491 1632,2482 1645,2474 1658,2466 1671,2459 1685,2453 1700,2448 1714,2443 1730,2439 1745,2436 1778,2431 1811,2430 1834,2431 1856,2433 1877,2436 1898,2441 1918,2447 1938,2454 1957,2463 1975,2473 1993,2485 2010,2497 2025,2511 2040,2525 2053,2541 2065,2558 2077,2576 2087,2594 2096,2614 2103,2635 2110,2656 2115,2677 2120,2700 2123,2723 2124,2746 2125,2771 2124,2795 2122,2819 2119,2843 2115,2865 2109,2887 2102,2909 2094,2929 2085,2949 2074,2968 2062,2986 2050,3003 2036,3018 2021,3033 2005,3046 1988,3058 1970,3068 1952,3078 1933,3086 1913,3093 1894,3099 1874,3103 1853,3106 1832,3108 1811,3109 1788,3108 1766,3106 1744,3103 1723,3098 1703,3092 1683,3084 1664,3075 1645,3064 1628,3053 1611,3040 1595,3026 1581,3011 1568,2996 1556,2979 1545,2961 1535,2942 1526,2923 1518,2903 1512,2883 1506,2862 1502,2842 1499,2821 1498,2800 1497,2778 Z M 1587,2780 L 1588,2809 1591,2836 1596,2862 1603,2886 1612,2908 1617,2919 1623,2929 1629,2939 1636,2949 1643,2958 1651,2967 1667,2983 1676,2990 1685,2997 1694,3003 1703,3008 1713,3013 1723,3018 1733,3022 1743,3025 1754,3028 1765,3031 1787,3034 1811,3035 1834,3034 1857,3031 1868,3028 1879,3025 1890,3022 1900,3018 1910,3013 1919,3008 1929,3002 1938,2996 1947,2989 1955,2982 1972,2966 1979,2957 1987,2948 1993,2938 1999,2928 2005,2917 2010,2906 2019,2883 2026,2857 2031,2830 2034,2801 2035,2770 2035,2751 2033,2732 2031,2713 2028,2695 2024,2678 2020,2662 2014,2646 2008,2631 2001,2616 1993,2602 1984,2590 1975,2578 1964,2566 1953,2556 1941,2547 1929,2538 1916,2530 1902,2524 1888,2518 1874,2513 1859,2510 1844,2507 1828,2506 1812,2505 1789,2506 1767,2509 1746,2514 1726,2521 1707,2530 1688,2541 1670,2553 1653,2568 1645,2577 1638,2586 1631,2595 1624,2605 1618,2616 1613,2628 1608,2640 1604,2653 1596,2681 1591,2711 1588,2744 1587,2780 Z"/>
        </g>
       </g>
       <g class="com.sun.star.drawing.PolyPolygonShape">
        <g id="id9">
         <rect class="BoundingBox" stroke="none" fill="none" x="2213" y="2429" width="582" height="681"/>
         <path fill="rgb(0,0,0)" stroke="none" d="M 2707,2868 L 2794,2890 2786,2916 2778,2940 2767,2963 2756,2984 2743,3004 2729,3022 2713,3038 2696,3053 2678,3066 2658,3077 2638,3087 2617,3095 2595,3101 2572,3105 2547,3108 2522,3109 2496,3108 2472,3106 2448,3103 2426,3098 2405,3092 2386,3085 2367,3076 2350,3066 2334,3054 2319,3042 2304,3028 2291,3013 2279,2997 2268,2979 2258,2960 2249,2941 2241,2920 2234,2899 2228,2877 2223,2856 2219,2833 2216,2811 2215,2788 2214,2765 2215,2739 2216,2715 2220,2691 2224,2669 2229,2647 2236,2625 2244,2605 2253,2586 2263,2567 2275,2550 2287,2534 2301,2518 2315,2505 2331,2492 2347,2480 2365,2470 2383,2460 2402,2452 2421,2445 2441,2440 2461,2436 2481,2432 2502,2431 2524,2430 2548,2431 2571,2433 2593,2437 2614,2443 2635,2450 2654,2458 2672,2468 2689,2480 2706,2493 2720,2508 2734,2523 2746,2540 2757,2559 2767,2578 2776,2599 2783,2621 2697,2641 2691,2624 2684,2608 2677,2593 2669,2579 2660,2567 2651,2556 2641,2546 2631,2537 2620,2529 2608,2522 2595,2517 2582,2512 2568,2509 2553,2506 2538,2505 2522,2504 2503,2505 2486,2506 2469,2509 2453,2513 2437,2518 2423,2524 2409,2532 2396,2540 2384,2550 2372,2560 2362,2571 2353,2583 2344,2595 2337,2609 2330,2623 2325,2638 2320,2653 2316,2669 2312,2684 2309,2700 2307,2716 2305,2732 2304,2748 2304,2764 2304,2785 2306,2805 2307,2824 2310,2843 2314,2861 2318,2878 2323,2895 2328,2911 2335,2926 2342,2940 2350,2953 2359,2965 2369,2976 2380,2987 2392,2996 2404,3004 2417,3011 2430,3018 2444,3023 2458,3027 2472,3031 2486,3033 2500,3035 2515,3035 2533,3034 2550,3032 2567,3029 2583,3024 2598,3019 2612,3011 2626,3003 2639,2993 2651,2982 2662,2969 2672,2955 2681,2940 2689,2924 2696,2907 2702,2888 2707,2868 Z"/>
        </g>
       </g>
       <g class="com.sun.star.drawing.PolyPolygonShape">
        <g id="id10">
         <rect class="BoundingBox" stroke="none" fill="none" x="2907" y="2441" width="515" height="658"/>
         <path fill="rgb(0,0,0)" stroke="none" d="M 2907,3098 L 2907,2441 2994,2441 2994,2711 3334,2711 3334,2441 3421,2441 3421,3098 3334,3098 3334,2788 2994,2788 2994,3098 2907,3098 Z"/>
        </g>
       </g>
      </g>
     </g>
    </g>
   </g>
  </g>
 </g>
</svg>