<?xml version="1.0" encoding="UTF-8"?>
<!DOCTYPE svg PUBLIC "-//W3C//DTD SVG 1.1//EN" "http://www.w3.org/Graphics/SVG/1.1/DTD/svg11.dtd">
<svg version="1.2" width="40.26mm" height="40.26mm" viewBox="0 0 4026 4026" preserveAspectRatio="xMidYMid" fill-rule="evenodd" stroke-width="28.222" stroke-linejoin="round" xmlns="http://www.w3.org/2000/svg" xmlns:ooo="http://xml.openoffice.org/svg/export" xmlns:xlink="http://www.w3.org/1999/xlink" xmlns:presentation="http://sun.com/xmlns/staroffice/presentation" xmlns:smil="http://www.w3.org/2001/SMIL20/" xmlns:anim="urn:oasis:names:tc:opendocument:xmlns:animation:1.0" xml:space="preserve">
 <defs class="ClipPathGroup">
  <clipPath id="presentation_clip_path" clipPathUnits="userSpaceOnUse">
   <rect x="0" y="0" width="4026" height="4026"/>
  </clipPath>
  <clipPath id="presentation_clip_path_shrink" clipPathUnits="userSpaceOnUse">
   <rect x="4" y="4" width="4018" height="4018"/>
  </clipPath>
 </defs>
 <defs class="TextShapeIndex">
  <g ooo:slide="id1" ooo:id-list="id3 id4 id5 id6 id7 id8"/>
 </defs>
 <defs class="EmbeddedBulletChars">
  <g id="bullet-char-template-57356" transform="scale(0.00048828125,-0.00048828125)">
   <path d="M 580,1141 L 1163,571 580,0 -4,571 580,1141 Z"/>
  </g>
  <g id="bullet-char-template-57354" transform="scale(0.00048828125,-0.00048828125)">
   <path d="M 8,1128 L 1137,1128 1137,0 8,0 8,1128 Z"/>
  </g>
  <g id="bullet-char-template-10146" transform="scale(0.00048828125,-0.00048828125)">
   <path d="M 174,0 L 602,739 174,1481 1456,739 174,0 Z M 1358,739 L 309,1346 659,739 1358,739 Z"/>
  </g>
  <g id="bullet-char-template-10132" transform="scale(0.00048828125,-0.00048828125)">
   <path d="M 2015,739 L 1276,0 717,0 1260,543 174,543 174,936 1260,936 717,1481 1274,1481 2015,739 Z"/>
  </g>
  <g id="bullet-char-template-10007" transform="scale(0.00048828125,-0.00048828125)">
   <path d="M 0,-2 C -7,14 -16,27 -25,37 L 356,567 C 262,823 215,952 215,954 215,979 228,992 255,992 264,992 276,990 289,987 310,991 331,999 354,1012 L 381,999 492,748 772,1049 836,1024 860,1049 C 881,1039 901,1025 922,1006 886,937 835,863 770,784 769,783 710,716 594,584 L 774,223 C 774,196 753,168 711,139 L 727,119 C 717,90 699,76 672,76 641,76 570,178 457,381 L 164,-76 C 142,-110 111,-127 72,-127 30,-127 9,-110 8,-76 1,-67 -2,-52 -2,-32 -2,-23 -1,-13 0,-2 Z"/>
  </g>
  <g id="bullet-char-template-10004" transform="scale(0.00048828125,-0.00048828125)">
   <path d="M 285,-33 C 182,-33 111,30 74,156 52,228 41,333 41,471 41,549 55,616 82,672 116,743 169,778 240,778 293,778 328,747 346,684 L 369,508 C 377,444 397,411 428,410 L 1163,1116 C 1174,1127 1196,1133 1229,1133 1271,1133 1292,1118 1292,1087 L 1292,965 C 1292,929 1282,901 1262,881 L 442,47 C 390,-6 338,-33 285,-33 Z"/>
  </g>
  <g id="bullet-char-template-9679" transform="scale(0.00048828125,-0.00048828125)">
   <path d="M 813,0 C 632,0 489,54 383,161 276,268 223,411 223,592 223,773 276,916 383,1023 489,1130 632,1184 813,1184 992,1184 1136,1130 1245,1023 1353,916 1407,772 1407,592 1407,412 1353,268 1245,161 1136,54 992,0 813,0 Z"/>
  </g>
  <g id="bullet-char-template-8226" transform="scale(0.00048828125,-0.00048828125)">
   <path d="M 346,457 C 273,457 209,483 155,535 101,586 74,649 74,723 74,796 101,859 155,911 209,963 273,989 346,989 419,989 480,963 531,910 582,859 608,796 608,723 608,648 583,586 532,535 482,483 420,457 346,457 Z"/>
  </g>
  <g id="bullet-char-template-8211" transform="scale(0.00048828125,-0.00048828125)">
   <path d="M -4,459 L 1135,459 1135,606 -4,606 -4,459 Z"/>
  </g>
  <g id="bullet-char-template-61548" transform="scale(0.00048828125,-0.00048828125)">
   <path d="M 173,740 C 173,903 231,1043 346,1159 462,1274 601,1332 765,1332 928,1332 1067,1274 1183,1159 1299,1043 1357,903 1357,740 1357,577 1299,437 1183,322 1067,206 928,148 765,148 601,148 462,206 346,322 231,437 173,577 173,740 Z"/>
  </g>
 </defs>
 <g>
  <g id="id2" class="Master_Slide">
   <g id="bg-id2" class="Background"/>
   <g id="bo-id2" class="BackgroundObjects"/>
  </g>
 </g>
 <g class="SlideGroup">
  <g>
   <g id="container-id1">
    <g id="id1" class="Slide" clip-path="url(#presentation_clip_path)">
     <g class="Page">
      <g class="com.sun.star.drawing.ClosedBezierShape">
       <g id="id3">
        <rect class="BoundingBox" stroke="none" fill="none" x="78" y="78" width="3865" height="3865"/>
        <path fill="rgb(255,255,255)" stroke="none" d="M 3941,2012 C 3941,2347 3852,2680 3682,2974 3513,3268 3268,3513 2974,3682 2680,3852 2347,3941 2012,3941 1672,3941 1340,3852 1046,3682 752,3513 507,3268 338,2974 168,2680 79,2348 79,2012 79,1673 169,1340 338,1046 508,752 752,507 1046,338 1340,168 1673,79 2012,79 2348,79 2680,168 2974,338 3268,507 3512,752 3682,1046 3851,1340 3941,1673 3941,2012 Z"/>
       </g>
      </g>
      <g class="com.sun.star.drawing.ClosedBezierShape">
       <g id="id4">
        <rect class="BoundingBox" stroke="none" fill="none" x="12" y="12" width="3997" height="3997"/>
        <path fill="none" stroke="rgb(0,0,0)" stroke-width="133" stroke-linejoin="round" d="M 3941,2012 C 3941,2348 3852,2680 3682,2974 3513,3268 3268,3513 2974,3682 2680,3852 2347,3941 2012,3941 1672,3941 1340,3851 1046,3682 752,3512 507,3268 338,2974 168,2680 79,2348 79,2012 79,1673 169,1340 338,1046 508,752 752,507 1046,338 1340,168 1673,79 2012,79 2348,79 2680,168 2974,338 3268,507 3512,752 3682,1046 3851,1340 3941,1673 3941,2012 Z"/>
       </g>
      </g>
      <g class="com.sun.star.drawing.PolyPolygonShape">
       <g id="id5">
        <rect class="BoundingBox" stroke="none" fill="none" x="763" y="490" width="1087" height="1413"/>
        <path fill="rgb(0,0,0)" stroke="none" d="M 764,1441 L 934,1426 938,1451 942,1475 948,1498 954,1519 962,1540 970,1559 980,1577 990,1594 1002,1610 1015,1625 1030,1640 1047,1654 1065,1667 1084,1679 1105,1690 1127,1700 1151,1710 1175,1718 1200,1725 1226,1731 1253,1735 1280,1738 1308,1740 1337,1741 1362,1741 1387,1739 1411,1737 1434,1733 1456,1729 1478,1724 1499,1717 1519,1710 1538,1702 1556,1693 1572,1684 1588,1674 1602,1663 1615,1651 1626,1639 1636,1626 1645,1612 1653,1598 1660,1584 1665,1570 1670,1555 1673,1540 1674,1525 1675,1509 1674,1493 1673,1478 1670,1463 1666,1449 1660,1435 1654,1422 1647,1409 1638,1397 1628,1385 1616,1374 1603,1363 1588,1353 1572,1343 1555,1333 1536,1325 1515,1316 1499,1310 1479,1304 1427,1289 1272,1250 1185,1227 1112,1206 1081,1195 1053,1185 1029,1174 1009,1164 985,1151 963,1137 942,1122 923,1107 906,1091 890,1074 876,1056 863,1037 852,1018 842,998 834,978 827,957 822,935 818,913 816,890 815,867 816,842 819,816 823,792 830,767 838,743 848,720 860,697 874,674 889,652 906,632 925,613 946,595 968,579 992,564 1018,550 1045,538 1073,527 1103,517 1133,509 1164,503 1195,498 1228,494 1261,492 1295,491 1333,492 1369,494 1404,498 1438,503 1471,510 1503,518 1533,528 1563,540 1591,553 1617,567 1642,583 1665,600 1687,619 1706,639 1725,660 1741,683 1756,707 1769,732 1780,758 1789,784 1796,812 1802,840 1806,868 1808,898 1635,911 1630,880 1624,850 1615,823 1604,798 1598,786 1592,774 1584,763 1577,753 1568,743 1560,733 1550,724 1541,716 1530,708 1519,700 1508,694 1495,687 1469,676 1441,666 1410,659 1377,654 1341,651 1303,650 1263,651 1226,654 1192,658 1161,665 1133,673 1107,684 1095,690 1084,696 1074,703 1064,710 1046,726 1038,733 1031,742 1024,750 1018,759 1013,767 1008,776 1003,786 1000,795 996,804 994,814 992,824 990,834 989,844 989,855 990,873 991,882 992,890 994,898 996,907 999,914 1002,922 1006,930 1010,937 1014,944 1019,951 1024,957 1030,964 1042,976 1049,982 1058,988 1068,994 1079,1000 1105,1012 1136,1024 1173,1036 1215,1049 1314,1073 1416,1098 1500,1120 1567,1141 1594,1151 1616,1161 1645,1175 1672,1190 1697,1206 1720,1223 1741,1241 1760,1259 1777,1279 1792,1300 1806,1321 1817,1343 1827,1366 1835,1390 1841,1415 1845,1440 1848,1467 1849,1494 1848,1521 1845,1547 1840,1573 1833,1599 1825,1625 1814,1650 1801,1674 1787,1699 1770,1722 1752,1744 1732,1765 1711,1784 1688,1802 1663,1819 1636,1834 1608,1849 1578,1861 1548,1872 1516,1881 1484,1889 1450,1894 1416,1899 1381,1901 1345,1902 1300,1901 1256,1899 1215,1894 1175,1889 1137,1881 1101,1872 1067,1861 1035,1848 1005,1834 976,1818 949,1800 923,1781 900,1759 878,1737 857,1712 839,1686 822,1658 807,1630 795,1601 785,1571 776,1539 770,1508 766,1475 764,1441 Z"/>
       </g>
      </g>
      <g class="com.sun.star.drawing.PolyPolygonShape">
       <g id="id6">
        <rect class="BoundingBox" stroke="none" fill="none" x="2038" y="490" width="1306" height="1413"/>
        <path fill="rgb(0,0,0)" stroke="none" d="M 2038,1215 L 2041,1132 2049,1054 2064,981 2084,912 2096,879 2109,848 2124,818 2141,788 2158,760 2178,733 2198,708 2220,683 2243,660 2268,638 2292,618 2318,599 2345,582 2372,566 2400,552 2429,539 2459,528 2490,518 2521,510 2553,503 2621,494 2691,491 2738,492 2783,497 2827,504 2870,514 2912,526 2953,542 2993,560 3031,581 3068,605 3103,631 3135,659 3165,689 3193,722 3218,757 3241,794 3262,833 3281,874 3297,916 3311,960 3322,1005 3331,1051 3337,1099 3341,1148 3342,1199 3341,1250 3337,1300 3330,1348 3321,1395 3309,1441 3295,1485 3278,1528 3258,1570 3236,1610 3212,1647 3186,1682 3157,1714 3126,1744 3093,1771 3058,1796 3021,1818 2982,1838 2943,1855 2903,1869 2862,1881 2820,1890 2777,1897 2734,1901 2690,1902 2643,1901 2596,1896 2551,1889 2508,1879 2465,1866 2424,1850 2384,1831 2346,1809 2309,1785 2275,1758 2242,1730 2213,1699 2185,1666 2160,1631 2137,1594 2116,1555 2098,1515 2082,1473 2069,1432 2058,1390 2049,1347 2043,1303 2039,1259 2038,1215 Z M 2224,1217 L 2226,1277 2232,1334 2243,1388 2257,1438 2276,1485 2287,1507 2299,1529 2312,1549 2325,1569 2340,1588 2357,1606 2391,1639 2409,1654 2427,1668 2446,1681 2465,1693 2485,1703 2506,1713 2527,1721 2549,1728 2571,1734 2593,1739 2640,1746 2689,1748 2739,1746 2786,1739 2809,1734 2832,1728 2854,1721 2875,1712 2895,1703 2916,1692 2935,1680 2954,1667 2972,1653 2990,1638 3024,1605 3040,1586 3055,1567 3069,1547 3082,1525 3094,1503 3105,1480 3123,1431 3137,1379 3148,1322 3154,1262 3156,1198 3155,1157 3152,1117 3148,1079 3142,1042 3134,1006 3124,972 3113,939 3100,907 3085,877 3068,848 3050,822 3030,797 3009,774 2986,752 2961,732 2935,714 2908,698 2879,684 2850,673 2820,663 2789,656 2758,650 2725,647 2692,646 2645,648 2599,654 2556,665 2514,679 2473,697 2435,720 2397,747 2362,778 2345,795 2330,813 2315,833 2302,855 2289,877 2278,901 2268,927 2259,953 2243,1011 2233,1074 2226,1143 2224,1217 Z"/>
       </g>
      </g>
      <g class="Group">
       <g class="com.sun.star.drawing.PolyPolygonShape">
        <g id="id7">
         <rect class="BoundingBox" stroke="none" fill="none" x="1095" y="2264" width="731" height="977"/>
         <path fill="rgb(0,0,0)" stroke="none" d="M 1095,3240 L 1095,2264 1825,2264 1825,2379 1238,2379 1238,2681 1746,2681 1746,2796 1238,2796 1238,3240 1095,3240 Z"/>
        </g>
       </g>
       <g class="com.sun.star.drawing.PolyPolygonShape">
        <g id="id8">
         <rect class="BoundingBox" stroke="none" fill="none" x="2014" y="2264" width="852" height="977"/>
         <path fill="rgb(0,0,0)" stroke="none" d="M 2015,3240 L 2015,2264 2158,2264 2158,2665 2721,2665 2721,2264 2864,2264 2864,3240 2721,3240 2721,2780 2158,2780 2158,3240 2015,3240 Z"/>
        </g>
       </g>
      </g>
     </g>
    </g>
   </g>
  </g>
 </g>
</svg>